<svg width="64" height="64" viewBox="0 0 64 64" fill="none" xmlns="http://www.w3.org/2000/svg">
<path d="M20.6667 53.0664H7.33333C5.91885 53.0664 4.56229 52.5045 3.56211 51.5045C2.5619 50.5042 2 49.1477 2 47.733V7.39449C2 5.98001 2.5619 4.62345 3.56211 3.62327C4.56229 2.62306 5.91885 2.06116 7.33333 2.06116H55.3333C56.7477 2.06116 58.1043 2.62306 59.1045 3.62327C60.1048 4.62345 60.6667 5.98001 60.6667 7.39449V25.0665" stroke="black" stroke-width="1.5" stroke-linecap="round" stroke-linejoin="round"/>
<path d="M2 14.8131H60.6667" stroke="black" stroke-width="1.5" stroke-linecap="round" stroke-linejoin="round"/>
<path d="M62 55.0829L46 61.9389V43.6536L62 36.7976V55.0829Z" stroke="black" stroke-width="1.5" stroke-linecap="round" stroke-linejoin="round"/>
<path d="M30 55.0829L46 61.9389V43.6536L30 36.7976V55.0829Z" stroke="black" stroke-width="1.5" stroke-linecap="round" stroke-linejoin="round"/>
<path d="M46 29.939L62 36.7976L46 43.6536L30 36.7976L46 29.939Z" stroke="black" stroke-width="1.5" stroke-linecap="round" stroke-linejoin="round"/>
</svg>
