<svg width="58" height="55" viewBox="0 0 58 55" fill="none" xmlns="http://www.w3.org/2000/svg">
<path d="M51.75 1H5.83333C3.16396 1 1 3.16396 1 5.83333V49.3333C1 52.0028 3.16396 54.1667 5.83333 54.1667H51.75C54.4195 54.1667 56.5833 52.0028 56.5833 49.3333V5.83333C56.5833 3.16396 54.4195 1 51.75 1Z" stroke="#031312" stroke-width="1.5" stroke-linecap="round" stroke-linejoin="round"/>
<path d="M1 13.0834H56.5833" stroke="#031312" stroke-width="1.5" stroke-linecap="round" stroke-linejoin="round"/>
<path d="M23.9582 7.64583C23.6245 7.64583 23.354 7.37534 23.354 7.04167C23.354 6.708 23.6245 6.4375 23.9582 6.4375" stroke="#031312" stroke-width="1.5"/>
<path d="M23.958 7.64583C24.2917 7.64583 24.5622 7.37534 24.5622 7.04167C24.5622 6.708 24.2917 6.4375 23.958 6.4375" stroke="#031312" stroke-width="1.5"/>
<path d="M16.7082 7.64583C16.3745 7.64583 16.104 7.37534 16.104 7.04167C16.104 6.708 16.3745 6.4375 16.7082 6.4375" stroke="#031312" stroke-width="1.5"/>
<path d="M16.708 7.64583C17.0417 7.64583 17.3122 7.37534 17.3122 7.04167C17.3122 6.708 17.0417 6.4375 16.708 6.4375" stroke="#031312" stroke-width="1.5"/>
<path d="M9.45817 7.64583C9.1245 7.64583 8.854 7.37534 8.854 7.04167C8.854 6.708 9.1245 6.4375 9.45817 6.4375" stroke="#031312" stroke-width="1.5"/>
<path d="M9.45801 7.64583C9.79168 7.64583 10.0622 7.37534 10.0622 7.04167C10.0622 6.708 9.79168 6.4375 9.45801 6.4375" stroke="#031312" stroke-width="1.5"/>
<path d="M45.708 14.2917V53.1348" stroke="#031312" stroke-width="1.5" stroke-linecap="round" stroke-linejoin="round"/>
<path d="M36.0416 20.4397H9.47998V31.2083H36.0416V20.4397Z" stroke="#031312" stroke-width="1.5" stroke-linecap="round" stroke-linejoin="round"/>
<path d="M9.47998 38.4584H20.4106" stroke="#031312" stroke-width="1.5" stroke-linecap="round" stroke-linejoin="round"/>
<path d="M9.47998 45.7084H20.4106" stroke="#031312" stroke-width="1.5" stroke-linecap="round" stroke-linejoin="round"/>
<path d="M36.0417 38.3279H26.375V45.7326H36.0417V38.3279Z" stroke="#031312" stroke-width="1.5" stroke-linecap="round" stroke-linejoin="round"/>
</svg>
