<svg width="70" height="70" viewBox="0 0 70 70" fill="none" xmlns="http://www.w3.org/2000/svg">
<path d="M17.5 56.8753H46.4333C47.4676 56.8758 48.4689 56.5101 49.2593 55.8425C50.0494 55.1751 50.5776 54.2494 50.75 53.2294L58.3333 8.021C58.5086 6.98097 59.054 6.03933 59.8687 5.36943C60.6833 4.6995 61.7123 4.3464 62.7667 4.37516H65.6833" stroke="black" stroke-width="1.5" stroke-linecap="round" stroke-linejoin="round"/>
<path d="M22.7907 65.6536C22.1867 65.6536 21.697 65.1639 21.697 64.5598C21.697 63.9558 22.1867 63.4661 22.7907 63.4661" stroke="black" stroke-width="1.5"/>
<path d="M22.7907 65.6536C23.3948 65.6536 23.8845 65.1639 23.8845 64.5598C23.8845 63.9558 23.3948 63.4661 22.7907 63.4661" stroke="black" stroke-width="1.5"/>
<path d="M44.8723 65.6536C44.2683 65.6536 43.7786 65.1639 43.7786 64.5598C43.7786 63.9558 44.2683 63.4661 44.8723 63.4661" stroke="black" stroke-width="1.5"/>
<path d="M44.8723 65.6536C45.4764 65.6536 45.9661 65.1639 45.9661 64.5598C45.9661 63.9558 45.4764 63.4661 44.8723 63.4661" stroke="black" stroke-width="1.5"/>
<path d="M52.5006 43.75H17.1506C15.2154 43.7308 13.3412 43.0704 11.8213 41.8725C10.3013 40.6744 9.22148 39.0063 8.75064 37.1292L4.43398 20.2125C4.36059 19.8905 4.35913 19.5562 4.42972 19.2336C4.5003 18.9109 4.64118 18.6078 4.84231 18.3458C5.0461 18.0834 5.30696 17.8709 5.60513 17.7243C5.90328 17.5778 6.23091 17.5011 6.56314 17.5H56.8172" stroke="black" stroke-width="1.5" stroke-linecap="round" stroke-linejoin="round"/>
<path d="M52.5009 17.5008L41.5634 6.56332C40.5312 5.54097 39.137 4.96741 37.6842 4.96741C36.2314 4.96741 34.8372 5.54097 33.805 6.56332L22.8676 17.5008" stroke="black" stroke-width="1.5" stroke-linecap="round" stroke-linejoin="round"/>
<path d="M30.6542 9.7413L17.8208 5.9788C17.1333 5.77361 16.412 5.70682 15.6986 5.78231C14.9851 5.85779 14.2937 6.07403 13.6644 6.41855C13.035 6.76303 12.4803 7.22894 12.0323 7.78929C11.5842 8.34961 11.2518 8.99326 11.0542 9.68297L8.75 17.4996" stroke="black" stroke-width="1.5" stroke-linecap="round" stroke-linejoin="round"/>
</svg>
