<svg width="242" height="432" viewBox="0 0 242 432" fill="none" xmlns="http://www.w3.org/2000/svg">
<path d="M144.067 431.25C146.227 431.25 147.99 428.93 147.99 426.087C147.99 423.244 146.227 420.924 144.067 420.924C141.906 420.924 140.143 423.244 140.143 426.087C140.143 428.93 141.906 431.25 144.067 431.25Z" fill="white"/>
<path d="M125.272 431.25C127.432 431.25 129.195 428.93 129.195 426.087C129.195 423.244 127.432 420.924 125.272 420.924C123.111 420.924 121.348 423.244 121.348 426.087C121.348 428.93 123.111 431.25 125.272 431.25Z" fill="white"/>
<path d="M106.461 431.25C108.622 431.25 110.385 428.93 110.385 426.087C110.385 423.244 108.622 420.924 106.461 420.924C104.3 420.924 102.537 423.244 102.537 426.087C102.537 428.93 104.3 431.25 106.461 431.25Z" fill="white"/>
<path d="M87.6642 431.25C89.8381 431.25 91.5879 428.93 91.5879 426.087C91.5879 423.244 89.8381 420.924 87.6642 420.924C85.4903 420.924 83.7406 423.244 83.7406 426.087C83.7406 428.93 85.5036 431.25 87.6642 431.25Z" fill="white"/>
<path d="M68.8673 431.25C71.0413 431.25 72.791 428.93 72.791 426.087C72.791 423.244 71.028 420.924 68.8674 420.924C66.7067 420.924 64.9437 423.244 64.9437 426.087C64.9437 428.93 66.7067 431.25 68.8673 431.25Z" fill="white"/>
<path d="M50.0587 420.924C47.8848 420.924 46.1351 423.244 46.1351 426.087C46.1351 428.93 47.8981 431.25 50.0587 431.25C52.2194 431.25 53.9824 428.93 53.9824 426.087C53.9824 423.244 52.2194 420.924 50.0587 420.924Z" fill="white"/>
<path d="M31.2619 431.25C33.4226 431.25 35.1855 428.93 35.1855 426.087C35.1855 423.244 33.4226 420.924 31.2619 420.924C29.1012 420.924 27.3382 423.244 27.3382 426.087C27.3382 428.93 29.1012 431.25 31.2619 431.25Z" fill="white"/>
<path d="M12.465 431.25C14.6257 431.25 16.3887 428.93 16.3887 426.087C16.3887 423.244 14.6257 420.924 12.465 420.924C10.3043 420.924 8.54134 423.244 8.54134 426.087C8.54134 428.93 10.3043 431.25 12.465 431.25Z" fill="white"/>
<path d="M162.863 396.156C160.703 396.156 158.94 398.476 158.94 401.319C158.94 403.621 160.093 405.557 161.684 406.22C163.235 403.988 164.852 401.773 166.535 399.54C165.978 397.569 164.56 396.156 162.863 396.156Z" fill="white"/>
<path d="M144.067 406.482C146.227 406.482 147.99 404.162 147.99 401.319C147.99 398.476 146.227 396.156 144.067 396.156C141.906 396.156 140.143 398.476 140.143 401.319C140.143 404.162 141.906 406.482 144.067 406.482Z" fill="white"/>
<path d="M125.272 406.482C127.432 406.482 129.195 404.162 129.195 401.319C129.195 398.476 127.432 396.156 125.272 396.156C123.111 396.156 121.348 398.476 121.348 401.319C121.348 404.162 123.111 406.482 125.272 406.482Z" fill="white"/>
<path d="M106.461 406.482C108.622 406.482 110.385 404.162 110.385 401.319C110.385 398.476 108.622 396.156 106.461 396.156C104.3 396.156 102.537 398.476 102.537 401.319C102.537 404.162 104.3 406.482 106.461 406.482Z" fill="white"/>
<path d="M87.6642 406.482C89.8381 406.482 91.5879 404.162 91.5879 401.319C91.5879 398.476 89.8381 396.156 87.6642 396.156C85.4903 396.156 83.7406 398.476 83.7406 401.319C83.7406 404.162 85.5036 406.482 87.6642 406.482Z" fill="white"/>
<path d="M68.8673 406.482C71.0413 406.482 72.791 404.162 72.791 401.319C72.791 398.476 71.028 396.156 68.8674 396.156C66.7067 396.156 64.9437 398.476 64.9437 401.319C64.9437 404.162 66.7067 406.482 68.8673 406.482Z" fill="white"/>
<path d="M50.0587 396.156C47.8848 396.156 46.1351 398.476 46.1351 401.319C46.1351 404.162 47.8981 406.482 50.0587 406.482C52.2194 406.482 53.9824 404.162 53.9824 401.319C53.9824 398.476 52.2194 396.156 50.0587 396.156Z" fill="white"/>
<path d="M31.2619 406.482C33.4226 406.482 35.1855 404.162 35.1855 401.319C35.1855 398.476 33.4226 396.156 31.2619 396.156C29.1012 396.156 27.3382 398.476 27.3382 401.319C27.3382 404.162 29.1012 406.482 31.2619 406.482Z" fill="white"/>
<path d="M12.465 406.482C14.6257 406.482 16.3887 404.162 16.3887 401.319C16.3887 398.476 14.6257 396.156 12.465 396.156C10.3043 396.156 8.54134 398.476 8.54134 401.319C8.54134 404.162 10.3043 406.482 12.465 406.482Z" fill="white"/>
<path d="M181.674 371.406C179.513 371.406 177.75 373.726 177.75 376.569C177.75 379.412 179.447 381.645 181.568 381.714C182.854 380.336 184.179 378.941 185.518 377.563C185.571 377.232 185.598 376.9 185.598 376.569C185.598 373.709 183.835 371.406 181.674 371.406Z" fill="white"/>
<path d="M162.863 381.732C165.024 381.732 166.787 379.43 166.787 376.569C166.787 373.709 165.024 371.406 162.863 371.406C160.703 371.406 158.94 373.726 158.94 376.569C158.94 379.412 160.703 381.732 162.863 381.732Z" fill="white"/>
<path d="M144.067 381.732C146.227 381.732 147.99 379.43 147.99 376.569C147.99 373.709 146.227 371.406 144.067 371.406C141.906 371.406 140.143 373.726 140.143 376.569C140.143 379.412 141.906 381.732 144.067 381.732Z" fill="white"/>
<path d="M125.272 381.732C127.432 381.732 129.195 379.43 129.195 376.569C129.195 373.709 127.432 371.406 125.272 371.406C123.111 371.406 121.348 373.726 121.348 376.569C121.348 379.412 123.111 381.732 125.272 381.732Z" fill="white"/>
<path d="M106.461 381.732C108.622 381.732 110.385 379.43 110.385 376.569C110.385 373.709 108.622 371.406 106.461 371.406C104.3 371.406 102.537 373.726 102.537 376.569C102.537 379.412 104.3 381.732 106.461 381.732Z" fill="white"/>
<path d="M87.6642 381.732C89.8381 381.732 91.5879 379.43 91.5879 376.569C91.5879 373.709 89.8381 371.406 87.6642 371.406C85.4903 371.406 83.7406 373.726 83.7406 376.569C83.7406 379.412 85.5036 381.732 87.6642 381.732Z" fill="white"/>
<path d="M68.8673 381.732C71.0413 381.732 72.791 379.43 72.791 376.569C72.791 373.709 71.028 371.406 68.8674 371.406C66.7067 371.406 64.9437 373.726 64.9437 376.569C64.9437 379.412 66.7067 381.732 68.8673 381.732Z" fill="white"/>
<path d="M50.0587 381.732C52.2194 381.732 53.9824 379.43 53.9824 376.569C53.9824 373.709 52.2194 371.406 50.0587 371.406C47.8981 371.406 46.1351 373.726 46.1351 376.569C46.1351 379.412 47.8981 381.732 50.0587 381.732Z" fill="white"/>
<path d="M31.2619 381.732C33.4226 381.732 35.1855 379.43 35.1855 376.569C35.1855 373.709 33.4226 371.406 31.2619 371.406C29.1012 371.406 27.3382 373.726 27.3382 376.569C27.3382 379.412 29.1012 381.732 31.2619 381.732Z" fill="white"/>
<path d="M12.465 381.732C14.6257 381.732 16.3887 379.412 16.3887 376.569C16.3887 373.726 14.6257 371.406 12.465 371.406C10.3043 371.406 8.54134 373.726 8.54134 376.569C8.54134 379.412 10.3043 381.732 12.465 381.732Z" fill="white"/>
<path d="M200.471 346.639C198.304 346.639 196.547 348.95 196.547 351.802C196.547 354.653 198.304 356.964 200.471 356.964C202.638 356.964 204.395 354.653 204.395 351.802C204.395 348.95 202.638 346.639 200.471 346.639Z" fill="white"/>
<path d="M181.674 346.639C179.513 346.639 177.75 348.959 177.75 351.802C177.75 354.645 179.513 356.964 181.674 356.964C183.835 356.964 185.598 354.645 185.598 351.802C185.598 348.959 183.835 346.639 181.674 346.639Z" fill="white"/>
<path d="M162.863 356.964C165.024 356.964 166.787 354.645 166.787 351.802C166.787 348.959 165.024 346.639 162.863 346.639C160.703 346.639 158.94 348.959 158.94 351.802C158.94 354.645 160.703 356.964 162.863 356.964Z" fill="white"/>
<path d="M144.067 346.639C141.9 346.639 140.143 348.95 140.143 351.802C140.143 354.653 141.9 356.964 144.067 356.964C146.234 356.964 147.99 354.653 147.99 351.802C147.99 348.95 146.234 346.639 144.067 346.639Z" fill="white"/>
<path d="M125.272 356.964C127.432 356.964 129.195 354.645 129.195 351.802C129.195 348.959 127.432 346.639 125.272 346.639C123.111 346.639 121.348 348.959 121.348 351.802C121.348 354.645 123.111 356.964 125.272 356.964Z" fill="white"/>
<path d="M106.461 356.964C108.622 356.964 110.385 354.645 110.385 351.802C110.385 348.959 108.622 346.639 106.461 346.639C104.3 346.639 102.537 348.959 102.537 351.802C102.537 354.645 104.3 356.964 106.461 356.964Z" fill="white"/>
<path d="M87.6642 356.964C89.8381 356.964 91.5879 354.645 91.5879 351.802C91.5879 348.959 89.8381 346.639 87.6642 346.639C85.4903 346.639 83.7406 348.959 83.7406 351.802C83.7406 354.645 85.5036 356.964 87.6642 356.964Z" fill="white"/>
<path d="M68.8674 346.639C66.7004 346.639 64.9437 348.95 64.9437 351.802C64.9437 354.653 66.7004 356.964 68.8673 356.964C71.0343 356.964 72.791 354.653 72.791 351.802C72.791 348.95 71.0343 346.639 68.8674 346.639Z" fill="white"/>
<path d="M50.0587 356.964C52.2194 356.964 53.9824 354.645 53.9824 351.802C53.9824 348.959 52.2194 346.639 50.0587 346.639C47.8981 346.639 46.1351 348.959 46.1351 351.802C46.1351 354.645 47.8981 356.964 50.0587 356.964Z" fill="white"/>
<path d="M31.2619 356.964C33.4226 356.964 35.1855 354.645 35.1855 351.802C35.1855 348.959 33.4226 346.639 31.2619 346.639C29.1012 346.639 27.3382 348.959 27.3382 351.802C27.3382 354.645 29.1012 356.964 31.2619 356.964Z" fill="white"/>
<path d="M12.465 356.964C14.6257 356.964 16.3887 354.645 16.3887 351.802C16.3887 348.959 14.6257 346.639 12.465 346.639C10.3043 346.639 8.54134 348.959 8.54134 351.802C8.54134 354.645 10.3043 356.964 12.465 356.964Z" fill="white"/>
<path d="M219.266 332.214C221.426 332.214 223.189 329.895 223.189 327.052C223.189 324.209 221.426 321.889 219.266 321.889C217.105 321.889 215.342 324.209 215.342 327.052C215.342 329.895 217.105 332.214 219.266 332.214Z" fill="white"/>
<path d="M200.471 332.214C202.632 332.214 204.395 329.895 204.395 327.052C204.395 324.209 202.632 321.889 200.471 321.889C198.31 321.889 196.547 324.209 196.547 327.052C196.547 329.895 198.31 332.214 200.471 332.214Z" fill="white"/>
<path d="M181.674 332.214C183.835 332.214 185.598 329.895 185.598 327.052C185.598 324.209 183.835 321.889 181.674 321.889C179.513 321.889 177.75 324.209 177.75 327.052C177.75 329.895 179.513 332.214 181.674 332.214Z" fill="white"/>
<path d="M162.863 332.214C165.024 332.214 166.787 329.895 166.787 327.052C166.787 324.209 165.024 321.889 162.863 321.889C160.703 321.889 158.94 324.209 158.94 327.052C158.94 329.895 160.703 332.214 162.863 332.214Z" fill="white"/>
<path d="M144.067 332.214C146.227 332.214 147.99 329.895 147.99 327.052C147.99 324.209 146.227 321.889 144.067 321.889C141.906 321.889 140.143 324.209 140.143 327.052C140.143 329.895 141.906 332.214 144.067 332.214Z" fill="white"/>
<path d="M125.272 332.214C127.432 332.214 129.195 329.895 129.195 327.052C129.195 324.209 127.432 321.889 125.272 321.889C123.111 321.889 121.348 324.209 121.348 327.052C121.348 329.895 123.111 332.214 125.272 332.214Z" fill="white"/>
<path d="M106.461 332.214C108.622 332.214 110.385 329.895 110.385 327.052C110.385 324.209 108.622 321.889 106.461 321.889C104.3 321.889 102.537 324.209 102.537 327.052C102.537 329.895 104.3 332.214 106.461 332.214Z" fill="white"/>
<path d="M87.6642 332.214C89.8381 332.214 91.5879 329.895 91.5879 327.052C91.5879 324.209 89.8381 321.889 87.6642 321.889C85.4903 321.889 83.7406 324.209 83.7406 327.052C83.7406 329.895 85.5036 332.214 87.6642 332.214Z" fill="white"/>
<path d="M68.8673 332.214C71.0413 332.214 72.791 329.895 72.791 327.052C72.791 324.209 71.028 321.889 68.8674 321.889C66.7067 321.889 64.9437 324.209 64.9437 327.052C64.9437 329.895 66.7067 332.214 68.8673 332.214Z" fill="white"/>
<path d="M50.0587 321.889C47.8848 321.889 46.1351 324.209 46.1351 327.052C46.1351 329.895 47.8981 332.214 50.0587 332.214C52.2194 332.214 53.9824 329.895 53.9824 327.052C53.9824 324.209 52.2194 321.889 50.0587 321.889Z" fill="white"/>
<path d="M31.2619 332.214C33.4226 332.214 35.1855 329.895 35.1855 327.052C35.1855 324.209 33.4226 321.889 31.2619 321.889C29.1012 321.889 27.3382 324.209 27.3382 327.052C27.3382 329.895 29.1012 332.214 31.2619 332.214Z" fill="white"/>
<path d="M12.465 332.214C14.6257 332.214 16.3887 329.895 16.3887 327.052C16.3887 324.209 14.6257 321.889 12.465 321.889C10.3043 321.889 8.54134 324.209 8.54134 327.052C8.54134 329.895 10.3043 332.214 12.465 332.214Z" fill="white"/>
<path d="M234.152 302.283C234.152 304.115 234.881 305.702 235.968 306.626C237.029 303.574 238.023 300.452 238.938 297.26C238.659 297.173 238.368 297.121 238.076 297.121C235.915 297.121 234.152 299.44 234.152 302.283Z" fill="white"/>
<path d="M219.266 307.447C221.426 307.447 223.189 305.144 223.189 302.284C223.189 299.424 221.426 297.121 219.266 297.121C217.105 297.121 215.342 299.441 215.342 302.284C215.342 305.127 217.105 307.447 219.266 307.447Z" fill="white"/>
<path d="M200.471 307.447C202.632 307.447 204.395 305.144 204.395 302.284C204.395 299.424 202.632 297.121 200.471 297.121C198.31 297.121 196.547 299.441 196.547 302.284C196.547 305.127 198.31 307.447 200.471 307.447Z" fill="white"/>
<path d="M181.674 297.121C179.513 297.121 177.75 299.441 177.75 302.284C177.75 305.127 179.513 307.447 181.674 307.447C183.835 307.447 185.598 305.144 185.598 302.284C185.598 299.424 183.835 297.121 181.674 297.121Z" fill="white"/>
<path d="M162.863 307.447C165.024 307.447 166.787 305.144 166.787 302.284C166.787 299.424 165.024 297.121 162.863 297.121C160.703 297.121 158.94 299.441 158.94 302.284C158.94 305.127 160.703 307.447 162.863 307.447Z" fill="white"/>
<path d="M144.067 307.447C146.227 307.447 147.99 305.144 147.99 302.284C147.99 299.424 146.227 297.121 144.067 297.121C141.906 297.121 140.143 299.441 140.143 302.284C140.143 305.127 141.906 307.447 144.067 307.447Z" fill="white"/>
<path d="M125.272 307.447C127.432 307.447 129.195 305.144 129.195 302.284C129.195 299.424 127.432 297.121 125.272 297.121C123.111 297.121 121.348 299.441 121.348 302.284C121.348 305.127 123.111 307.447 125.272 307.447Z" fill="white"/>
<path d="M106.461 307.447C108.622 307.447 110.385 305.144 110.385 302.284C110.385 299.424 108.622 297.121 106.461 297.121C104.3 297.121 102.537 299.441 102.537 302.284C102.537 305.127 104.3 307.447 106.461 307.447Z" fill="white"/>
<path d="M87.6642 307.447C89.8381 307.447 91.5879 305.144 91.5879 302.284C91.5879 299.424 89.8381 297.121 87.6642 297.121C85.4903 297.121 83.7406 299.441 83.7406 302.284C83.7406 305.127 85.5036 307.447 87.6642 307.447Z" fill="white"/>
<path d="M68.8673 307.447C71.0413 307.447 72.791 305.144 72.791 302.284C72.791 299.424 71.028 297.121 68.8674 297.121C66.7067 297.121 64.9437 299.441 64.9437 302.284C64.9437 305.127 66.7067 307.447 68.8673 307.447Z" fill="white"/>
<path d="M50.0587 307.447C52.2194 307.447 53.9824 305.144 53.9824 302.284C53.9824 299.424 52.2194 297.121 50.0587 297.121C47.8981 297.121 46.1351 299.441 46.1351 302.284C46.1351 305.127 47.8981 307.447 50.0587 307.447Z" fill="white"/>
<path d="M31.2619 307.447C33.4226 307.447 35.1855 305.144 35.1855 302.284C35.1855 299.424 33.4226 297.121 31.2619 297.121C29.1012 297.121 27.3382 299.441 27.3382 302.284C27.3382 305.127 29.1012 307.447 31.2619 307.447Z" fill="white"/>
<path d="M12.465 307.447C14.6257 307.447 16.3887 305.144 16.3887 302.284C16.3887 299.424 14.6257 297.121 12.465 297.121C10.3043 297.121 8.54134 299.441 8.54134 302.284C8.54134 305.127 10.3043 307.447 12.465 307.447Z" fill="white"/>
<path d="M238.076 282.679C240.237 282.679 242 280.359 242 277.516C242 274.673 240.237 272.354 238.076 272.354C235.916 272.354 234.153 274.673 234.153 277.516C234.153 280.359 235.916 282.679 238.076 282.679Z" fill="white"/>
<path d="M219.266 282.679C221.426 282.679 223.189 280.359 223.189 277.516C223.189 274.673 221.426 272.354 219.266 272.354C217.105 272.354 215.342 274.673 215.342 277.516C215.342 280.359 217.105 282.679 219.266 282.679Z" fill="white"/>
<path d="M200.471 282.679C202.632 282.679 204.395 280.359 204.395 277.516C204.395 274.673 202.632 272.354 200.471 272.354C198.31 272.354 196.547 274.673 196.547 277.516C196.547 280.359 198.31 282.679 200.471 282.679Z" fill="white"/>
<path d="M181.674 282.679C183.835 282.679 185.598 280.359 185.598 277.516C185.598 274.673 183.835 272.354 181.674 272.354C179.513 272.354 177.75 274.673 177.75 277.516C177.75 280.359 179.513 282.679 181.674 282.679Z" fill="white"/>
<path d="M162.863 282.679C165.024 282.679 166.787 280.359 166.787 277.516C166.787 274.673 165.024 272.354 162.863 272.354C160.703 272.354 158.94 274.673 158.94 277.516C158.94 280.359 160.703 282.679 162.863 282.679Z" fill="white"/>
<path d="M144.067 282.679C146.227 282.679 147.99 280.359 147.99 277.516C147.99 274.673 146.227 272.354 144.067 272.354C141.906 272.354 140.143 274.673 140.143 277.516C140.143 280.359 141.906 282.679 144.067 282.679Z" fill="white"/>
<path d="M125.272 282.679C127.432 282.679 129.195 280.359 129.195 277.516C129.195 274.673 127.432 272.354 125.272 272.354C123.111 272.354 121.348 274.673 121.348 277.516C121.348 280.359 123.111 282.679 125.272 282.679Z" fill="white"/>
<path d="M106.461 282.679C108.622 282.679 110.385 280.359 110.385 277.516C110.385 274.673 108.622 272.354 106.461 272.354C104.3 272.354 102.537 274.673 102.537 277.516C102.537 280.359 104.3 282.679 106.461 282.679Z" fill="white"/>
<path d="M87.6642 282.679C89.8381 282.679 91.5879 280.359 91.5879 277.516C91.5879 274.673 89.8381 272.354 87.6642 272.354C85.4903 272.354 83.7406 274.673 83.7406 277.516C83.7406 280.359 85.5036 282.679 87.6642 282.679Z" fill="white"/>
<path d="M68.8673 282.679C71.0413 282.679 72.791 280.359 72.791 277.516C72.791 274.673 71.028 272.354 68.8674 272.354C66.7067 272.354 64.9437 274.673 64.9437 277.516C64.9437 280.359 66.7067 282.679 68.8673 282.679Z" fill="white"/>
<path d="M50.0587 282.679C52.2327 282.679 53.9824 280.359 53.9824 277.516C53.9824 274.673 52.2194 272.354 50.0587 272.354C47.8981 272.354 46.1351 274.673 46.1351 277.516C46.1351 280.359 47.8981 282.679 50.0587 282.679Z" fill="white"/>
<path d="M31.2619 282.679C33.4226 282.679 35.1855 280.359 35.1855 277.516C35.1855 274.673 33.4226 272.354 31.2619 272.354C29.1012 272.354 27.3382 274.673 27.3382 277.516C27.3382 280.359 29.1012 282.679 31.2619 282.679Z" fill="white"/>
<path d="M12.465 282.679C14.6257 282.679 16.3887 280.359 16.3887 277.516C16.3887 274.673 14.6257 272.354 12.465 272.354C10.3043 272.354 8.54134 274.673 8.54134 277.516C8.54134 280.359 10.3043 282.679 12.465 282.679Z" fill="white"/>
<path d="M238.076 257.929C240.237 257.929 242 255.609 242 252.766C242 249.923 240.237 247.604 238.076 247.604C235.916 247.604 234.153 249.923 234.153 252.766C234.153 255.609 235.916 257.929 238.076 257.929Z" fill="white"/>
<path d="M219.266 257.929C221.426 257.929 223.189 255.609 223.189 252.766C223.189 249.923 221.426 247.604 219.266 247.604C217.105 247.604 215.342 249.923 215.342 252.766C215.342 255.609 217.105 257.929 219.266 257.929Z" fill="white"/>
<path d="M200.471 247.604C198.304 247.604 196.547 249.915 196.547 252.766C196.547 255.618 198.304 257.929 200.471 257.929C202.638 257.929 204.395 255.618 204.395 252.766C204.395 249.915 202.638 247.604 200.471 247.604Z" fill="white"/>
<path d="M181.674 257.929C183.835 257.929 185.598 255.609 185.598 252.766C185.598 249.923 183.835 247.604 181.674 247.604C179.513 247.604 177.75 249.923 177.75 252.766C177.75 255.609 179.513 257.929 181.674 257.929Z" fill="white"/>
<path d="M162.863 257.929C165.024 257.929 166.787 255.609 166.787 252.766C166.787 249.923 165.024 247.604 162.863 247.604C160.703 247.604 158.94 249.923 158.94 252.766C158.94 255.609 160.703 257.929 162.863 257.929Z" fill="white"/>
<path d="M144.067 247.604C141.9 247.604 140.143 249.915 140.143 252.766C140.143 255.618 141.9 257.929 144.067 257.929C146.234 257.929 147.99 255.618 147.99 252.766C147.99 249.915 146.234 247.604 144.067 247.604Z" fill="white"/>
<path d="M125.272 257.929C127.432 257.929 129.195 255.609 129.195 252.766C129.195 249.923 127.432 247.604 125.272 247.604C123.111 247.604 121.348 249.923 121.348 252.766C121.348 255.609 123.111 257.929 125.272 257.929Z" fill="white"/>
<path d="M106.461 257.929C108.622 257.929 110.385 255.609 110.385 252.766C110.385 249.923 108.622 247.604 106.461 247.604C104.3 247.604 102.537 249.923 102.537 252.766C102.537 255.609 104.3 257.929 106.461 257.929Z" fill="white"/>
<path d="M87.6642 257.929C89.8381 257.929 91.5879 255.609 91.5879 252.766C91.5879 249.923 89.8381 247.604 87.6642 247.604C85.4903 247.604 83.7406 249.923 83.7406 252.766C83.7406 255.609 85.5036 257.929 87.6642 257.929Z" fill="white"/>
<path d="M68.8674 247.604C66.7004 247.604 64.9437 249.915 64.9437 252.766C64.9437 255.618 66.7004 257.929 68.8673 257.929C71.0343 257.929 72.791 255.618 72.791 252.766C72.791 249.915 71.0343 247.604 68.8674 247.604Z" fill="white"/>
<path d="M50.0587 247.604C47.8918 247.604 46.1351 249.915 46.1351 252.766C46.1351 255.618 47.8918 257.929 50.0587 257.929C52.2257 257.929 53.9824 255.618 53.9824 252.766C53.9824 249.915 52.2257 247.604 50.0587 247.604Z" fill="white"/>
<path d="M31.2619 257.929C33.4226 257.929 35.1855 255.609 35.1855 252.766C35.1855 249.923 33.4226 247.604 31.2619 247.604C29.1012 247.604 27.3382 249.923 27.3382 252.766C27.3382 255.609 29.1012 257.929 31.2619 257.929Z" fill="white"/>
<path d="M12.465 257.929C14.6257 257.929 16.3887 255.609 16.3887 252.766C16.3887 249.923 14.6257 247.604 12.465 247.604C10.3043 247.604 8.54134 249.923 8.54134 252.766C8.54134 255.609 10.3043 257.929 12.465 257.929Z" fill="white"/>
<path d="M238.076 233.162C240.237 233.162 242 230.842 242 227.999C242 225.156 240.237 222.836 238.076 222.836C235.916 222.836 234.153 225.156 234.153 227.999C234.153 230.842 235.916 233.162 238.076 233.162Z" fill="white"/>
<path d="M219.266 233.162C221.426 233.162 223.189 230.842 223.189 227.999C223.189 225.156 221.426 222.836 219.266 222.836C217.105 222.836 215.342 225.156 215.342 227.999C215.342 230.842 217.105 233.162 219.266 233.162Z" fill="white"/>
<path d="M200.471 233.162C202.632 233.162 204.395 230.842 204.395 227.999C204.395 225.156 202.632 222.836 200.471 222.836C198.31 222.836 196.547 225.156 196.547 227.999C196.547 230.842 198.31 233.162 200.471 233.162Z" fill="white"/>
<path d="M181.674 233.162C183.835 233.162 185.598 230.842 185.598 227.999C185.598 225.156 183.835 222.836 181.674 222.836C179.513 222.836 177.75 225.156 177.75 227.999C177.75 230.842 179.513 233.162 181.674 233.162Z" fill="white"/>
<path d="M162.863 233.162C165.024 233.162 166.787 230.842 166.787 227.999C166.787 225.156 165.024 222.836 162.863 222.836C160.703 222.836 158.94 225.156 158.94 227.999C158.94 230.842 160.703 233.162 162.863 233.162Z" fill="white"/>
<path d="M144.067 233.162C146.227 233.162 147.99 230.842 147.99 227.999C147.99 225.156 146.227 222.836 144.067 222.836C141.906 222.836 140.143 225.156 140.143 227.999C140.143 230.842 141.906 233.162 144.067 233.162Z" fill="white"/>
<path d="M125.272 233.162C127.432 233.162 129.195 230.842 129.195 227.999C129.195 225.156 127.432 222.836 125.272 222.836C123.111 222.836 121.348 225.156 121.348 227.999C121.348 230.842 123.111 233.162 125.272 233.162Z" fill="white"/>
<path d="M106.461 233.162C108.622 233.162 110.385 230.842 110.385 227.999C110.385 225.156 108.622 222.836 106.461 222.836C104.3 222.836 102.537 225.156 102.537 227.999C102.537 230.842 104.3 233.162 106.461 233.162Z" fill="white"/>
<path d="M87.6642 233.162C89.8381 233.162 91.5879 230.842 91.5879 227.999C91.5879 225.156 89.8381 222.836 87.6642 222.836C85.4903 222.836 83.7406 225.156 83.7406 227.999C83.7406 230.842 85.5036 233.162 87.6642 233.162Z" fill="white"/>
<path d="M68.8673 233.162C71.0413 233.162 72.791 230.842 72.791 227.999C72.791 225.156 71.028 222.836 68.8674 222.836C66.7067 222.836 64.9437 225.156 64.9437 227.999C64.9437 230.842 66.7067 233.162 68.8673 233.162Z" fill="white"/>
<path d="M50.0587 233.162C52.2327 233.162 53.9824 230.842 53.9824 227.999C53.9824 225.156 52.2194 222.836 50.0587 222.836C47.8981 222.836 46.1351 225.156 46.1351 227.999C46.1351 230.842 47.8981 233.162 50.0587 233.162Z" fill="white"/>
<path d="M31.2619 233.162C33.4226 233.162 35.1855 230.842 35.1855 227.999C35.1855 225.156 33.4226 222.836 31.2619 222.836C29.1012 222.836 27.3382 225.156 27.3382 227.999C27.3382 230.842 29.1012 233.162 31.2619 233.162Z" fill="white"/>
<path d="M12.465 233.162C14.6257 233.162 16.3887 230.842 16.3887 227.999C16.3887 225.156 14.6257 222.836 12.465 222.836C10.3043 222.836 8.54134 225.156 8.54134 227.999C8.54134 230.842 10.3043 233.162 12.465 233.162Z" fill="white"/>
<path d="M234.153 203.249C234.153 206.092 235.916 208.412 238.077 208.412C239.482 208.412 240.702 207.435 241.404 205.97C240.834 203.441 240.211 200.947 239.535 198.47C239.085 198.226 238.594 198.086 238.077 198.086C235.916 198.086 234.153 200.406 234.153 203.249Z" fill="white"/>
<path d="M219.266 208.412C221.426 208.412 223.189 206.092 223.189 203.249C223.189 200.406 221.426 198.086 219.266 198.086C217.105 198.086 215.342 200.406 215.342 203.249C215.342 206.092 217.105 208.412 219.266 208.412Z" fill="white"/>
<path d="M200.471 208.412C202.632 208.412 204.395 206.092 204.395 203.249C204.395 200.406 202.632 198.086 200.471 198.086C198.31 198.086 196.547 200.406 196.547 203.249C196.547 206.092 198.31 208.412 200.471 208.412Z" fill="white"/>
<path d="M181.674 208.412C183.835 208.412 185.598 206.092 185.598 203.249C185.598 200.406 183.835 198.086 181.674 198.086C179.513 198.086 177.75 200.406 177.75 203.249C177.75 206.092 179.513 208.412 181.674 208.412Z" fill="white"/>
<path d="M162.863 208.412C165.024 208.412 166.787 206.092 166.787 203.249C166.787 200.406 165.024 198.086 162.863 198.086C160.703 198.086 158.94 200.406 158.94 203.249C158.94 206.092 160.703 208.412 162.863 208.412Z" fill="white"/>
<path d="M144.067 208.412C146.227 208.412 147.99 206.092 147.99 203.249C147.99 200.406 146.227 198.086 144.067 198.086C141.906 198.086 140.143 200.406 140.143 203.249C140.143 206.092 141.906 208.412 144.067 208.412Z" fill="white"/>
<path d="M125.272 208.412C127.432 208.412 129.195 206.092 129.195 203.249C129.195 200.406 127.432 198.086 125.272 198.086C123.111 198.086 121.348 200.406 121.348 203.249C121.348 206.092 123.111 208.412 125.272 208.412Z" fill="white"/>
<path d="M106.461 208.412C108.622 208.412 110.385 206.092 110.385 203.249C110.385 200.406 108.622 198.086 106.461 198.086C104.3 198.086 102.537 200.406 102.537 203.249C102.537 206.092 104.3 208.412 106.461 208.412Z" fill="white"/>
<path d="M87.6642 208.412C89.8381 208.412 91.5879 206.092 91.5879 203.249C91.5879 200.406 89.8381 198.086 87.6642 198.086C85.4903 198.086 83.7406 200.406 83.7406 203.249C83.7406 206.092 85.5036 208.412 87.6642 208.412Z" fill="white"/>
<path d="M68.8673 208.412C71.0413 208.412 72.791 206.092 72.791 203.249C72.791 200.406 71.028 198.086 68.8674 198.086C66.7067 198.086 64.9437 200.406 64.9437 203.249C64.9437 206.092 66.7067 208.412 68.8673 208.412Z" fill="white"/>
<path d="M50.0587 208.412C52.2327 208.412 53.9824 206.092 53.9824 203.249C53.9824 200.406 52.2194 198.086 50.0587 198.086C47.8981 198.086 46.1351 200.406 46.1351 203.249C46.1351 206.092 47.8981 208.412 50.0587 208.412Z" fill="white"/>
<path d="M31.2619 208.412C33.4226 208.412 35.1855 206.092 35.1855 203.249C35.1855 200.406 33.4226 198.086 31.2619 198.086C29.1012 198.086 27.3382 200.406 27.3382 203.249C27.3382 206.092 29.1012 208.412 31.2619 208.412Z" fill="white"/>
<path d="M12.465 208.412C14.6257 208.412 16.3887 206.092 16.3887 203.249C16.3887 200.406 14.6257 198.086 12.465 198.086C10.3043 198.086 8.54134 200.406 8.54134 203.249C8.54134 206.092 10.3043 208.412 12.465 208.412Z" fill="white"/>
<path d="M219.266 183.644C221.426 183.644 223.189 181.324 223.189 178.481C223.189 175.638 221.426 173.318 219.266 173.318C217.105 173.318 215.342 175.638 215.342 178.481C215.342 181.324 217.105 183.644 219.266 183.644Z" fill="white"/>
<path d="M200.471 183.644C202.632 183.644 204.395 181.324 204.395 178.481C204.395 175.638 202.632 173.318 200.471 173.318C198.31 173.318 196.547 175.638 196.547 178.481C196.547 181.324 198.31 183.644 200.471 183.644Z" fill="white"/>
<path d="M181.674 183.644C183.835 183.644 185.598 181.324 185.598 178.481C185.598 175.638 183.835 173.318 181.674 173.318C179.513 173.318 177.75 175.638 177.75 178.481C177.75 181.324 179.513 183.644 181.674 183.644Z" fill="white"/>
<path d="M162.863 183.644C165.024 183.644 166.787 181.324 166.787 178.481C166.787 175.638 165.024 173.318 162.863 173.318C160.703 173.318 158.94 175.638 158.94 178.481C158.94 181.324 160.703 183.644 162.863 183.644Z" fill="white"/>
<path d="M144.067 183.644C146.227 183.644 147.99 181.324 147.99 178.481C147.99 175.638 146.227 173.318 144.067 173.318C141.906 173.318 140.143 175.638 140.143 178.481C140.143 181.324 141.906 183.644 144.067 183.644Z" fill="white"/>
<path d="M125.272 183.644C127.432 183.644 129.195 181.324 129.195 178.481C129.195 175.638 127.432 173.318 125.272 173.318C123.111 173.318 121.348 175.638 121.348 178.481C121.348 181.324 123.111 183.644 125.272 183.644Z" fill="white"/>
<path d="M106.461 183.644C108.622 183.644 110.385 181.324 110.385 178.481C110.385 175.638 108.622 173.318 106.461 173.318C104.3 173.318 102.537 175.638 102.537 178.481C102.537 181.324 104.3 183.644 106.461 183.644Z" fill="white"/>
<path d="M87.6642 183.644C89.8381 183.644 91.5879 181.324 91.5879 178.481C91.5879 175.638 89.8381 173.318 87.6642 173.318C85.4903 173.318 83.7406 175.638 83.7406 178.481C83.7406 181.324 85.5036 183.644 87.6642 183.644Z" fill="white"/>
<path d="M68.8673 183.644C71.0413 183.644 72.791 181.324 72.791 178.481C72.791 175.638 71.028 173.318 68.8674 173.318C66.7067 173.318 64.9437 175.638 64.9437 178.481C64.9437 181.324 66.7067 183.644 68.8673 183.644Z" fill="white"/>
<path d="M50.0587 183.644C52.2327 183.644 53.9824 181.324 53.9824 178.481C53.9824 175.638 52.2194 173.318 50.0587 173.318C47.8981 173.318 46.1351 175.638 46.1351 178.481C46.1351 181.324 47.8981 183.644 50.0587 183.644Z" fill="white"/>
<path d="M31.2619 183.644C33.4226 183.644 35.1855 181.324 35.1855 178.481C35.1855 175.638 33.4226 173.318 31.2619 173.318C29.1012 173.318 27.3382 175.638 27.3382 178.481C27.3382 181.324 29.1012 183.644 31.2619 183.644Z" fill="white"/>
<path d="M12.465 183.644C14.6257 183.644 16.3887 181.324 16.3887 178.481C16.3887 175.638 14.6257 173.318 12.465 173.318C10.3043 173.318 8.54134 175.638 8.54134 178.481C8.54134 181.324 10.3043 183.644 12.465 183.644Z" fill="white"/>
<path d="M215.343 153.731C215.343 156.592 217.106 158.894 219.267 158.894C220.354 158.894 221.335 158.301 222.051 157.359C220.42 154.691 218.724 152.092 216.961 149.563C215.993 150.504 215.343 152.005 215.343 153.714L215.343 153.731Z" fill="white"/>
<path d="M200.471 158.894C202.632 158.894 204.395 156.592 204.395 153.731C204.395 150.871 202.632 148.568 200.471 148.568C198.31 148.568 196.547 150.888 196.547 153.731C196.547 156.574 198.31 158.894 200.471 158.894Z" fill="white"/>
<path d="M181.674 158.894C183.835 158.894 185.598 156.592 185.598 153.731C185.598 150.871 183.835 148.568 181.674 148.568C179.513 148.568 177.75 150.888 177.75 153.731C177.75 156.574 179.513 158.894 181.674 158.894Z" fill="white"/>
<path d="M162.863 158.894C165.024 158.894 166.787 156.592 166.787 153.731C166.787 150.871 165.024 148.568 162.863 148.568C160.703 148.568 158.94 150.888 158.94 153.731C158.94 156.574 160.703 158.894 162.863 158.894Z" fill="white"/>
<path d="M144.067 158.894C146.227 158.894 147.99 156.592 147.99 153.731C147.99 150.871 146.227 148.568 144.067 148.568C141.906 148.568 140.143 150.888 140.143 153.731C140.143 156.574 141.906 158.894 144.067 158.894Z" fill="white"/>
<path d="M125.272 158.894C127.432 158.894 129.195 156.592 129.195 153.731C129.195 150.871 127.432 148.568 125.272 148.568C123.111 148.568 121.348 150.888 121.348 153.731C121.348 156.574 123.111 158.894 125.272 158.894Z" fill="white"/>
<path d="M106.461 158.894C108.622 158.894 110.385 156.592 110.385 153.731C110.385 150.871 108.622 148.568 106.461 148.568C104.3 148.568 102.537 150.888 102.537 153.731C102.537 156.574 104.3 158.894 106.461 158.894Z" fill="white"/>
<path d="M87.6642 158.894C89.8381 158.894 91.5879 156.592 91.5879 153.731C91.5879 150.871 89.8381 148.568 87.6642 148.568C85.4903 148.568 83.7406 150.888 83.7406 153.731C83.7406 156.574 85.5036 158.894 87.6642 158.894Z" fill="white"/>
<path d="M68.8673 158.894C71.0413 158.894 72.791 156.592 72.791 153.731C72.791 150.871 71.028 148.568 68.8674 148.568C66.7067 148.568 64.9437 150.888 64.9437 153.731C64.9437 156.574 66.7067 158.894 68.8673 158.894Z" fill="white"/>
<path d="M50.0587 158.894C52.2327 158.894 53.9824 156.592 53.9824 153.731C53.9824 150.871 52.2194 148.568 50.0587 148.568C47.8981 148.568 46.1351 150.888 46.1351 153.731C46.1351 156.574 47.8981 158.894 50.0587 158.894Z" fill="white"/>
<path d="M31.2619 158.894C33.4226 158.894 35.1855 156.592 35.1855 153.731C35.1855 150.871 33.4226 148.568 31.2619 148.568C29.1012 148.568 27.3382 150.888 27.3382 153.731C27.3382 156.574 29.1012 158.894 31.2619 158.894Z" fill="white"/>
<path d="M12.465 158.894C14.6257 158.894 16.3887 156.592 16.3887 153.731C16.3887 150.871 14.6257 148.568 12.465 148.568C10.3043 148.568 8.54134 150.888 8.54134 153.731C8.54134 156.574 10.3043 158.894 12.465 158.894Z" fill="white"/>
<path d="M200.469 134.127C201.424 134.127 202.299 133.656 202.975 132.906C200.973 130.917 198.918 128.999 196.797 127.185C196.638 127.743 196.546 128.336 196.546 128.981C196.546 131.842 198.309 134.144 200.469 134.144L200.469 134.127Z" fill="white"/>
<path d="M181.674 134.126C183.835 134.126 185.598 131.807 185.598 128.964C185.598 126.121 183.835 123.801 181.674 123.801C179.513 123.801 177.75 126.121 177.75 128.964C177.75 131.807 179.513 134.126 181.674 134.126Z" fill="white"/>
<path d="M162.863 134.126C165.024 134.126 166.787 131.807 166.787 128.964C166.787 126.121 165.024 123.801 162.863 123.801C160.703 123.801 158.94 126.121 158.94 128.964C158.94 131.807 160.703 134.126 162.863 134.126Z" fill="white"/>
<path d="M144.067 123.801C141.9 123.801 140.143 126.112 140.143 128.964C140.143 131.815 141.9 134.126 144.067 134.126C146.234 134.126 147.99 131.815 147.99 128.964C147.99 126.112 146.234 123.801 144.067 123.801Z" fill="white"/>
<path d="M125.272 134.126C127.432 134.126 129.195 131.807 129.195 128.964C129.195 126.121 127.432 123.801 125.272 123.801C123.111 123.801 121.348 126.121 121.348 128.964C121.348 131.807 123.111 134.126 125.272 134.126Z" fill="white"/>
<path d="M106.461 134.126C108.622 134.126 110.385 131.807 110.385 128.964C110.385 126.121 108.622 123.801 106.461 123.801C104.3 123.801 102.537 126.121 102.537 128.964C102.537 131.807 104.3 134.126 106.461 134.126Z" fill="white"/>
<path d="M87.6642 134.126C89.8381 134.126 91.5879 131.807 91.5879 128.964C91.5879 126.121 89.8381 123.801 87.6642 123.801C85.4903 123.801 83.7406 126.121 83.7406 128.964C83.7406 131.807 85.5036 134.126 87.6642 134.126Z" fill="white"/>
<path d="M68.8674 123.801C66.7004 123.801 64.9437 126.112 64.9437 128.964C64.9437 131.815 66.7004 134.126 68.8673 134.126C71.0343 134.126 72.791 131.815 72.791 128.964C72.791 126.112 71.0343 123.801 68.8674 123.801Z" fill="white"/>
<path d="M50.0587 123.801C47.8918 123.801 46.1351 126.112 46.1351 128.964C46.1351 131.815 47.8918 134.126 50.0587 134.126C52.2257 134.126 53.9824 131.815 53.9824 128.964C53.9824 126.112 52.2257 123.801 50.0587 123.801Z" fill="white"/>
<path d="M31.2619 134.126C33.4226 134.126 35.1855 131.807 35.1855 128.964C35.1855 126.121 33.4226 123.801 31.2619 123.801C29.1012 123.801 27.3382 126.121 27.3382 128.964C27.3382 131.807 29.1012 134.126 31.2619 134.126Z" fill="white"/>
<path d="M12.465 134.126C14.6257 134.126 16.3887 131.807 16.3887 128.964C16.3887 126.121 14.6257 123.801 12.465 123.801C10.3043 123.801 8.54134 126.121 8.54134 128.964C8.54134 131.807 10.3043 134.126 12.465 134.126Z" fill="white"/>
<path d="M162.864 109.361C163.633 109.361 164.336 109.064 164.945 108.558C163.143 107.931 161.34 107.39 159.537 106.884C160.226 108.367 161.459 109.343 162.864 109.343L162.864 109.361Z" fill="white"/>
<path d="M144.068 109.359C146.136 109.359 147.819 107.231 147.965 104.563C145.353 104.231 142.755 104.022 140.171 103.935C140.171 104.022 140.144 104.109 140.144 104.214C140.144 107.057 141.907 109.376 144.068 109.376L144.068 109.359Z" fill="white"/>
<path d="M125.271 109.359C127.419 109.359 129.142 107.092 129.182 104.301C126.597 104.563 124.025 104.946 121.467 105.452C121.891 107.702 123.429 109.376 125.258 109.376L125.271 109.359Z" fill="white"/>
<path d="M46.1351 104.198C46.1351 107.041 47.8981 109.361 50.0587 109.361C52.2194 109.361 53.9824 107.041 53.9824 104.198C53.9824 103.622 53.8896 103.064 53.7571 102.541C52.4978 101.46 51.212 100.291 49.8864 99.0527C47.8053 99.1748 46.1351 101.425 46.1351 104.198Z" fill="white"/>
<path d="M31.2619 109.361C33.4226 109.361 35.1855 107.041 35.1855 104.198C35.1855 101.355 33.4226 99.0352 31.2619 99.0352C29.1012 99.0352 27.3382 101.355 27.3382 104.198C27.3382 107.041 29.1012 109.361 31.2619 109.361Z" fill="white"/>
<path d="M12.465 109.361C14.6257 109.361 16.3887 107.041 16.3887 104.198C16.3887 101.355 14.6257 99.0352 12.465 99.0352C10.3043 99.0352 8.54134 101.355 8.54134 104.198C8.54134 107.041 10.3043 109.361 12.465 109.361Z" fill="white"/>
<path d="M31.262 84.6108C32.3224 84.6108 33.2901 84.0527 34.0059 83.1457C31.938 81.1399 29.8171 79.2387 27.6564 77.4422C27.4576 78.0527 27.3515 78.7329 27.3515 79.448C27.3515 82.3085 29.1145 84.6108 31.2752 84.6108L31.262 84.6108Z" fill="white"/>
<path d="M12.465 84.6108C14.6257 84.6108 16.3887 82.291 16.3887 79.448C16.3887 76.605 14.6257 74.2852 12.465 74.2852C10.3043 74.2852 8.54134 76.605 8.54134 79.448C8.54134 82.291 10.3043 84.6108 12.465 84.6108Z" fill="white"/>
</svg>
