<svg width="438" height="432" viewBox="0 0 438 432" fill="none" xmlns="http://www.w3.org/2000/svg">
<path d="M97.9334 0C95.7728 0 94.0098 2.31975 94.0098 5.16278C94.0098 8.0058 95.7728 10.3256 97.9334 10.3256C100.094 10.3256 101.857 8.0058 101.857 5.16278C101.857 2.31975 100.094 0 97.9334 0Z" fill="white"/>
<path d="M116.728 0C114.568 0 112.805 2.31975 112.805 5.16278C112.805 8.0058 114.568 10.3256 116.728 10.3256C118.889 10.3256 120.652 8.0058 120.652 5.16278C120.652 2.31975 118.889 0 116.728 0Z" fill="white"/>
<path d="M135.539 0C133.378 0 131.615 2.31975 131.615 5.16278C131.615 8.0058 133.378 10.3256 135.539 10.3256C137.7 10.3256 139.463 8.0058 139.463 5.16278C139.463 2.31975 137.7 0 135.539 0Z" fill="white"/>
<path d="M154.336 0C152.162 0 150.412 2.31975 150.412 5.16278C150.412 8.0058 152.162 10.3256 154.336 10.3256C156.51 10.3256 158.259 8.0058 158.259 5.16278C158.259 2.31975 156.496 0 154.336 0Z" fill="white"/>
<path d="M173.133 0C170.959 0 169.209 2.31975 169.209 5.16278C169.209 8.0058 170.972 10.3256 173.133 10.3256C175.293 10.3256 177.056 8.0058 177.056 5.16278C177.056 2.31975 175.293 0 173.133 0Z" fill="white"/>
<path d="M191.941 10.3256C194.115 10.3256 195.865 8.0058 195.865 5.16278C195.865 2.31975 194.102 0 191.941 0C189.781 0 188.018 2.31975 188.018 5.16278C188.018 8.0058 189.781 10.3256 191.941 10.3256Z" fill="white"/>
<path d="M210.738 0C208.577 0 206.814 2.31975 206.814 5.16278C206.814 8.0058 208.577 10.3256 210.738 10.3256C212.899 10.3256 214.662 8.0058 214.662 5.16278C214.662 2.31975 212.899 0 210.738 0Z" fill="white"/>
<path d="M229.535 0C227.374 0 225.611 2.31975 225.611 5.16278C225.611 8.0058 227.374 10.3256 229.535 10.3256C231.696 10.3256 233.459 8.0058 233.459 5.16278C233.459 2.31975 231.696 0 229.535 0Z" fill="white"/>
<path d="M248.344 0C246.183 0 244.42 2.31975 244.42 5.16278C244.42 8.0058 246.183 10.3256 248.344 10.3256C250.504 10.3256 252.267 8.0058 252.267 5.16278C252.267 2.31975 250.504 0 248.344 0Z" fill="white"/>
<path d="M267.14 10.3256C269.314 10.3256 271.064 8.0058 271.064 5.16278C271.064 2.31975 269.301 0 267.14 0C264.98 0 263.217 2.31975 263.217 5.16278C263.217 8.0058 264.98 10.3256 267.14 10.3256Z" fill="white"/>
<path d="M285.951 0C283.777 0 282.027 2.31975 282.027 5.16278C282.027 8.0058 283.79 10.3256 285.951 10.3256C288.112 10.3256 289.875 8.0058 289.875 5.16278C289.875 2.31975 288.112 0 285.951 0Z" fill="white"/>
<path d="M304.746 0C302.585 0 300.822 2.31975 300.822 5.16278C300.822 8.0058 302.585 10.3256 304.746 10.3256C306.907 10.3256 308.67 8.0058 308.67 5.16278C308.67 2.31975 306.907 0 304.746 0Z" fill="white"/>
<path d="M323.543 0C321.382 0 319.619 2.31975 319.619 5.16278C319.619 8.0058 321.382 10.3256 323.543 10.3256C325.703 10.3256 327.466 8.0058 327.466 5.16278C327.466 2.31975 325.703 0 323.543 0Z" fill="white"/>
<path d="M342.353 0C340.193 0 338.43 2.31975 338.43 5.16278C338.43 8.0058 340.193 10.3256 342.353 10.3256C344.514 10.3256 346.277 8.0058 346.277 5.16278C346.277 2.31975 344.514 0 342.353 0Z" fill="white"/>
<path d="M361.15 0C358.976 0 357.227 2.31975 357.227 5.16278C357.227 8.0058 358.976 10.3256 361.15 10.3256C363.324 10.3256 365.074 8.0058 365.074 5.16278C365.074 2.31975 363.311 0 361.15 0Z" fill="white"/>
<path d="M379.945 0C377.771 0 376.021 2.31975 376.021 5.16278C376.021 8.0058 377.784 10.3256 379.945 10.3256C382.106 10.3256 383.869 8.0058 383.869 5.16278C383.869 2.31975 382.106 0 379.945 0Z" fill="white"/>
<path d="M398.756 10.3256C400.93 10.3256 402.679 8.0058 402.679 5.16278C402.679 2.31975 400.93 0 398.756 0C396.582 0 394.832 2.31975 394.832 5.16278C394.832 8.0058 396.595 10.3256 398.756 10.3256Z" fill="white"/>
<path d="M417.553 0C415.392 0 413.629 2.31975 413.629 5.16278C413.629 8.0058 415.392 10.3256 417.553 10.3256C419.713 10.3256 421.476 8.0058 421.476 5.16278C421.476 2.31975 419.713 0 417.553 0Z" fill="white"/>
<path d="M432.426 5.16278C432.426 8.0058 434.189 10.3256 436.349 10.3256C437.37 10.3256 438.298 9.80233 439.001 8.94768V1.3779C438.298 0.540686 437.383 0 436.349 0C434.189 0 432.426 2.31975 432.426 5.16278Z" fill="white"/>
<path d="M79.1367 35.0932C81.2973 35.0932 83.0603 32.7735 83.0603 29.9305C83.0603 27.6281 81.9071 25.6921 80.3164 25.0293C78.7655 27.2619 77.1483 29.4769 75.4648 31.7095C76.0216 33.6804 77.4399 35.0932 79.1367 35.0932Z" fill="white"/>
<path d="M97.9334 24.7676C95.7728 24.7676 94.0098 27.0874 94.0098 29.9304C94.0098 32.7734 95.7728 35.0932 97.9334 35.0932C100.094 35.0932 101.857 32.7734 101.857 29.9304C101.857 27.0874 100.094 24.7676 97.9334 24.7676Z" fill="white"/>
<path d="M116.728 24.7676C114.568 24.7676 112.805 27.0874 112.805 29.9304C112.805 32.7734 114.568 35.0932 116.728 35.0932C118.889 35.0932 120.652 32.7734 120.652 29.9304C120.652 27.0874 118.889 24.7676 116.728 24.7676Z" fill="white"/>
<path d="M135.539 24.7676C133.378 24.7676 131.615 27.0874 131.615 29.9304C131.615 32.7734 133.378 35.0932 135.539 35.0932C137.7 35.0932 139.463 32.7734 139.463 29.9304C139.463 27.0874 137.7 24.7676 135.539 24.7676Z" fill="white"/>
<path d="M154.336 24.7676C152.162 24.7676 150.412 27.0874 150.412 29.9304C150.412 32.7734 152.162 35.0932 154.336 35.0932C156.51 35.0932 158.259 32.7734 158.259 29.9304C158.259 27.0874 156.496 24.7676 154.336 24.7676Z" fill="white"/>
<path d="M173.133 24.7676C170.959 24.7676 169.209 27.0874 169.209 29.9304C169.209 32.7734 170.972 35.0932 173.133 35.0932C175.293 35.0932 177.056 32.7734 177.056 29.9304C177.056 27.0874 175.293 24.7676 173.133 24.7676Z" fill="white"/>
<path d="M191.941 35.0932C194.115 35.0932 195.865 32.7734 195.865 29.9304C195.865 27.0874 194.102 24.7676 191.941 24.7676C189.781 24.7676 188.018 27.0874 188.018 29.9304C188.018 32.7734 189.781 35.0932 191.941 35.0932Z" fill="white"/>
<path d="M210.738 24.7676C208.577 24.7676 206.814 27.0874 206.814 29.9304C206.814 32.7734 208.577 35.0932 210.738 35.0932C212.899 35.0932 214.662 32.7734 214.662 29.9304C214.662 27.0874 212.899 24.7676 210.738 24.7676Z" fill="white"/>
<path d="M229.535 24.7676C227.374 24.7676 225.611 27.0874 225.611 29.9304C225.611 32.7734 227.374 35.0932 229.535 35.0932C231.696 35.0932 233.459 32.7734 233.459 29.9304C233.459 27.0874 231.696 24.7676 229.535 24.7676Z" fill="white"/>
<path d="M248.344 24.7676C246.183 24.7676 244.42 27.0874 244.42 29.9304C244.42 32.7734 246.183 35.0932 248.344 35.0932C250.504 35.0932 252.267 32.7734 252.267 29.9304C252.267 27.0874 250.504 24.7676 248.344 24.7676Z" fill="white"/>
<path d="M267.14 35.0932C269.314 35.0932 271.064 32.7734 271.064 29.9304C271.064 27.0874 269.301 24.7676 267.14 24.7676C264.98 24.7676 263.217 27.0874 263.217 29.9304C263.217 32.7734 264.98 35.0932 267.14 35.0932Z" fill="white"/>
<path d="M285.951 24.7676C283.777 24.7676 282.027 27.0874 282.027 29.9304C282.027 32.7734 283.79 35.0932 285.951 35.0932C288.112 35.0932 289.875 32.7734 289.875 29.9304C289.875 27.0874 288.112 24.7676 285.951 24.7676Z" fill="white"/>
<path d="M304.746 24.7676C302.585 24.7676 300.822 27.0874 300.822 29.9304C300.822 32.7734 302.585 35.0932 304.746 35.0932C306.907 35.0932 308.67 32.7734 308.67 29.9304C308.67 27.0874 306.907 24.7676 304.746 24.7676Z" fill="white"/>
<path d="M323.543 24.7676C321.382 24.7676 319.619 27.0874 319.619 29.9304C319.619 32.7734 321.382 35.0932 323.543 35.0932C325.703 35.0932 327.466 32.7734 327.466 29.9304C327.466 27.0874 325.703 24.7676 323.543 24.7676Z" fill="white"/>
<path d="M342.353 24.7676C340.193 24.7676 338.43 27.0874 338.43 29.9304C338.43 32.7734 340.193 35.0932 342.353 35.0932C344.514 35.0932 346.277 32.7734 346.277 29.9304C346.277 27.0874 344.514 24.7676 342.353 24.7676Z" fill="white"/>
<path d="M361.15 24.7676C358.976 24.7676 357.227 27.0874 357.227 29.9304C357.227 32.7734 358.976 35.0932 361.15 35.0932C363.324 35.0932 365.074 32.7734 365.074 29.9304C365.074 27.0874 363.311 24.7676 361.15 24.7676Z" fill="white"/>
<path d="M379.945 24.7676C377.771 24.7676 376.021 27.0874 376.021 29.9304C376.021 32.7734 377.784 35.0932 379.945 35.0932C382.106 35.0932 383.869 32.7734 383.869 29.9304C383.869 27.0874 382.106 24.7676 379.945 24.7676Z" fill="white"/>
<path d="M398.756 35.0932C400.93 35.0932 402.679 32.7734 402.679 29.9304C402.679 27.0874 400.93 24.7676 398.756 24.7676C396.582 24.7676 394.832 27.0874 394.832 29.9304C394.832 32.7734 396.595 35.0932 398.756 35.0932Z" fill="white"/>
<path d="M417.553 24.7676C415.392 24.7676 413.629 27.0874 413.629 29.9304C413.629 32.7734 415.392 35.0932 417.553 35.0932C419.713 35.0932 421.476 32.7734 421.476 29.9304C421.476 27.0874 419.713 24.7676 417.553 24.7676Z" fill="white"/>
<path d="M432.426 29.9304C432.426 32.7734 434.189 35.0932 436.349 35.0932C437.37 35.0932 438.298 34.5699 439.001 33.7153V26.1455C438.298 25.3083 437.383 24.7676 436.349 24.7676C434.189 24.7676 432.426 27.0874 432.426 29.9304Z" fill="white"/>
<path d="M60.326 59.8433C62.4867 59.8433 64.2497 57.5235 64.2497 54.6805C64.2497 51.8375 62.553 49.6049 60.4321 49.5352C59.1463 50.9131 57.8207 52.3084 56.4819 53.6863C56.4289 54.0177 56.4023 54.3491 56.4023 54.6805C56.4023 57.541 58.1653 59.8433 60.326 59.8433Z" fill="white"/>
<path d="M79.1366 49.5176C76.9759 49.5176 75.2129 51.8199 75.2129 54.6804C75.2129 57.5408 76.9759 59.8432 79.1366 59.8432C81.2972 59.8432 83.0602 57.5234 83.0602 54.6804C83.0602 51.8374 81.2972 49.5176 79.1366 49.5176Z" fill="white"/>
<path d="M97.9334 49.5176C95.7728 49.5176 94.0098 51.8199 94.0098 54.6804C94.0098 57.5408 95.7728 59.8432 97.9334 59.8432C100.094 59.8432 101.857 57.5234 101.857 54.6804C101.857 51.8374 100.094 49.5176 97.9334 49.5176Z" fill="white"/>
<path d="M116.728 49.5176C114.568 49.5176 112.805 51.8199 112.805 54.6804C112.805 57.5408 114.568 59.8432 116.728 59.8432C118.889 59.8432 120.652 57.5234 120.652 54.6804C120.652 51.8374 118.889 49.5176 116.728 49.5176Z" fill="white"/>
<path d="M135.539 49.5176C133.378 49.5176 131.615 51.8199 131.615 54.6804C131.615 57.5408 133.378 59.8432 135.539 59.8432C137.7 59.8432 139.463 57.5234 139.463 54.6804C139.463 51.8374 137.7 49.5176 135.539 49.5176Z" fill="white"/>
<path d="M154.336 49.5176C152.162 49.5176 150.412 51.8199 150.412 54.6804C150.412 57.5408 152.162 59.8432 154.336 59.8432C156.51 59.8432 158.259 57.5234 158.259 54.6804C158.259 51.8374 156.496 49.5176 154.336 49.5176Z" fill="white"/>
<path d="M173.133 49.5176C170.959 49.5176 169.209 51.8199 169.209 54.6804C169.209 57.5408 170.972 59.8432 173.133 59.8432C175.293 59.8432 177.056 57.5234 177.056 54.6804C177.056 51.8374 175.293 49.5176 173.133 49.5176Z" fill="white"/>
<path d="M191.941 49.5176C189.781 49.5176 188.018 51.8199 188.018 54.6804C188.018 57.5408 189.781 59.8432 191.941 59.8432C194.102 59.8432 195.865 57.5234 195.865 54.6804C195.865 51.8374 194.102 49.5176 191.941 49.5176Z" fill="white"/>
<path d="M210.738 49.5176C208.577 49.5176 206.814 51.8199 206.814 54.6804C206.814 57.5408 208.577 59.8432 210.738 59.8432C212.899 59.8432 214.662 57.5234 214.662 54.6804C214.662 51.8374 212.899 49.5176 210.738 49.5176Z" fill="white"/>
<path d="M229.535 49.5176C227.374 49.5176 225.611 51.8374 225.611 54.6804C225.611 57.5234 227.374 59.8432 229.535 59.8432C231.696 59.8432 233.459 57.5234 233.459 54.6804C233.459 51.8374 231.696 49.5176 229.535 49.5176Z" fill="white"/>
<path d="M248.344 49.5176C246.183 49.5176 244.42 51.8374 244.42 54.6804C244.42 57.5234 246.183 59.8432 248.344 59.8432C250.504 59.8432 252.267 57.5234 252.267 54.6804C252.267 51.8374 250.504 49.5176 248.344 49.5176Z" fill="white"/>
<path d="M267.14 49.5176C264.967 49.5176 263.217 51.8374 263.217 54.6804C263.217 57.5234 264.98 59.8432 267.14 59.8432C269.301 59.8432 271.064 57.5234 271.064 54.6804C271.064 51.8374 269.301 49.5176 267.14 49.5176Z" fill="white"/>
<path d="M285.951 49.5176C283.777 49.5176 282.027 51.8374 282.027 54.6804C282.027 57.5234 283.79 59.8432 285.951 59.8432C288.112 59.8432 289.875 57.5234 289.875 54.6804C289.875 51.8374 288.112 49.5176 285.951 49.5176Z" fill="white"/>
<path d="M304.746 49.5176C302.585 49.5176 300.822 51.8374 300.822 54.6804C300.822 57.5234 302.585 59.8432 304.746 59.8432C306.907 59.8432 308.67 57.5234 308.67 54.6804C308.67 51.8374 306.907 49.5176 304.746 49.5176Z" fill="white"/>
<path d="M323.543 49.5176C321.382 49.5176 319.619 51.8374 319.619 54.6804C319.619 57.5234 321.382 59.8432 323.543 59.8432C325.703 59.8432 327.466 57.5234 327.466 54.6804C327.466 51.8374 325.703 49.5176 323.543 49.5176Z" fill="white"/>
<path d="M342.353 49.5176C340.193 49.5176 338.43 51.8374 338.43 54.6804C338.43 57.5234 340.193 59.8432 342.353 59.8432C344.514 59.8432 346.277 57.5234 346.277 54.6804C346.277 51.8374 344.514 49.5176 342.353 49.5176Z" fill="white"/>
<path d="M361.15 49.5176C358.976 49.5176 357.227 51.8374 357.227 54.6804C357.227 57.5234 358.976 59.8432 361.15 59.8432C363.324 59.8432 365.074 57.5234 365.074 54.6804C365.074 51.8374 363.311 49.5176 361.15 49.5176Z" fill="white"/>
<path d="M379.945 49.5176C377.771 49.5176 376.021 51.8374 376.021 54.6804C376.021 57.5234 377.784 59.8432 379.945 59.8432C382.106 59.8432 383.869 57.5234 383.869 54.6804C383.869 51.8374 382.106 49.5176 379.945 49.5176Z" fill="white"/>
<path d="M398.756 49.5176C396.582 49.5176 394.832 51.8374 394.832 54.6804C394.832 57.5234 396.582 59.8432 398.756 59.8432C400.93 59.8432 402.679 57.5234 402.679 54.6804C402.679 51.8374 400.916 49.5176 398.756 49.5176Z" fill="white"/>
<path d="M417.553 49.5176C415.392 49.5176 413.629 51.8374 413.629 54.6804C413.629 57.5234 415.392 59.8432 417.553 59.8432C419.713 59.8432 421.476 57.5234 421.476 54.6804C421.476 51.8374 419.713 49.5176 417.553 49.5176Z" fill="white"/>
<path d="M432.426 54.6802C432.426 57.5233 434.189 59.843 436.349 59.843C437.37 59.843 438.298 59.3198 439.001 58.4651V50.8779C438.298 50.0407 437.383 49.5 436.349 49.5C434.189 49.5 432.426 51.8198 432.426 54.6628V54.6802Z" fill="white"/>
<path d="M41.5291 84.6107C43.6961 84.6107 45.4528 82.2993 45.4528 79.448C45.4528 76.5966 43.6961 74.2852 41.5291 74.2852C39.3622 74.2852 37.6055 76.5966 37.6055 79.448C37.6055 82.2993 39.3622 84.6107 41.5291 84.6107Z" fill="white"/>
<path d="M60.326 84.6107C62.4867 84.6107 64.2497 82.291 64.2497 79.448C64.2497 76.6049 62.4867 74.2852 60.326 74.2852C58.1653 74.2852 56.4023 76.6049 56.4023 79.448C56.4023 82.291 58.1653 84.6107 60.326 84.6107Z" fill="white"/>
<path d="M79.1366 74.2852C76.9759 74.2852 75.2129 76.6049 75.2129 79.448C75.2129 82.291 76.9759 84.6107 79.1366 84.6107C81.2972 84.6107 83.0602 82.291 83.0602 79.448C83.0602 76.6049 81.2972 74.2852 79.1366 74.2852Z" fill="white"/>
<path d="M97.9334 84.6107C100.1 84.6107 101.857 82.2993 101.857 79.448C101.857 76.5966 100.1 74.2852 97.9334 74.2852C95.7664 74.2852 94.0098 76.5966 94.0098 79.448C94.0098 82.2993 95.7664 84.6107 97.9334 84.6107Z" fill="white"/>
<path d="M116.728 74.2852C114.568 74.2852 112.805 76.6049 112.805 79.448C112.805 82.291 114.568 84.6107 116.728 84.6107C118.889 84.6107 120.652 82.291 120.652 79.448C120.652 76.6049 118.889 74.2852 116.728 74.2852Z" fill="white"/>
<path d="M135.539 74.2852C133.378 74.2852 131.615 76.6049 131.615 79.448C131.615 82.291 133.378 84.6107 135.539 84.6107C137.7 84.6107 139.463 82.291 139.463 79.448C139.463 76.6049 137.7 74.2852 135.539 74.2852Z" fill="white"/>
<path d="M154.336 74.2852C152.162 74.2852 150.412 76.6049 150.412 79.448C150.412 82.291 152.162 84.6107 154.336 84.6107C156.51 84.6107 158.259 82.291 158.259 79.448C158.259 76.6049 156.496 74.2852 154.336 74.2852Z" fill="white"/>
<path d="M173.133 84.6107C175.3 84.6107 177.056 82.2993 177.056 79.448C177.056 76.5966 175.3 74.2852 173.133 74.2852C170.966 74.2852 169.209 76.5966 169.209 79.448C169.209 82.2993 170.966 84.6107 173.133 84.6107Z" fill="white"/>
<path d="M191.941 74.2852C189.781 74.2852 188.018 76.6049 188.018 79.448C188.018 82.291 189.781 84.6107 191.941 84.6107C194.102 84.6107 195.865 82.291 195.865 79.448C195.865 76.6049 194.102 74.2852 191.941 74.2852Z" fill="white"/>
<path d="M210.738 74.2852C208.577 74.2852 206.814 76.6049 206.814 79.448C206.814 82.291 208.577 84.6107 210.738 84.6107C212.899 84.6107 214.662 82.291 214.662 79.448C214.662 76.6049 212.899 74.2852 210.738 74.2852Z" fill="white"/>
<path d="M229.535 74.2852C227.374 74.2852 225.611 76.6049 225.611 79.448C225.611 82.291 227.374 84.6107 229.535 84.6107C231.696 84.6107 233.459 82.291 233.459 79.448C233.459 76.6049 231.696 74.2852 229.535 74.2852Z" fill="white"/>
<path d="M248.344 74.2852C246.183 74.2852 244.42 76.6049 244.42 79.448C244.42 82.291 246.183 84.6107 248.344 84.6107C250.504 84.6107 252.267 82.291 252.267 79.448C252.267 76.6049 250.504 74.2852 248.344 74.2852Z" fill="white"/>
<path d="M267.14 74.2852C264.967 74.2852 263.217 76.6049 263.217 79.448C263.217 82.291 264.98 84.6107 267.14 84.6107C269.301 84.6107 271.064 82.291 271.064 79.448C271.064 76.6049 269.301 74.2852 267.14 74.2852Z" fill="white"/>
<path d="M285.951 74.2852C283.777 74.2852 282.027 76.6049 282.027 79.448C282.027 82.291 283.79 84.6107 285.951 84.6107C288.112 84.6107 289.875 82.291 289.875 79.448C289.875 76.6049 288.112 74.2852 285.951 74.2852Z" fill="white"/>
<path d="M304.746 74.2852C302.585 74.2852 300.822 76.6049 300.822 79.448C300.822 82.291 302.585 84.6107 304.746 84.6107C306.907 84.6107 308.67 82.291 308.67 79.448C308.67 76.6049 306.907 74.2852 304.746 74.2852Z" fill="white"/>
<path d="M323.543 74.2852C321.382 74.2852 319.619 76.6049 319.619 79.448C319.619 82.291 321.382 84.6107 323.543 84.6107C325.703 84.6107 327.466 82.291 327.466 79.448C327.466 76.6049 325.703 74.2852 323.543 74.2852Z" fill="white"/>
<path d="M342.353 74.2852C340.193 74.2852 338.43 76.6049 338.43 79.448C338.43 82.291 340.193 84.6107 342.353 84.6107C344.514 84.6107 346.277 82.291 346.277 79.448C346.277 76.6049 344.514 74.2852 342.353 74.2852Z" fill="white"/>
<path d="M361.15 74.2852C358.976 74.2852 357.227 76.6049 357.227 79.448C357.227 82.291 358.976 84.6107 361.15 84.6107C363.324 84.6107 365.074 82.291 365.074 79.448C365.074 76.6049 363.311 74.2852 361.15 74.2852Z" fill="white"/>
<path d="M379.945 84.6107C382.112 84.6107 383.869 82.2993 383.869 79.448C383.869 76.5966 382.112 74.2852 379.945 74.2852C377.778 74.2852 376.021 76.5966 376.021 79.448C376.021 82.2993 377.778 84.6107 379.945 84.6107Z" fill="white"/>
<path d="M398.756 84.6107C400.93 84.6107 402.679 82.291 402.679 79.448C402.679 76.6049 400.93 74.2852 398.756 74.2852C396.582 74.2852 394.832 76.6049 394.832 79.448C394.832 82.291 396.595 84.6107 398.756 84.6107Z" fill="white"/>
<path d="M417.553 84.6107C419.72 84.6107 421.476 82.2993 421.476 79.448C421.476 76.5966 419.72 74.2852 417.553 74.2852C415.386 74.2852 413.629 76.5966 413.629 79.448C413.629 82.2993 415.386 84.6107 417.553 84.6107Z" fill="white"/>
<path d="M432.426 79.448C432.426 82.3084 434.189 84.6107 436.349 84.6107C437.37 84.6107 438.298 84.0875 439.001 83.2328V75.6631C438.298 74.8259 437.383 74.2852 436.349 74.2852C434.189 74.2852 432.426 76.6049 432.426 79.448Z" fill="white"/>
<path d="M22.7342 99.0352C20.5735 99.0352 18.8105 101.355 18.8105 104.198C18.8105 107.041 20.5735 109.361 22.7342 109.361C24.8949 109.361 26.6579 107.041 26.6579 104.198C26.6579 101.355 24.8949 99.0352 22.7342 99.0352Z" fill="white"/>
<path d="M41.5291 99.0352C39.3685 99.0352 37.6055 101.355 37.6055 104.198C37.6055 107.041 39.3685 109.361 41.5291 109.361C43.6898 109.361 45.4528 107.041 45.4528 104.198C45.4528 101.355 43.6898 99.0352 41.5291 99.0352Z" fill="white"/>
<path d="M60.326 99.0352C58.1653 99.0352 56.4023 101.355 56.4023 104.198C56.4023 107.041 58.1653 109.361 60.326 109.361C62.4867 109.361 64.2497 107.041 64.2497 104.198C64.2497 101.355 62.4867 99.0352 60.326 99.0352Z" fill="white"/>
<path d="M79.1366 99.0352C76.9759 99.0352 75.2129 101.355 75.2129 104.198C75.2129 107.041 76.9759 109.361 79.1366 109.361C81.2972 109.361 83.0602 107.041 83.0602 104.198C83.0602 101.355 81.2972 99.0352 79.1366 99.0352Z" fill="white"/>
<path d="M97.9334 99.0352C95.7728 99.0352 94.0098 101.355 94.0098 104.198C94.0098 107.041 95.7728 109.361 97.9334 109.361C100.094 109.361 101.857 107.041 101.857 104.198C101.857 101.355 100.094 99.0352 97.9334 99.0352Z" fill="white"/>
<path d="M116.728 99.0352C114.568 99.0352 112.805 101.355 112.805 104.198C112.805 107.041 114.568 109.361 116.728 109.361C118.889 109.361 120.652 107.041 120.652 104.198C120.652 101.355 118.889 99.0352 116.728 99.0352Z" fill="white"/>
<path d="M135.539 99.0352C133.378 99.0352 131.615 101.355 131.615 104.198C131.615 107.041 133.378 109.361 135.539 109.361C137.7 109.361 139.463 107.041 139.463 104.198C139.463 101.355 137.7 99.0352 135.539 99.0352Z" fill="white"/>
<path d="M154.336 99.0352C152.162 99.0352 150.412 101.355 150.412 104.198C150.412 107.041 152.162 109.361 154.336 109.361C156.51 109.361 158.259 107.041 158.259 104.198C158.259 101.355 156.496 99.0352 154.336 99.0352Z" fill="white"/>
<path d="M173.133 99.0352C170.959 99.0352 169.209 101.355 169.209 104.198C169.209 107.041 170.972 109.361 173.133 109.361C175.293 109.361 177.056 107.041 177.056 104.198C177.056 101.355 175.293 99.0352 173.133 99.0352Z" fill="white"/>
<path d="M191.941 109.361C194.115 109.361 195.865 107.041 195.865 104.198C195.865 101.355 194.102 99.0352 191.941 99.0352C189.781 99.0352 188.018 101.355 188.018 104.198C188.018 107.041 189.781 109.361 191.941 109.361Z" fill="white"/>
<path d="M210.738 99.0352C208.577 99.0352 206.814 101.355 206.814 104.198C206.814 107.041 208.577 109.361 210.738 109.361C212.899 109.361 214.662 107.041 214.662 104.198C214.662 101.355 212.899 99.0352 210.738 99.0352Z" fill="white"/>
<path d="M229.535 99.0352C227.374 99.0352 225.611 101.355 225.611 104.198C225.611 107.041 227.374 109.361 229.535 109.361C231.696 109.361 233.459 107.041 233.459 104.198C233.459 101.355 231.696 99.0352 229.535 99.0352Z" fill="white"/>
<path d="M248.344 99.0352C246.183 99.0352 244.42 101.355 244.42 104.198C244.42 107.041 246.183 109.361 248.344 109.361C250.504 109.361 252.267 107.041 252.267 104.198C252.267 101.355 250.504 99.0352 248.344 99.0352Z" fill="white"/>
<path d="M267.14 109.361C269.314 109.361 271.064 107.041 271.064 104.198C271.064 101.355 269.301 99.0352 267.14 99.0352C264.98 99.0352 263.217 101.355 263.217 104.198C263.217 107.041 264.98 109.361 267.14 109.361Z" fill="white"/>
<path d="M285.951 99.0352C283.777 99.0352 282.027 101.355 282.027 104.198C282.027 107.041 283.79 109.361 285.951 109.361C288.112 109.361 289.875 107.041 289.875 104.198C289.875 101.355 288.112 99.0352 285.951 99.0352Z" fill="white"/>
<path d="M304.746 99.0352C302.585 99.0352 300.822 101.355 300.822 104.198C300.822 107.041 302.585 109.361 304.746 109.361C306.907 109.361 308.67 107.041 308.67 104.198C308.67 101.355 306.907 99.0352 304.746 99.0352Z" fill="white"/>
<path d="M323.543 99.0352C321.382 99.0352 319.619 101.355 319.619 104.198C319.619 107.041 321.382 109.361 323.543 109.361C325.703 109.361 327.466 107.041 327.466 104.198C327.466 101.355 325.703 99.0352 323.543 99.0352Z" fill="white"/>
<path d="M342.353 99.0352C340.193 99.0352 338.43 101.355 338.43 104.198C338.43 107.041 340.193 109.361 342.353 109.361C344.514 109.361 346.277 107.041 346.277 104.198C346.277 101.355 344.514 99.0352 342.353 99.0352Z" fill="white"/>
<path d="M361.15 99.0352C358.976 99.0352 357.227 101.355 357.227 104.198C357.227 107.041 358.976 109.361 361.15 109.361C363.324 109.361 365.074 107.041 365.074 104.198C365.074 101.355 363.311 99.0352 361.15 99.0352Z" fill="white"/>
<path d="M379.945 99.0352C377.771 99.0352 376.021 101.355 376.021 104.198C376.021 107.041 377.784 109.361 379.945 109.361C382.106 109.361 383.869 107.041 383.869 104.198C383.869 101.355 382.106 99.0352 379.945 99.0352Z" fill="white"/>
<path d="M398.756 109.361C400.93 109.361 402.679 107.041 402.679 104.198C402.679 101.355 400.93 99.0352 398.756 99.0352C396.582 99.0352 394.832 101.355 394.832 104.198C394.832 107.041 396.595 109.361 398.756 109.361Z" fill="white"/>
<path d="M417.553 99.0352C415.392 99.0352 413.629 101.355 413.629 104.198C413.629 107.041 415.392 109.361 417.553 109.361C419.713 109.361 421.476 107.041 421.476 104.198C421.476 101.355 419.713 99.0352 417.553 99.0352Z" fill="white"/>
<path d="M432.426 104.198C432.426 107.041 434.189 109.361 436.349 109.361C437.37 109.361 438.298 108.837 439.001 107.983V100.413C438.298 99.5758 437.383 99.0352 436.349 99.0352C434.189 99.0352 432.426 101.355 432.426 104.198Z" fill="white"/>
<path d="M7.84778 128.966C7.84778 127.135 7.11872 125.547 6.03176 124.623C4.97131 127.675 3.97714 130.797 3.0625 133.989C3.34087 134.077 3.63249 134.129 3.92412 134.129C6.08478 134.129 7.84778 131.809 7.84778 128.966Z" fill="white"/>
<path d="M22.7342 123.803C20.5735 123.803 18.8105 126.105 18.8105 128.966C18.8105 131.826 20.5735 134.128 22.7342 134.128C24.8949 134.128 26.6579 131.809 26.6579 128.966C26.6579 126.123 24.8949 123.803 22.7342 123.803Z" fill="white"/>
<path d="M41.5291 123.803C39.3685 123.803 37.6055 126.105 37.6055 128.966C37.6055 131.826 39.3685 134.128 41.5291 134.128C43.6898 134.128 45.4528 131.809 45.4528 128.966C45.4528 126.123 43.6898 123.803 41.5291 123.803Z" fill="white"/>
<path d="M60.326 134.128C62.4867 134.128 64.2497 131.809 64.2497 128.966C64.2497 126.123 62.4867 123.803 60.326 123.803C58.1653 123.803 56.4023 126.105 56.4023 128.966C56.4023 131.826 58.1653 134.128 60.326 134.128Z" fill="white"/>
<path d="M79.1366 123.803C76.9759 123.803 75.2129 126.105 75.2129 128.966C75.2129 131.826 76.9759 134.128 79.1366 134.128C81.2972 134.128 83.0602 131.809 83.0602 128.966C83.0602 126.123 81.2972 123.803 79.1366 123.803Z" fill="white"/>
<path d="M97.9334 123.803C95.7728 123.803 94.0098 126.105 94.0098 128.966C94.0098 131.826 95.7728 134.128 97.9334 134.128C100.094 134.128 101.857 131.809 101.857 128.966C101.857 126.123 100.094 123.803 97.9334 123.803Z" fill="white"/>
<path d="M116.728 123.803C114.568 123.803 112.805 126.105 112.805 128.966C112.805 131.826 114.568 134.128 116.728 134.128C118.889 134.128 120.652 131.809 120.652 128.966C120.652 126.123 118.889 123.803 116.728 123.803Z" fill="white"/>
<path d="M135.539 123.803C133.378 123.803 131.615 126.105 131.615 128.966C131.615 131.826 133.378 134.128 135.539 134.128C137.7 134.128 139.463 131.809 139.463 128.966C139.463 126.123 137.7 123.803 135.539 123.803Z" fill="white"/>
<path d="M154.336 123.803C152.162 123.803 150.412 126.105 150.412 128.966C150.412 131.826 152.162 134.128 154.336 134.128C156.51 134.128 158.259 131.809 158.259 128.966C158.259 126.123 156.496 123.803 154.336 123.803Z" fill="white"/>
<path d="M173.133 123.803C170.959 123.803 169.209 126.105 169.209 128.966C169.209 131.826 170.972 134.128 173.133 134.128C175.293 134.128 177.056 131.809 177.056 128.966C177.056 126.123 175.293 123.803 173.133 123.803Z" fill="white"/>
<path d="M191.941 123.803C189.781 123.803 188.018 126.105 188.018 128.966C188.018 131.826 189.781 134.128 191.941 134.128C194.102 134.128 195.865 131.809 195.865 128.966C195.865 126.123 194.102 123.803 191.941 123.803Z" fill="white"/>
<path d="M210.738 123.803C208.577 123.803 206.814 126.105 206.814 128.966C206.814 131.826 208.577 134.128 210.738 134.128C212.899 134.128 214.662 131.809 214.662 128.966C214.662 126.123 212.899 123.803 210.738 123.803Z" fill="white"/>
<path d="M229.535 123.803C227.374 123.803 225.611 126.105 225.611 128.966C225.611 131.826 227.374 134.128 229.535 134.128C231.696 134.128 233.459 131.809 233.459 128.966C233.459 126.123 231.696 123.803 229.535 123.803Z" fill="white"/>
<path d="M248.344 123.803C246.183 123.803 244.42 126.105 244.42 128.966C244.42 131.826 246.183 134.128 248.344 134.128C250.504 134.128 252.267 131.809 252.267 128.966C252.267 126.123 250.504 123.803 248.344 123.803Z" fill="white"/>
<path d="M267.14 123.803C264.967 123.803 263.217 126.105 263.217 128.966C263.217 131.826 264.98 134.128 267.14 134.128C269.301 134.128 271.064 131.809 271.064 128.966C271.064 126.123 269.301 123.803 267.14 123.803Z" fill="white"/>
<path d="M285.951 123.803C283.777 123.803 282.027 126.105 282.027 128.966C282.027 131.826 283.79 134.128 285.951 134.128C288.112 134.128 289.875 131.809 289.875 128.966C289.875 126.123 288.112 123.803 285.951 123.803Z" fill="white"/>
<path d="M304.746 123.803C302.585 123.803 300.822 126.105 300.822 128.966C300.822 131.826 302.585 134.128 304.746 134.128C306.907 134.128 308.67 131.809 308.67 128.966C308.67 126.123 306.907 123.803 304.746 123.803Z" fill="white"/>
<path d="M323.543 123.803C321.382 123.803 319.619 126.105 319.619 128.966C319.619 131.826 321.382 134.128 323.543 134.128C325.703 134.128 327.466 131.809 327.466 128.966C327.466 126.123 325.703 123.803 323.543 123.803Z" fill="white"/>
<path d="M342.353 123.803C340.193 123.803 338.43 126.105 338.43 128.966C338.43 131.826 340.193 134.128 342.353 134.128C344.514 134.128 346.277 131.809 346.277 128.966C346.277 126.123 344.514 123.803 342.353 123.803Z" fill="white"/>
<path d="M361.15 123.803C358.976 123.803 357.227 126.105 357.227 128.966C357.227 131.826 358.976 134.128 361.15 134.128C363.324 134.128 365.074 131.809 365.074 128.966C365.074 126.123 363.311 123.803 361.15 123.803Z" fill="white"/>
<path d="M379.945 123.803C377.771 123.803 376.021 126.105 376.021 128.966C376.021 131.826 377.784 134.128 379.945 134.128C382.106 134.128 383.869 131.809 383.869 128.966C383.869 126.123 382.106 123.803 379.945 123.803Z" fill="white"/>
<path d="M398.756 123.803C396.582 123.803 394.832 126.105 394.832 128.966C394.832 131.826 396.582 134.128 398.756 134.128C400.93 134.128 402.679 131.809 402.679 128.966C402.679 126.123 400.916 123.803 398.756 123.803Z" fill="white"/>
<path d="M417.553 123.803C415.392 123.803 413.629 126.105 413.629 128.966C413.629 131.826 415.392 134.128 417.553 134.128C419.713 134.128 421.476 131.809 421.476 128.966C421.476 126.123 419.713 123.803 417.553 123.803Z" fill="white"/>
<path d="M432.426 128.965C432.426 131.826 434.189 134.128 436.349 134.128C437.37 134.128 438.298 133.605 439.001 132.75V125.163C438.298 124.326 437.383 123.785 436.349 123.785C434.189 123.785 432.426 126.087 432.426 128.948V128.965Z" fill="white"/>
<path d="M3.92367 148.57C1.763 148.57 0 150.89 0 153.733C0 156.576 1.763 158.896 3.92367 158.896C6.08434 158.896 7.84733 156.576 7.84733 153.733C7.84733 150.89 6.08434 148.57 3.92367 148.57Z" fill="white"/>
<path d="M22.7342 148.57C20.5735 148.57 18.8105 150.89 18.8105 153.733C18.8105 156.576 20.5735 158.896 22.7342 158.896C24.8949 158.896 26.6579 156.576 26.6579 153.733C26.6579 150.89 24.8949 148.57 22.7342 148.57Z" fill="white"/>
<path d="M41.5291 148.57C39.3685 148.57 37.6055 150.89 37.6055 153.733C37.6055 156.576 39.3685 158.896 41.5291 158.896C43.6898 158.896 45.4528 156.576 45.4528 153.733C45.4528 150.89 43.6898 148.57 41.5291 148.57Z" fill="white"/>
<path d="M60.326 148.57C58.1653 148.57 56.4023 150.89 56.4023 153.733C56.4023 156.576 58.1653 158.896 60.326 158.896C62.4867 158.896 64.2497 156.576 64.2497 153.733C64.2497 150.89 62.4867 148.57 60.326 148.57Z" fill="white"/>
<path d="M79.1366 148.57C76.9759 148.57 75.2129 150.89 75.2129 153.733C75.2129 156.576 76.9759 158.896 79.1366 158.896C81.2972 158.896 83.0602 156.576 83.0602 153.733C83.0602 150.89 81.2972 148.57 79.1366 148.57Z" fill="white"/>
<path d="M97.9334 148.57C95.7728 148.57 94.0098 150.89 94.0098 153.733C94.0098 156.576 95.7728 158.896 97.9334 158.896C100.094 158.896 101.857 156.576 101.857 153.733C101.857 150.89 100.094 148.57 97.9334 148.57Z" fill="white"/>
<path d="M116.728 148.57C114.568 148.57 112.805 150.89 112.805 153.733C112.805 156.576 114.568 158.896 116.728 158.896C118.889 158.896 120.652 156.576 120.652 153.733C120.652 150.89 118.889 148.57 116.728 148.57Z" fill="white"/>
<path d="M135.539 148.57C133.378 148.57 131.615 150.89 131.615 153.733C131.615 156.576 133.378 158.896 135.539 158.896C137.7 158.896 139.463 156.576 139.463 153.733C139.463 150.89 137.7 148.57 135.539 148.57Z" fill="white"/>
<path d="M154.336 148.57C152.162 148.57 150.412 150.89 150.412 153.733C150.412 156.576 152.162 158.896 154.336 158.896C156.51 158.896 158.259 156.576 158.259 153.733C158.259 150.89 156.496 148.57 154.336 148.57Z" fill="white"/>
<path d="M173.133 148.57C170.959 148.57 169.209 150.89 169.209 153.733C169.209 156.576 170.972 158.896 173.133 158.896C175.293 158.896 177.056 156.576 177.056 153.733C177.056 150.89 175.293 148.57 173.133 148.57Z" fill="white"/>
<path d="M191.941 148.57C189.767 148.57 188.018 150.89 188.018 153.733C188.018 156.576 189.781 158.896 191.941 158.896C194.102 158.896 195.865 156.576 195.865 153.733C195.865 150.89 194.102 148.57 191.941 148.57Z" fill="white"/>
<path d="M210.738 148.57C208.577 148.57 206.814 150.89 206.814 153.733C206.814 156.576 208.577 158.896 210.738 158.896C212.899 158.896 214.662 156.576 214.662 153.733C214.662 150.89 212.899 148.57 210.738 148.57Z" fill="white"/>
<path d="M229.535 148.57C227.374 148.57 225.611 150.89 225.611 153.733C225.611 156.576 227.374 158.896 229.535 158.896C231.696 158.896 233.459 156.576 233.459 153.733C233.459 150.89 231.696 148.57 229.535 148.57Z" fill="white"/>
<path d="M248.344 148.57C246.183 148.57 244.42 150.89 244.42 153.733C244.42 156.576 246.183 158.896 248.344 158.896C250.504 158.896 252.267 156.576 252.267 153.733C252.267 150.89 250.504 148.57 248.344 148.57Z" fill="white"/>
<path d="M267.14 158.896C269.314 158.896 271.064 156.576 271.064 153.733C271.064 150.89 269.301 148.57 267.14 148.57C264.98 148.57 263.217 150.89 263.217 153.733C263.217 156.576 264.98 158.896 267.14 158.896Z" fill="white"/>
<path d="M285.951 158.896C288.125 158.896 289.875 156.576 289.875 153.733C289.875 150.89 288.112 148.57 285.951 148.57C283.79 148.57 282.027 150.89 282.027 153.733C282.027 156.576 283.777 158.896 285.951 158.896Z" fill="white"/>
<path d="M304.746 148.57C302.585 148.57 300.822 150.89 300.822 153.733C300.822 156.576 302.585 158.896 304.746 158.896C306.907 158.896 308.67 156.576 308.67 153.733C308.67 150.89 306.907 148.57 304.746 148.57Z" fill="white"/>
<path d="M323.543 148.57C321.382 148.57 319.619 150.89 319.619 153.733C319.619 156.576 321.382 158.896 323.543 158.896C325.703 158.896 327.466 156.576 327.466 153.733C327.466 150.89 325.703 148.57 323.543 148.57Z" fill="white"/>
<path d="M342.353 148.57C340.193 148.57 338.43 150.89 338.43 153.733C338.43 156.576 340.193 158.896 342.353 158.896C344.514 158.896 346.277 156.576 346.277 153.733C346.277 150.89 344.514 148.57 342.353 148.57Z" fill="white"/>
<path d="M361.15 158.896C363.324 158.896 365.074 156.576 365.074 153.733C365.074 150.89 363.324 148.57 361.15 148.57C358.976 148.57 357.227 150.89 357.227 153.733C357.227 156.576 358.99 158.896 361.15 158.896Z" fill="white"/>
<path d="M379.945 148.57C377.771 148.57 376.021 150.89 376.021 153.733C376.021 156.576 377.784 158.896 379.945 158.896C382.106 158.896 383.869 156.576 383.869 153.733C383.869 150.89 382.106 148.57 379.945 148.57Z" fill="white"/>
<path d="M398.756 158.896C400.93 158.896 402.679 156.576 402.679 153.733C402.679 150.89 400.93 148.57 398.756 148.57C396.582 148.57 394.832 150.89 394.832 153.733C394.832 156.576 396.595 158.896 398.756 158.896Z" fill="white"/>
<path d="M417.553 148.57C415.392 148.57 413.629 150.89 413.629 153.733C413.629 156.576 415.392 158.896 417.553 158.896C419.713 158.896 421.476 156.576 421.476 153.733C421.476 150.89 419.713 148.57 417.553 148.57Z" fill="white"/>
<path d="M432.426 153.733C432.426 156.576 434.189 158.896 436.349 158.896C437.37 158.896 438.298 158.373 439.001 157.518V149.931C438.298 149.093 437.383 148.553 436.349 148.553C434.189 148.553 432.426 150.873 432.426 153.716V153.733Z" fill="white"/>
<path d="M3.92367 173.32C1.763 173.32 0 175.64 0 178.483C0 181.326 1.763 183.646 3.92367 183.646C6.08434 183.646 7.84733 181.326 7.84733 178.483C7.84733 175.64 6.08434 173.32 3.92367 173.32Z" fill="white"/>
<path d="M22.7342 173.32C20.5735 173.32 18.8105 175.64 18.8105 178.483C18.8105 181.326 20.5735 183.646 22.7342 183.646C24.8949 183.646 26.6579 181.326 26.6579 178.483C26.6579 175.64 24.8949 173.32 22.7342 173.32Z" fill="white"/>
<path d="M41.5291 183.646C43.6961 183.646 45.4528 181.334 45.4528 178.483C45.4528 175.632 43.6961 173.32 41.5291 173.32C39.3622 173.32 37.6055 175.632 37.6055 178.483C37.6055 181.334 39.3622 183.646 41.5291 183.646Z" fill="white"/>
<path d="M60.326 173.32C58.1653 173.32 56.4023 175.64 56.4023 178.483C56.4023 181.326 58.1653 183.646 60.326 183.646C62.4867 183.646 64.2497 181.326 64.2497 178.483C64.2497 175.64 62.4867 173.32 60.326 173.32Z" fill="white"/>
<path d="M79.1366 173.32C76.9759 173.32 75.2129 175.64 75.2129 178.483C75.2129 181.326 76.9759 183.646 79.1366 183.646C81.2972 183.646 83.0602 181.326 83.0602 178.483C83.0602 175.64 81.2972 173.32 79.1366 173.32Z" fill="white"/>
<path d="M97.9334 183.646C100.1 183.646 101.857 181.334 101.857 178.483C101.857 175.632 100.1 173.32 97.9334 173.32C95.7664 173.32 94.0098 175.632 94.0098 178.483C94.0098 181.334 95.7664 183.646 97.9334 183.646Z" fill="white"/>
<path d="M116.728 173.32C114.568 173.32 112.805 175.64 112.805 178.483C112.805 181.326 114.568 183.646 116.728 183.646C118.889 183.646 120.652 181.326 120.652 178.483C120.652 175.64 118.889 173.32 116.728 173.32Z" fill="white"/>
<path d="M135.539 173.32C133.378 173.32 131.615 175.64 131.615 178.483C131.615 181.326 133.378 183.646 135.539 183.646C137.7 183.646 139.463 181.326 139.463 178.483C139.463 175.64 137.7 173.32 135.539 173.32Z" fill="white"/>
<path d="M154.336 173.32C152.162 173.32 150.412 175.64 150.412 178.483C150.412 181.326 152.162 183.646 154.336 183.646C156.51 183.646 158.259 181.326 158.259 178.483C158.259 175.64 156.496 173.32 154.336 173.32Z" fill="white"/>
<path d="M173.133 183.646C175.3 183.646 177.056 181.334 177.056 178.483C177.056 175.632 175.3 173.32 173.133 173.32C170.966 173.32 169.209 175.632 169.209 178.483C169.209 181.334 170.966 183.646 173.133 183.646Z" fill="white"/>
<path d="M191.941 183.646C194.108 183.646 195.865 181.334 195.865 178.483C195.865 175.632 194.108 173.32 191.941 173.32C189.774 173.32 188.018 175.632 188.018 178.483C188.018 181.334 189.774 183.646 191.941 183.646Z" fill="white"/>
<path d="M210.738 173.32C208.577 173.32 206.814 175.64 206.814 178.483C206.814 181.326 208.577 183.646 210.738 183.646C212.899 183.646 214.662 181.326 214.662 178.483C214.662 175.64 212.899 173.32 210.738 173.32Z" fill="white"/>
<path d="M229.535 173.32C227.374 173.32 225.611 175.64 225.611 178.483C225.611 181.326 227.374 183.646 229.535 183.646C231.696 183.646 233.459 181.326 233.459 178.483C233.459 175.64 231.696 173.32 229.535 173.32Z" fill="white"/>
<path d="M248.344 173.32C246.183 173.32 244.42 175.64 244.42 178.483C244.42 181.326 246.183 183.646 248.344 183.646C250.504 183.646 252.267 181.326 252.267 178.483C252.267 175.64 250.504 173.32 248.344 173.32Z" fill="white"/>
<path d="M267.14 183.646C269.314 183.646 271.064 181.326 271.064 178.483C271.064 175.64 269.301 173.32 267.14 173.32C264.98 173.32 263.217 175.64 263.217 178.483C263.217 181.326 264.98 183.646 267.14 183.646Z" fill="white"/>
<path d="M285.951 173.32C283.777 173.32 282.027 175.64 282.027 178.483C282.027 181.326 283.79 183.646 285.951 183.646C288.112 183.646 289.875 181.326 289.875 178.483C289.875 175.64 288.112 173.32 285.951 173.32Z" fill="white"/>
<path d="M304.746 173.32C302.585 173.32 300.822 175.64 300.822 178.483C300.822 181.326 302.585 183.646 304.746 183.646C306.907 183.646 308.67 181.326 308.67 178.483C308.67 175.64 306.907 173.32 304.746 173.32Z" fill="white"/>
<path d="M323.543 173.32C321.382 173.32 319.619 175.64 319.619 178.483C319.619 181.326 321.382 183.646 323.543 183.646C325.703 183.646 327.466 181.326 327.466 178.483C327.466 175.64 325.703 173.32 323.543 173.32Z" fill="white"/>
<path d="M342.353 173.32C340.193 173.32 338.43 175.64 338.43 178.483C338.43 181.326 340.193 183.646 342.353 183.646C344.514 183.646 346.277 181.326 346.277 178.483C346.277 175.64 344.514 173.32 342.353 173.32Z" fill="white"/>
<path d="M361.15 173.32C358.976 173.32 357.227 175.64 357.227 178.483C357.227 181.326 358.976 183.646 361.15 183.646C363.324 183.646 365.074 181.326 365.074 178.483C365.074 175.64 363.311 173.32 361.15 173.32Z" fill="white"/>
<path d="M379.945 183.646C382.112 183.646 383.869 181.334 383.869 178.483C383.869 175.632 382.112 173.32 379.945 173.32C377.778 173.32 376.021 175.632 376.021 178.483C376.021 181.334 377.778 183.646 379.945 183.646Z" fill="white"/>
<path d="M398.756 183.646C400.93 183.646 402.679 181.326 402.679 178.483C402.679 175.64 400.93 173.32 398.756 173.32C396.582 173.32 394.832 175.64 394.832 178.483C394.832 181.326 396.595 183.646 398.756 183.646Z" fill="white"/>
<path d="M417.553 183.646C419.72 183.646 421.476 181.334 421.476 178.483C421.476 175.632 419.72 173.32 417.553 173.32C415.386 173.32 413.629 175.632 413.629 178.483C413.629 181.334 415.386 183.646 417.553 183.646Z" fill="white"/>
<path d="M432.426 178.483C432.426 181.326 434.189 183.646 436.349 183.646C437.37 183.646 438.298 183.123 439.001 182.268V174.698C438.298 173.861 437.383 173.32 436.349 173.32C434.189 173.32 432.426 175.64 432.426 178.483Z" fill="white"/>
<path d="M3.92367 198.088C1.763 198.088 0 200.408 0 203.251C0 206.094 1.763 208.413 3.92367 208.413C6.08434 208.413 7.84733 206.094 7.84733 203.251C7.84733 200.408 6.08434 198.088 3.92367 198.088Z" fill="white"/>
<path d="M22.7342 198.088C20.5735 198.088 18.8105 200.408 18.8105 203.251C18.8105 206.094 20.5735 208.413 22.7342 208.413C24.8949 208.413 26.6579 206.094 26.6579 203.251C26.6579 200.408 24.8949 198.088 22.7342 198.088Z" fill="white"/>
<path d="M41.5291 198.088C39.3685 198.088 37.6055 200.408 37.6055 203.251C37.6055 206.094 39.3685 208.413 41.5291 208.413C43.6898 208.413 45.4528 206.094 45.4528 203.251C45.4528 200.408 43.6898 198.088 41.5291 198.088Z" fill="white"/>
<path d="M60.326 198.088C58.1653 198.088 56.4023 200.408 56.4023 203.251C56.4023 206.094 58.1653 208.413 60.326 208.413C62.4867 208.413 64.2497 206.094 64.2497 203.251C64.2497 200.408 62.4867 198.088 60.326 198.088Z" fill="white"/>
<path d="M79.1366 198.088C76.9759 198.088 75.2129 200.408 75.2129 203.251C75.2129 206.094 76.9759 208.413 79.1366 208.413C81.2972 208.413 83.0602 206.094 83.0602 203.251C83.0602 200.408 81.2972 198.088 79.1366 198.088Z" fill="white"/>
<path d="M97.9334 198.088C95.7728 198.088 94.0098 200.408 94.0098 203.251C94.0098 206.094 95.7728 208.413 97.9334 208.413C100.094 208.413 101.857 206.094 101.857 203.251C101.857 200.408 100.094 198.088 97.9334 198.088Z" fill="white"/>
<path d="M116.728 198.088C114.568 198.088 112.805 200.408 112.805 203.251C112.805 206.094 114.568 208.413 116.728 208.413C118.889 208.413 120.652 206.094 120.652 203.251C120.652 200.408 118.889 198.088 116.728 198.088Z" fill="white"/>
<path d="M135.539 198.088C133.378 198.088 131.615 200.408 131.615 203.251C131.615 206.094 133.378 208.413 135.539 208.413C137.7 208.413 139.463 206.094 139.463 203.251C139.463 200.408 137.7 198.088 135.539 198.088Z" fill="white"/>
<path d="M154.336 198.088C152.162 198.088 150.412 200.408 150.412 203.251C150.412 206.094 152.162 208.413 154.336 208.413C156.51 208.413 158.259 206.094 158.259 203.251C158.259 200.408 156.496 198.088 154.336 198.088Z" fill="white"/>
<path d="M173.133 198.088C170.959 198.088 169.209 200.408 169.209 203.251C169.209 206.094 170.972 208.413 173.133 208.413C175.293 208.413 177.056 206.094 177.056 203.251C177.056 200.408 175.293 198.088 173.133 198.088Z" fill="white"/>
<path d="M191.941 198.088C189.767 198.088 188.018 200.408 188.018 203.251C188.018 206.094 189.781 208.413 191.941 208.413C194.102 208.413 195.865 206.094 195.865 203.251C195.865 200.408 194.102 198.088 191.941 198.088Z" fill="white"/>
<path d="M210.738 198.088C208.577 198.088 206.814 200.408 206.814 203.251C206.814 206.094 208.577 208.413 210.738 208.413C212.899 208.413 214.662 206.094 214.662 203.251C214.662 200.408 212.899 198.088 210.738 198.088Z" fill="white"/>
<path d="M229.535 198.088C227.374 198.088 225.611 200.408 225.611 203.251C225.611 206.094 227.374 208.413 229.535 208.413C231.696 208.413 233.459 206.094 233.459 203.251C233.459 200.408 231.696 198.088 229.535 198.088Z" fill="white"/>
<path d="M248.344 198.088C246.183 198.088 244.42 200.408 244.42 203.251C244.42 206.094 246.183 208.413 248.344 208.413C250.504 208.413 252.267 206.094 252.267 203.251C252.267 200.408 250.504 198.088 248.344 198.088Z" fill="white"/>
<path d="M267.14 208.413C269.314 208.413 271.064 206.094 271.064 203.251C271.064 200.408 269.301 198.088 267.14 198.088C264.98 198.088 263.217 200.408 263.217 203.251C263.217 206.094 264.98 208.413 267.14 208.413Z" fill="white"/>
<path d="M285.951 198.088C283.777 198.088 282.027 200.408 282.027 203.251C282.027 206.094 283.79 208.413 285.951 208.413C288.112 208.413 289.875 206.094 289.875 203.251C289.875 200.408 288.112 198.088 285.951 198.088Z" fill="white"/>
<path d="M304.746 198.088C302.585 198.088 300.822 200.408 300.822 203.251C300.822 206.094 302.585 208.413 304.746 208.413C306.907 208.413 308.67 206.094 308.67 203.251C308.67 200.408 306.907 198.088 304.746 198.088Z" fill="white"/>
<path d="M323.543 198.088C321.382 198.088 319.619 200.408 319.619 203.251C319.619 206.094 321.382 208.413 323.543 208.413C325.703 208.413 327.466 206.094 327.466 203.251C327.466 200.408 325.703 198.088 323.543 198.088Z" fill="white"/>
<path d="M342.353 198.088C340.193 198.088 338.43 200.408 338.43 203.251C338.43 206.094 340.193 208.413 342.353 208.413C344.514 208.413 346.277 206.094 346.277 203.251C346.277 200.408 344.514 198.088 342.353 198.088Z" fill="white"/>
<path d="M361.15 198.088C358.976 198.088 357.227 200.408 357.227 203.251C357.227 206.094 358.976 208.413 361.15 208.413C363.324 208.413 365.074 206.094 365.074 203.251C365.074 200.408 363.311 198.088 361.15 198.088Z" fill="white"/>
<path d="M379.945 198.088C377.771 198.088 376.021 200.408 376.021 203.251C376.021 206.094 377.784 208.413 379.945 208.413C382.106 208.413 383.869 206.094 383.869 203.251C383.869 200.408 382.106 198.088 379.945 198.088Z" fill="white"/>
<path d="M398.756 208.413C400.93 208.413 402.679 206.094 402.679 203.251C402.679 200.408 400.93 198.088 398.756 198.088C396.582 198.088 394.832 200.408 394.832 203.251C394.832 206.094 396.595 208.413 398.756 208.413Z" fill="white"/>
<path d="M417.553 198.088C415.392 198.088 413.629 200.408 413.629 203.251C413.629 206.094 415.392 208.413 417.553 208.413C419.713 208.413 421.476 206.094 421.476 203.251C421.476 200.408 419.713 198.088 417.553 198.088Z" fill="white"/>
<path d="M432.426 203.251C432.426 206.094 434.189 208.413 436.349 208.413C437.37 208.413 438.298 207.89 439.001 207.036V199.466C438.298 198.629 437.383 198.088 436.349 198.088C434.189 198.088 432.426 200.408 432.426 203.251Z" fill="white"/>
<path d="M7.84653 228.001C7.84653 225.158 6.08353 222.838 3.92287 222.838C2.51777 222.838 1.29825 223.815 0.595703 225.28C1.1657 227.809 1.78871 230.303 2.46475 232.78C2.91544 233.024 3.4059 233.163 3.92287 233.163C6.08353 233.163 7.84653 230.844 7.84653 228.001Z" fill="white"/>
<path d="M22.7342 222.838C20.5735 222.838 18.8105 225.158 18.8105 228.001C18.8105 230.844 20.5735 233.163 22.7342 233.163C24.8949 233.163 26.6579 230.844 26.6579 228.001C26.6579 225.158 24.8949 222.838 22.7342 222.838Z" fill="white"/>
<path d="M41.5291 222.838C39.3685 222.838 37.6055 225.158 37.6055 228.001C37.6055 230.844 39.3685 233.163 41.5291 233.163C43.6898 233.163 45.4528 230.844 45.4528 228.001C45.4528 225.158 43.6898 222.838 41.5291 222.838Z" fill="white"/>
<path d="M60.326 222.838C58.1653 222.838 56.4023 225.158 56.4023 228.001C56.4023 230.844 58.1653 233.163 60.326 233.163C62.4867 233.163 64.2497 230.844 64.2497 228.001C64.2497 225.158 62.4867 222.838 60.326 222.838Z" fill="white"/>
<path d="M79.1366 222.838C76.9759 222.838 75.2129 225.158 75.2129 228.001C75.2129 230.844 76.9759 233.163 79.1366 233.163C81.2972 233.163 83.0602 230.844 83.0602 228.001C83.0602 225.158 81.2972 222.838 79.1366 222.838Z" fill="white"/>
<path d="M97.9334 222.838C95.7728 222.838 94.0098 225.158 94.0098 228.001C94.0098 230.844 95.7728 233.163 97.9334 233.163C100.094 233.163 101.857 230.844 101.857 228.001C101.857 225.158 100.094 222.838 97.9334 222.838Z" fill="white"/>
<path d="M116.728 222.838C114.568 222.838 112.805 225.158 112.805 228.001C112.805 230.844 114.568 233.163 116.728 233.163C118.889 233.163 120.652 230.844 120.652 228.001C120.652 225.158 118.889 222.838 116.728 222.838Z" fill="white"/>
<path d="M135.539 222.838C133.378 222.838 131.615 225.158 131.615 228.001C131.615 230.844 133.378 233.163 135.539 233.163C137.7 233.163 139.463 230.844 139.463 228.001C139.463 225.158 137.7 222.838 135.539 222.838Z" fill="white"/>
<path d="M154.336 222.838C152.162 222.838 150.412 225.158 150.412 228.001C150.412 230.844 152.162 233.163 154.336 233.163C156.51 233.163 158.259 230.844 158.259 228.001C158.259 225.158 156.496 222.838 154.336 222.838Z" fill="white"/>
<path d="M173.133 222.838C170.959 222.838 169.209 225.158 169.209 228.001C169.209 230.844 170.972 233.163 173.133 233.163C175.293 233.163 177.056 230.844 177.056 228.001C177.056 225.158 175.293 222.838 173.133 222.838Z" fill="white"/>
<path d="M191.941 222.838C189.767 222.838 188.018 225.158 188.018 228.001C188.018 230.844 189.781 233.163 191.941 233.163C194.102 233.163 195.865 230.844 195.865 228.001C195.865 225.158 194.102 222.838 191.941 222.838Z" fill="white"/>
<path d="M210.738 222.838C208.577 222.838 206.814 225.158 206.814 228.001C206.814 230.844 208.577 233.163 210.738 233.163C212.899 233.163 214.662 230.844 214.662 228.001C214.662 225.158 212.899 222.838 210.738 222.838Z" fill="white"/>
<path d="M229.535 222.838C227.374 222.838 225.611 225.158 225.611 228.001C225.611 230.844 227.374 233.163 229.535 233.163C231.696 233.163 233.459 230.844 233.459 228.001C233.459 225.158 231.696 222.838 229.535 222.838Z" fill="white"/>
<path d="M248.344 222.838C246.183 222.838 244.42 225.158 244.42 228.001C244.42 230.844 246.183 233.163 248.344 233.163C250.504 233.163 252.267 230.844 252.267 228.001C252.267 225.158 250.504 222.838 248.344 222.838Z" fill="white"/>
<path d="M267.14 233.163C269.314 233.163 271.064 230.844 271.064 228.001C271.064 225.158 269.301 222.838 267.14 222.838C264.98 222.838 263.217 225.158 263.217 228.001C263.217 230.844 264.98 233.163 267.14 233.163Z" fill="white"/>
<path d="M285.951 233.163C288.125 233.163 289.875 230.844 289.875 228.001C289.875 225.158 288.112 222.838 285.951 222.838C283.79 222.838 282.027 225.158 282.027 228.001C282.027 230.844 283.777 233.163 285.951 233.163Z" fill="white"/>
<path d="M304.746 222.838C302.585 222.838 300.822 225.158 300.822 228.001C300.822 230.844 302.585 233.163 304.746 233.163C306.907 233.163 308.67 230.844 308.67 228.001C308.67 225.158 306.907 222.838 304.746 222.838Z" fill="white"/>
<path d="M323.543 222.838C321.382 222.838 319.619 225.158 319.619 228.001C319.619 230.844 321.382 233.163 323.543 233.163C325.703 233.163 327.466 230.844 327.466 228.001C327.466 225.158 325.703 222.838 323.543 222.838Z" fill="white"/>
<path d="M342.353 222.838C340.193 222.838 338.43 225.158 338.43 228.001C338.43 230.844 340.193 233.163 342.353 233.163C344.514 233.163 346.277 230.844 346.277 228.001C346.277 225.158 344.514 222.838 342.353 222.838Z" fill="white"/>
<path d="M361.15 233.163C363.324 233.163 365.074 230.844 365.074 228.001C365.074 225.158 363.324 222.838 361.15 222.838C358.976 222.838 357.227 225.158 357.227 228.001C357.227 230.844 358.99 233.163 361.15 233.163Z" fill="white"/>
<path d="M379.945 222.838C377.771 222.838 376.021 225.158 376.021 228.001C376.021 230.844 377.784 233.163 379.945 233.163C382.106 233.163 383.869 230.844 383.869 228.001C383.869 225.158 382.106 222.838 379.945 222.838Z" fill="white"/>
<path d="M398.756 222.838C396.582 222.838 394.832 225.158 394.832 228.001C394.832 230.844 396.582 233.163 398.756 233.163C400.93 233.163 402.679 230.844 402.679 228.001C402.679 225.158 400.916 222.838 398.756 222.838Z" fill="white"/>
<path d="M417.553 222.838C415.392 222.838 413.629 225.158 413.629 228.001C413.629 230.844 415.392 233.163 417.553 233.163C419.713 233.163 421.476 230.844 421.476 228.001C421.476 225.158 419.713 222.838 417.553 222.838Z" fill="white"/>
<path d="M432.426 228.001C432.426 230.861 434.189 233.163 436.349 233.163C437.37 233.163 438.298 232.64 439.001 231.786V224.216C438.298 223.379 437.383 222.838 436.349 222.838C434.189 222.838 432.426 225.158 432.426 228.001Z" fill="white"/>
<path d="M22.7342 247.605C20.5735 247.605 18.8105 249.925 18.8105 252.768C18.8105 255.611 20.5735 257.931 22.7342 257.931C24.8949 257.931 26.6579 255.611 26.6579 252.768C26.6579 249.925 24.8949 247.605 22.7342 247.605Z" fill="white"/>
<path d="M41.5291 247.605C39.3685 247.605 37.6055 249.925 37.6055 252.768C37.6055 255.611 39.3685 257.931 41.5291 257.931C43.6898 257.931 45.4528 255.611 45.4528 252.768C45.4528 249.925 43.6898 247.605 41.5291 247.605Z" fill="white"/>
<path d="M60.326 247.605C58.1653 247.605 56.4023 249.925 56.4023 252.768C56.4023 255.611 58.1653 257.931 60.326 257.931C62.4867 257.931 64.2497 255.611 64.2497 252.768C64.2497 249.925 62.4867 247.605 60.326 247.605Z" fill="white"/>
<path d="M79.1366 247.605C76.9759 247.605 75.2129 249.925 75.2129 252.768C75.2129 255.611 76.9759 257.931 79.1366 257.931C81.2972 257.931 83.0602 255.611 83.0602 252.768C83.0602 249.925 81.2972 247.605 79.1366 247.605Z" fill="white"/>
<path d="M97.9334 247.605C95.7728 247.605 94.0098 249.925 94.0098 252.768C94.0098 255.611 95.7728 257.931 97.9334 257.931C100.094 257.931 101.857 255.611 101.857 252.768C101.857 249.925 100.094 247.605 97.9334 247.605Z" fill="white"/>
<path d="M116.728 247.605C114.568 247.605 112.805 249.925 112.805 252.768C112.805 255.611 114.568 257.931 116.728 257.931C118.889 257.931 120.652 255.611 120.652 252.768C120.652 249.925 118.889 247.605 116.728 247.605Z" fill="white"/>
<path d="M135.539 247.605C133.378 247.605 131.615 249.925 131.615 252.768C131.615 255.611 133.378 257.931 135.539 257.931C137.7 257.931 139.463 255.611 139.463 252.768C139.463 249.925 137.7 247.605 135.539 247.605Z" fill="white"/>
<path d="M154.336 247.605C152.162 247.605 150.412 249.925 150.412 252.768C150.412 255.611 152.162 257.931 154.336 257.931C156.51 257.931 158.259 255.611 158.259 252.768C158.259 249.925 156.496 247.605 154.336 247.605Z" fill="white"/>
<path d="M173.133 247.605C170.959 247.605 169.209 249.925 169.209 252.768C169.209 255.611 170.972 257.931 173.133 257.931C175.293 257.931 177.056 255.611 177.056 252.768C177.056 249.925 175.293 247.605 173.133 247.605Z" fill="white"/>
<path d="M191.941 247.605C189.767 247.605 188.018 249.925 188.018 252.768C188.018 255.611 189.781 257.931 191.941 257.931C194.102 257.931 195.865 255.611 195.865 252.768C195.865 249.925 194.102 247.605 191.941 247.605Z" fill="white"/>
<path d="M210.738 247.605C208.577 247.605 206.814 249.925 206.814 252.768C206.814 255.611 208.577 257.931 210.738 257.931C212.899 257.931 214.662 255.611 214.662 252.768C214.662 249.925 212.899 247.605 210.738 247.605Z" fill="white"/>
<path d="M229.535 247.605C227.374 247.605 225.611 249.925 225.611 252.768C225.611 255.611 227.374 257.931 229.535 257.931C231.696 257.931 233.459 255.611 233.459 252.768C233.459 249.925 231.696 247.605 229.535 247.605Z" fill="white"/>
<path d="M248.344 247.605C246.183 247.605 244.42 249.925 244.42 252.768C244.42 255.611 246.183 257.931 248.344 257.931C250.504 257.931 252.267 255.611 252.267 252.768C252.267 249.925 250.504 247.605 248.344 247.605Z" fill="white"/>
<path d="M267.14 257.931C269.314 257.931 271.064 255.611 271.064 252.768C271.064 249.925 269.301 247.605 267.14 247.605C264.98 247.605 263.217 249.925 263.217 252.768C263.217 255.611 264.98 257.931 267.14 257.931Z" fill="white"/>
<path d="M285.951 247.605C283.777 247.605 282.027 249.925 282.027 252.768C282.027 255.611 283.79 257.931 285.951 257.931C288.112 257.931 289.875 255.611 289.875 252.768C289.875 249.925 288.112 247.605 285.951 247.605Z" fill="white"/>
<path d="M304.746 247.605C302.585 247.605 300.822 249.925 300.822 252.768C300.822 255.611 302.585 257.931 304.746 257.931C306.907 257.931 308.67 255.611 308.67 252.768C308.67 249.925 306.907 247.605 304.746 247.605Z" fill="white"/>
<path d="M323.543 247.605C321.382 247.605 319.619 249.925 319.619 252.768C319.619 255.611 321.382 257.931 323.543 257.931C325.703 257.931 327.466 255.611 327.466 252.768C327.466 249.925 325.703 247.605 323.543 247.605Z" fill="white"/>
<path d="M342.353 247.605C340.193 247.605 338.43 249.925 338.43 252.768C338.43 255.611 340.193 257.931 342.353 257.931C344.514 257.931 346.277 255.611 346.277 252.768C346.277 249.925 344.514 247.605 342.353 247.605Z" fill="white"/>
<path d="M361.15 247.605C358.976 247.605 357.227 249.925 357.227 252.768C357.227 255.611 358.976 257.931 361.15 257.931C363.324 257.931 365.074 255.611 365.074 252.768C365.074 249.925 363.311 247.605 361.15 247.605Z" fill="white"/>
<path d="M379.945 247.605C377.771 247.605 376.021 249.925 376.021 252.768C376.021 255.611 377.784 257.931 379.945 257.931C382.106 257.931 383.869 255.611 383.869 252.768C383.869 249.925 382.106 247.605 379.945 247.605Z" fill="white"/>
<path d="M398.756 257.931C400.93 257.931 402.679 255.611 402.679 252.768C402.679 249.925 400.93 247.605 398.756 247.605C396.582 247.605 394.832 249.925 394.832 252.768C394.832 255.611 396.595 257.931 398.756 257.931Z" fill="white"/>
<path d="M417.553 247.605C415.392 247.605 413.629 249.925 413.629 252.768C413.629 255.611 415.392 257.931 417.553 257.931C419.713 257.931 421.476 255.611 421.476 252.768C421.476 249.925 419.713 247.605 417.553 247.605Z" fill="white"/>
<path d="M432.426 252.768C432.426 255.611 434.189 257.931 436.349 257.931C437.37 257.931 438.298 257.408 439.001 256.553V248.983C438.298 248.146 437.383 247.605 436.349 247.605C434.189 247.605 432.426 249.925 432.426 252.768Z" fill="white"/>
<path d="M26.6566 277.518C26.6566 274.658 24.8936 272.355 22.7329 272.355C21.6459 272.355 20.665 272.949 19.9492 273.89C21.5797 276.559 23.2764 279.158 25.0394 281.687C26.007 280.745 26.6566 279.245 26.6566 277.536V277.518Z" fill="white"/>
<path d="M41.5291 272.355C39.3685 272.355 37.6055 274.658 37.6055 277.518C37.6055 280.379 39.3685 282.681 41.5291 282.681C43.6898 282.681 45.4528 280.361 45.4528 277.518C45.4528 274.675 43.6898 272.355 41.5291 272.355Z" fill="white"/>
<path d="M60.326 272.355C58.1653 272.355 56.4023 274.658 56.4023 277.518C56.4023 280.379 58.1653 282.681 60.326 282.681C62.4867 282.681 64.2497 280.361 64.2497 277.518C64.2497 274.675 62.4867 272.355 60.326 272.355Z" fill="white"/>
<path d="M79.1366 272.355C76.9759 272.355 75.2129 274.658 75.2129 277.518C75.2129 280.379 76.9759 282.681 79.1366 282.681C81.2972 282.681 83.0602 280.361 83.0602 277.518C83.0602 274.675 81.2972 272.355 79.1366 272.355Z" fill="white"/>
<path d="M97.9334 272.355C95.7728 272.355 94.0098 274.658 94.0098 277.518C94.0098 280.379 95.7728 282.681 97.9334 282.681C100.094 282.681 101.857 280.361 101.857 277.518C101.857 274.675 100.094 272.355 97.9334 272.355Z" fill="white"/>
<path d="M116.728 272.355C114.568 272.355 112.805 274.658 112.805 277.518C112.805 280.379 114.568 282.681 116.728 282.681C118.889 282.681 120.652 280.361 120.652 277.518C120.652 274.675 118.889 272.355 116.728 272.355Z" fill="white"/>
<path d="M135.539 272.355C133.378 272.355 131.615 274.658 131.615 277.518C131.615 280.379 133.378 282.681 135.539 282.681C137.7 282.681 139.463 280.361 139.463 277.518C139.463 274.675 137.7 272.355 135.539 272.355Z" fill="white"/>
<path d="M154.336 272.355C152.162 272.355 150.412 274.658 150.412 277.518C150.412 280.379 152.162 282.681 154.336 282.681C156.51 282.681 158.259 280.361 158.259 277.518C158.259 274.675 156.496 272.355 154.336 272.355Z" fill="white"/>
<path d="M173.133 272.355C170.959 272.355 169.209 274.658 169.209 277.518C169.209 280.379 170.972 282.681 173.133 282.681C175.293 282.681 177.056 280.361 177.056 277.518C177.056 274.675 175.293 272.355 173.133 272.355Z" fill="white"/>
<path d="M191.941 272.355C189.767 272.355 188.018 274.658 188.018 277.518C188.018 280.379 189.781 282.681 191.941 282.681C194.102 282.681 195.865 280.361 195.865 277.518C195.865 274.675 194.102 272.355 191.941 272.355Z" fill="white"/>
<path d="M210.738 272.355C208.577 272.355 206.814 274.658 206.814 277.518C206.814 280.379 208.577 282.681 210.738 282.681C212.899 282.681 214.662 280.361 214.662 277.518C214.662 274.675 212.899 272.355 210.738 272.355Z" fill="white"/>
<path d="M229.535 272.355C227.374 272.355 225.611 274.658 225.611 277.518C225.611 280.379 227.374 282.681 229.535 282.681C231.696 282.681 233.459 280.361 233.459 277.518C233.459 274.675 231.696 272.355 229.535 272.355Z" fill="white"/>
<path d="M248.344 272.355C246.183 272.355 244.42 274.658 244.42 277.518C244.42 280.379 246.183 282.681 248.344 282.681C250.504 282.681 252.267 280.361 252.267 277.518C252.267 274.675 250.504 272.355 248.344 272.355Z" fill="white"/>
<path d="M267.14 282.681C269.314 282.681 271.064 280.361 271.064 277.518C271.064 274.675 269.301 272.355 267.14 272.355C264.98 272.355 263.217 274.658 263.217 277.518C263.217 280.379 264.98 282.681 267.14 282.681Z" fill="white"/>
<path d="M285.951 282.681C288.125 282.681 289.875 280.361 289.875 277.518C289.875 274.675 288.112 272.355 285.951 272.355C283.79 272.355 282.027 274.658 282.027 277.518C282.027 280.379 283.777 282.681 285.951 282.681Z" fill="white"/>
<path d="M304.746 272.355C302.585 272.355 300.822 274.658 300.822 277.518C300.822 280.379 302.585 282.681 304.746 282.681C306.907 282.681 308.67 280.361 308.67 277.518C308.67 274.675 306.907 272.355 304.746 272.355Z" fill="white"/>
<path d="M323.543 272.355C321.382 272.355 319.619 274.658 319.619 277.518C319.619 280.379 321.382 282.681 323.543 282.681C325.703 282.681 327.466 280.361 327.466 277.518C327.466 274.675 325.703 272.355 323.543 272.355Z" fill="white"/>
<path d="M342.353 272.355C340.193 272.355 338.43 274.658 338.43 277.518C338.43 280.379 340.193 282.681 342.353 282.681C344.514 282.681 346.277 280.361 346.277 277.518C346.277 274.675 344.514 272.355 342.353 272.355Z" fill="white"/>
<path d="M361.15 272.355C358.976 272.355 357.227 274.658 357.227 277.518C357.227 280.379 358.976 282.681 361.15 282.681C363.324 282.681 365.074 280.361 365.074 277.518C365.074 274.675 363.311 272.355 361.15 272.355Z" fill="white"/>
<path d="M379.945 272.355C377.771 272.355 376.021 274.658 376.021 277.518C376.021 280.379 377.784 282.681 379.945 282.681C382.106 282.681 383.869 280.361 383.869 277.518C383.869 274.675 382.106 272.355 379.945 272.355Z" fill="white"/>
<path d="M398.756 282.681C400.93 282.681 402.679 280.361 402.679 277.518C402.679 274.675 400.93 272.355 398.756 272.355C396.582 272.355 394.832 274.658 394.832 277.518C394.832 280.379 396.595 282.681 398.756 282.681Z" fill="white"/>
<path d="M417.553 272.355C415.392 272.355 413.629 274.658 413.629 277.518C413.629 280.379 415.392 282.681 417.553 282.681C419.713 282.681 421.476 280.361 421.476 277.518C421.476 274.675 419.713 272.355 417.553 272.355Z" fill="white"/>
<path d="M432.426 277.518C432.426 280.361 434.189 282.681 436.349 282.681C437.37 282.681 438.298 282.158 439.001 281.303V273.733C438.298 272.896 437.383 272.355 436.349 272.355C434.189 272.355 432.426 274.658 432.426 277.518Z" fill="white"/>
<path d="M41.5307 297.123C40.5763 297.123 39.7014 297.594 39.0254 298.344C41.027 300.332 43.0816 302.251 45.2025 304.065C45.3616 303.507 45.4544 302.914 45.4544 302.268C45.4544 299.408 43.6914 297.105 41.5307 297.105V297.123Z" fill="white"/>
<path d="M60.326 297.123C58.1653 297.123 56.4023 299.443 56.4023 302.286C56.4023 305.129 58.1653 307.449 60.326 307.449C62.4867 307.449 64.2497 305.129 64.2497 302.286C64.2497 299.443 62.4867 297.123 60.326 297.123Z" fill="white"/>
<path d="M79.1366 297.123C76.9759 297.123 75.2129 299.443 75.2129 302.286C75.2129 305.129 76.9759 307.449 79.1366 307.449C81.2972 307.449 83.0602 305.129 83.0602 302.286C83.0602 299.443 81.2972 297.123 79.1366 297.123Z" fill="white"/>
<path d="M97.9334 307.449C100.1 307.449 101.857 305.137 101.857 302.286C101.857 299.434 100.1 297.123 97.9334 297.123C95.7664 297.123 94.0098 299.434 94.0098 302.286C94.0098 305.137 95.7664 307.449 97.9334 307.449Z" fill="white"/>
<path d="M116.728 297.123C114.568 297.123 112.805 299.443 112.805 302.286C112.805 305.129 114.568 307.449 116.728 307.449C118.889 307.449 120.652 305.129 120.652 302.286C120.652 299.443 118.889 297.123 116.728 297.123Z" fill="white"/>
<path d="M135.539 297.123C133.378 297.123 131.615 299.443 131.615 302.286C131.615 305.129 133.378 307.449 135.539 307.449C137.7 307.449 139.463 305.129 139.463 302.286C139.463 299.443 137.7 297.123 135.539 297.123Z" fill="white"/>
<path d="M154.336 297.123C152.162 297.123 150.412 299.443 150.412 302.286C150.412 305.129 152.162 307.449 154.336 307.449C156.51 307.449 158.259 305.129 158.259 302.286C158.259 299.443 156.496 297.123 154.336 297.123Z" fill="white"/>
<path d="M173.133 307.449C175.3 307.449 177.056 305.137 177.056 302.286C177.056 299.434 175.3 297.123 173.133 297.123C170.966 297.123 169.209 299.434 169.209 302.286C169.209 305.137 170.966 307.449 173.133 307.449Z" fill="white"/>
<path d="M191.941 307.449C194.108 307.449 195.865 305.137 195.865 302.286C195.865 299.434 194.108 297.123 191.941 297.123C189.774 297.123 188.018 299.434 188.018 302.286C188.018 305.137 189.774 307.449 191.941 307.449Z" fill="white"/>
<path d="M210.738 297.123C208.577 297.123 206.814 299.443 206.814 302.286C206.814 305.129 208.577 307.449 210.738 307.449C212.899 307.449 214.662 305.129 214.662 302.286C214.662 299.443 212.899 297.123 210.738 297.123Z" fill="white"/>
<path d="M229.535 297.123C227.374 297.123 225.611 299.443 225.611 302.286C225.611 305.129 227.374 307.449 229.535 307.449C231.696 307.449 233.459 305.129 233.459 302.286C233.459 299.443 231.696 297.123 229.535 297.123Z" fill="white"/>
<path d="M248.344 297.123C246.183 297.123 244.42 299.443 244.42 302.286C244.42 305.129 246.183 307.449 248.344 307.449C250.504 307.449 252.267 305.129 252.267 302.286C252.267 299.443 250.504 297.123 248.344 297.123Z" fill="white"/>
<path d="M267.14 307.449C269.314 307.449 271.064 305.129 271.064 302.286C271.064 299.443 269.301 297.123 267.14 297.123C264.98 297.123 263.217 299.443 263.217 302.286C263.217 305.129 264.98 307.449 267.14 307.449Z" fill="white"/>
<path d="M285.951 307.449C288.125 307.449 289.875 305.129 289.875 302.286C289.875 299.443 288.112 297.123 285.951 297.123C283.79 297.123 282.027 299.443 282.027 302.286C282.027 305.129 283.777 307.449 285.951 307.449Z" fill="white"/>
<path d="M304.746 297.123C302.585 297.123 300.822 299.443 300.822 302.286C300.822 305.129 302.585 307.449 304.746 307.449C306.907 307.449 308.67 305.129 308.67 302.286C308.67 299.443 306.907 297.123 304.746 297.123Z" fill="white"/>
<path d="M323.543 297.123C321.382 297.123 319.619 299.443 319.619 302.286C319.619 305.129 321.382 307.449 323.543 307.449C325.703 307.449 327.466 305.129 327.466 302.286C327.466 299.443 325.703 297.123 323.543 297.123Z" fill="white"/>
<path d="M342.353 297.123C340.193 297.123 338.43 299.443 338.43 302.286C338.43 305.129 340.193 307.449 342.353 307.449C344.514 307.449 346.277 305.129 346.277 302.286C346.277 299.443 344.514 297.123 342.353 297.123Z" fill="white"/>
<path d="M361.15 297.123C358.976 297.123 357.227 299.443 357.227 302.286C357.227 305.129 358.976 307.449 361.15 307.449C363.324 307.449 365.074 305.129 365.074 302.286C365.074 299.443 363.311 297.123 361.15 297.123Z" fill="white"/>
<path d="M379.945 307.449C382.112 307.449 383.869 305.137 383.869 302.286C383.869 299.434 382.112 297.123 379.945 297.123C377.778 297.123 376.021 299.434 376.021 302.286C376.021 305.137 377.778 307.449 379.945 307.449Z" fill="white"/>
<path d="M398.756 297.123C396.582 297.123 394.832 299.443 394.832 302.286C394.832 305.129 396.582 307.449 398.756 307.449C400.93 307.449 402.679 305.129 402.679 302.286C402.679 299.443 400.916 297.123 398.756 297.123Z" fill="white"/>
<path d="M417.553 307.449C419.72 307.449 421.476 305.137 421.476 302.286C421.476 299.434 419.72 297.123 417.553 297.123C415.386 297.123 413.629 299.434 413.629 302.286C413.629 305.137 415.386 307.449 417.553 307.449Z" fill="white"/>
<path d="M432.426 302.286C432.426 305.146 434.189 307.448 436.349 307.448C437.37 307.448 438.298 306.925 439.001 306.071V298.483C438.298 297.646 437.383 297.105 436.349 297.105C434.189 297.105 432.426 299.425 432.426 302.268V302.286Z" fill="white"/>
<path d="M79.1358 321.889C78.367 321.889 77.6644 322.185 77.0547 322.691C78.8575 323.319 80.6602 323.86 82.463 324.365C81.7737 322.883 80.5409 321.906 79.1358 321.906V321.889Z" fill="white"/>
<path d="M97.9323 321.89C95.8644 321.89 94.181 324.018 94.0352 326.687C96.6465 327.018 99.2446 327.228 101.829 327.315C101.829 327.228 101.856 327.14 101.856 327.036C101.856 324.193 100.093 321.873 97.9323 321.873V321.89Z" fill="white"/>
<path d="M116.729 321.89C114.581 321.89 112.858 324.158 112.818 326.949C115.403 326.687 117.975 326.303 120.533 325.797C120.109 323.547 118.571 321.873 116.742 321.873L116.729 321.89Z" fill="white"/>
<path d="M195.865 327.052C195.865 324.208 194.102 321.889 191.941 321.889C189.781 321.889 188.018 324.208 188.018 327.052C188.018 327.627 188.11 328.185 188.243 328.708C189.502 329.79 190.788 330.958 192.114 332.197C194.195 332.075 195.865 329.825 195.865 327.052Z" fill="white"/>
<path d="M210.738 321.889C208.577 321.889 206.814 324.208 206.814 327.052C206.814 329.895 208.577 332.214 210.738 332.214C212.899 332.214 214.662 329.895 214.662 327.052C214.662 324.208 212.899 321.889 210.738 321.889Z" fill="white"/>
<path d="M229.535 321.889C227.374 321.889 225.611 324.208 225.611 327.052C225.611 329.895 227.374 332.214 229.535 332.214C231.696 332.214 233.459 329.895 233.459 327.052C233.459 324.208 231.696 321.889 229.535 321.889Z" fill="white"/>
<path d="M248.344 321.889C246.183 321.889 244.42 324.208 244.42 327.052C244.42 329.895 246.183 332.214 248.344 332.214C250.504 332.214 252.267 329.895 252.267 327.052C252.267 324.208 250.504 321.889 248.344 321.889Z" fill="white"/>
<path d="M267.14 321.889C264.967 321.889 263.217 324.208 263.217 327.052C263.217 329.895 264.98 332.214 267.14 332.214C269.301 332.214 271.064 329.895 271.064 327.052C271.064 324.208 269.301 321.889 267.14 321.889Z" fill="white"/>
<path d="M285.951 321.889C283.777 321.889 282.027 324.208 282.027 327.052C282.027 329.895 283.79 332.214 285.951 332.214C288.112 332.214 289.875 329.895 289.875 327.052C289.875 324.208 288.112 321.889 285.951 321.889Z" fill="white"/>
<path d="M304.746 321.889C302.585 321.889 300.822 324.208 300.822 327.052C300.822 329.895 302.585 332.214 304.746 332.214C306.907 332.214 308.67 329.895 308.67 327.052C308.67 324.208 306.907 321.889 304.746 321.889Z" fill="white"/>
<path d="M323.543 321.889C321.382 321.889 319.619 324.208 319.619 327.052C319.619 329.895 321.382 332.214 323.543 332.214C325.703 332.214 327.466 329.895 327.466 327.052C327.466 324.208 325.703 321.889 323.543 321.889Z" fill="white"/>
<path d="M342.353 321.889C340.193 321.889 338.43 324.208 338.43 327.052C338.43 329.895 340.193 332.214 342.353 332.214C344.514 332.214 346.277 329.895 346.277 327.052C346.277 324.208 344.514 321.889 342.353 321.889Z" fill="white"/>
<path d="M361.15 332.214C363.324 332.214 365.074 329.895 365.074 327.052C365.074 324.208 363.324 321.889 361.15 321.889C358.976 321.889 357.227 324.208 357.227 327.052C357.227 329.895 358.99 332.214 361.15 332.214Z" fill="white"/>
<path d="M379.945 321.889C377.771 321.889 376.021 324.208 376.021 327.052C376.021 329.895 377.784 332.214 379.945 332.214C382.106 332.214 383.869 329.895 383.869 327.052C383.869 324.208 382.106 321.889 379.945 321.889Z" fill="white"/>
<path d="M398.756 321.889C396.582 321.889 394.832 324.208 394.832 327.052C394.832 329.895 396.595 332.214 398.756 332.214C400.916 332.214 402.679 329.895 402.679 327.052C402.679 324.208 400.93 321.889 398.756 321.889Z" fill="white"/>
<path d="M417.553 321.889C415.392 321.889 413.629 324.208 413.629 327.052C413.629 329.895 415.392 332.214 417.553 332.214C419.713 332.214 421.476 329.895 421.476 327.052C421.476 324.208 419.713 321.889 417.553 321.889Z" fill="white"/>
<path d="M432.426 327.052C432.426 329.895 434.189 332.214 436.349 332.214C437.37 332.214 438.298 331.691 439.001 330.836V323.267C438.298 322.429 437.383 321.889 436.349 321.889C434.189 321.889 432.426 324.208 432.426 327.052Z" fill="white"/>
<path d="M210.738 346.639C209.678 346.639 208.71 347.197 207.994 348.104C210.062 350.11 212.183 352.011 214.344 353.807C214.542 353.197 214.648 352.517 214.648 351.802C214.648 348.941 212.885 346.639 210.725 346.639H210.738Z" fill="white"/>
<path d="M229.535 346.639C227.374 346.639 225.611 348.958 225.611 351.802C225.611 354.645 227.374 356.964 229.535 356.964C231.696 356.964 233.459 354.645 233.459 351.802C233.459 348.958 231.696 346.639 229.535 346.639Z" fill="white"/>
<path d="M248.344 346.639C246.183 346.639 244.42 348.958 244.42 351.802C244.42 354.645 246.183 356.964 248.344 356.964C250.504 356.964 252.267 354.645 252.267 351.802C252.267 348.958 250.504 346.639 248.344 346.639Z" fill="white"/>
<path d="M267.14 346.639C264.98 346.639 263.217 348.958 263.217 351.802C263.217 354.645 264.98 356.964 267.14 356.964C269.301 356.964 271.064 354.645 271.064 351.802C271.064 348.958 269.301 346.639 267.14 346.639Z" fill="white"/>
<path d="M285.951 346.639C283.777 346.639 282.027 348.958 282.027 351.802C282.027 354.645 283.79 356.964 285.951 356.964C288.112 356.964 289.875 354.645 289.875 351.802C289.875 348.958 288.112 346.639 285.951 346.639Z" fill="white"/>
<path d="M304.746 346.639C302.585 346.639 300.822 348.958 300.822 351.802C300.822 354.645 302.585 356.964 304.746 356.964C306.907 356.964 308.67 354.645 308.67 351.802C308.67 348.958 306.907 346.639 304.746 346.639Z" fill="white"/>
<path d="M323.543 346.639C321.382 346.639 319.619 348.958 319.619 351.802C319.619 354.645 321.382 356.964 323.543 356.964C325.703 356.964 327.466 354.645 327.466 351.802C327.466 348.958 325.703 346.639 323.543 346.639Z" fill="white"/>
<path d="M342.353 346.639C340.193 346.639 338.43 348.958 338.43 351.802C338.43 354.645 340.193 356.964 342.353 356.964C344.514 356.964 346.277 354.645 346.277 351.802C346.277 348.958 344.514 346.639 342.353 346.639Z" fill="white"/>
<path d="M361.15 346.639C358.976 346.639 357.227 348.958 357.227 351.802C357.227 354.645 358.976 356.964 361.15 356.964C363.324 356.964 365.074 354.645 365.074 351.802C365.074 348.958 363.311 346.639 361.15 346.639Z" fill="white"/>
<path d="M379.945 356.964C382.112 356.964 383.869 354.653 383.869 351.802C383.869 348.95 382.112 346.639 379.945 346.639C377.778 346.639 376.021 348.95 376.021 351.802C376.021 354.653 377.778 356.964 379.945 356.964Z" fill="white"/>
<path d="M398.756 346.639C396.582 346.639 394.832 348.958 394.832 351.802C394.832 354.645 396.595 356.964 398.756 356.964C400.916 356.964 402.679 354.645 402.679 351.802C402.679 348.958 400.93 346.639 398.756 346.639Z" fill="white"/>
<path d="M417.553 356.964C419.72 356.964 421.476 354.653 421.476 351.802C421.476 348.95 419.72 346.639 417.553 346.639C415.386 346.639 413.629 348.95 413.629 351.802C413.629 354.653 415.386 356.964 417.553 356.964Z" fill="white"/>
<path d="M432.426 351.802C432.426 354.645 434.189 356.964 436.349 356.964C437.37 356.964 438.298 356.441 439.001 355.586V348.017C438.298 347.179 437.383 346.639 436.349 346.639C434.189 346.639 432.426 348.958 432.426 351.802Z" fill="white"/>
<path d="M248.345 371.406C247.815 371.406 247.298 371.546 246.834 371.807C248.292 372.261 249.737 372.697 251.208 373.081C250.493 372.069 249.472 371.424 248.332 371.424L248.345 371.406Z" fill="white"/>
<path d="M267.141 371.406C265.311 371.406 263.787 373.063 263.35 375.278C265.881 375.557 268.44 375.714 270.998 375.749C270.693 373.29 269.089 371.406 267.141 371.406Z" fill="white"/>
<path d="M285.951 371.406C284.161 371.406 282.663 372.993 282.199 375.156C284.572 374.86 286.958 374.476 289.331 373.97C288.655 372.435 287.395 371.406 285.964 371.406H285.951Z" fill="white"/>
<path d="M362.594 371.773C363.217 372.419 363.827 373.099 364.45 373.797C364.012 372.89 363.363 372.175 362.594 371.773Z" fill="white"/>
<path d="M379.945 371.406C377.771 371.406 376.021 373.726 376.021 376.569C376.021 379.412 377.784 381.732 379.945 381.732C382.106 381.732 383.869 379.429 383.869 376.569C383.869 373.709 382.106 371.406 379.945 371.406Z" fill="white"/>
<path d="M398.756 371.406C396.582 371.406 394.832 373.726 394.832 376.569C394.832 379.412 396.595 381.732 398.756 381.732C400.916 381.732 402.679 379.429 402.679 376.569C402.679 373.709 400.93 371.406 398.756 371.406Z" fill="white"/>
<path d="M417.553 371.406C415.392 371.406 413.629 373.726 413.629 376.569C413.629 379.412 415.392 381.732 417.553 381.732C419.713 381.732 421.476 379.429 421.476 376.569C421.476 373.709 419.713 371.406 417.553 371.406Z" fill="white"/>
<path d="M432.426 376.569C432.426 379.429 434.189 381.732 436.349 381.732C437.37 381.732 438.298 381.208 439.001 380.354V372.767C438.298 371.929 437.383 371.389 436.349 371.389C434.189 371.389 432.426 373.708 432.426 376.551V376.569Z" fill="white"/>
<path d="M379.946 396.156C379.946 396.156 379.866 396.156 379.84 396.156C380.436 397.185 381.046 398.232 381.656 399.313C382.319 400.482 382.995 401.65 383.684 402.801C383.79 402.331 383.87 401.825 383.87 401.301C383.87 398.458 382.107 396.139 379.946 396.139V396.156Z" fill="white"/>
<path d="M398.756 396.156C396.582 396.156 394.832 398.476 394.832 401.319C394.832 404.162 396.595 406.482 398.756 406.482C400.916 406.482 402.679 404.162 402.679 401.319C402.679 398.476 400.93 396.156 398.756 396.156Z" fill="white"/>
<path d="M417.553 396.156C415.392 396.156 413.629 398.476 413.629 401.319C413.629 404.162 415.392 406.482 417.553 406.482C419.713 406.482 421.476 404.162 421.476 401.319C421.476 398.476 419.713 396.156 417.553 396.156Z" fill="white"/>
<path d="M432.426 401.319C432.426 404.179 434.189 406.482 436.349 406.482C437.37 406.482 438.298 405.959 439.001 405.104V397.534C438.298 396.697 437.383 396.156 436.349 396.156C434.189 396.156 432.426 398.476 432.426 401.319Z" fill="white"/>
<path d="M398.756 420.924C398.146 420.924 397.576 421.116 397.072 421.447C398.835 423.505 400.665 425.476 402.547 427.395C402.626 426.976 402.693 426.54 402.693 426.087C402.693 423.244 400.943 420.924 398.769 420.924H398.756Z" fill="white"/>
<path d="M417.553 420.924C415.392 420.924 413.629 423.244 413.629 426.087C413.629 428.93 415.392 431.249 417.553 431.249C419.713 431.249 421.476 428.93 421.476 426.087C421.476 423.244 419.713 420.924 417.553 420.924Z" fill="white"/>
<path d="M432.426 426.087C432.426 428.93 434.189 431.249 436.349 431.249C437.37 431.249 438.298 430.726 439.001 429.872V422.302C438.298 421.465 437.383 420.924 436.349 420.924C434.189 420.924 432.426 423.244 432.426 426.087Z" fill="white"/>
</svg>
