<svg width="437" height="640" viewBox="0 0 437 640" fill="none" xmlns="http://www.w3.org/2000/svg">
<rect width="437" height="640" fill="url(#paint0_linear_3929_2211)"/>
<path d="M39.4546 584.307C39.5826 584.307 39.6946 584.359 39.7906 584.463L40.7146 585.459C40.0106 586.275 39.1546 586.911 38.1466 587.367C37.1466 587.823 35.9346 588.051 34.5106 588.051C33.2786 588.051 32.1586 587.839 31.1506 587.415C30.1426 586.983 29.2826 586.383 28.5706 585.615C27.8586 584.839 27.3066 583.911 26.9146 582.831C26.5226 581.751 26.3266 580.563 26.3266 579.267C26.3266 577.971 26.5306 576.783 26.9386 575.703C27.3466 574.623 27.9186 573.695 28.6546 572.919C29.3986 572.143 30.2866 571.543 31.3186 571.119C32.3506 570.687 33.4906 570.471 34.7386 570.471C35.9626 570.471 37.0426 570.667 37.9786 571.059C38.9146 571.451 39.7386 571.983 40.4506 572.655L39.6826 573.723C39.6346 573.803 39.5706 573.871 39.4906 573.927C39.4186 573.975 39.3186 573.999 39.1906 573.999C39.0466 573.999 38.8706 573.923 38.6626 573.771C38.4546 573.611 38.1826 573.435 37.8466 573.243C37.5106 573.051 37.0906 572.879 36.5866 572.727C36.0826 572.567 35.4626 572.487 34.7266 572.487C33.8386 572.487 33.0266 572.643 32.2906 572.955C31.5546 573.259 30.9186 573.703 30.3826 574.287C29.8546 574.871 29.4426 575.583 29.1466 576.423C28.8506 577.263 28.7026 578.211 28.7026 579.267C28.7026 580.339 28.8546 581.295 29.1586 582.135C29.4706 582.975 29.8906 583.687 30.4186 584.271C30.9546 584.847 31.5826 585.287 32.3026 585.591C33.0306 585.895 33.8146 586.047 34.6546 586.047C35.1666 586.047 35.6266 586.019 36.0346 585.963C36.4506 585.899 36.8306 585.803 37.1746 585.675C37.5266 585.547 37.8506 585.387 38.1466 585.195C38.4506 584.995 38.7506 584.759 39.0466 584.487C39.1826 584.367 39.3186 584.307 39.4546 584.307ZM47.7995 575.511C48.6875 575.511 49.4875 575.659 50.1995 575.955C50.9115 576.251 51.5195 576.671 52.0235 577.215C52.5275 577.759 52.9115 578.419 53.1755 579.195C53.4475 579.963 53.5835 580.823 53.5835 581.775C53.5835 582.735 53.4475 583.599 53.1755 584.367C52.9115 585.135 52.5275 585.791 52.0235 586.335C51.5195 586.879 50.9115 587.299 50.1995 587.595C49.4875 587.883 48.6875 588.027 47.7995 588.027C46.9035 588.027 46.0955 587.883 45.3755 587.595C44.6635 587.299 44.0555 586.879 43.5515 586.335C43.0475 585.791 42.6595 585.135 42.3875 584.367C42.1235 583.599 41.9915 582.735 41.9915 581.775C41.9915 580.823 42.1235 579.963 42.3875 579.195C42.6595 578.419 43.0475 577.759 43.5515 577.215C44.0555 576.671 44.6635 576.251 45.3755 575.955C46.0955 575.659 46.9035 575.511 47.7995 575.511ZM47.7995 586.359C48.9995 586.359 49.8955 585.959 50.4875 585.159C51.0795 584.351 51.3755 583.227 51.3755 581.787C51.3755 580.339 51.0795 579.211 50.4875 578.403C49.8955 577.595 48.9995 577.191 47.7995 577.191C47.1915 577.191 46.6595 577.295 46.2035 577.503C45.7555 577.711 45.3795 578.011 45.0755 578.403C44.7795 578.795 44.5555 579.279 44.4035 579.855C44.2595 580.423 44.1875 581.067 44.1875 581.787C44.1875 583.227 44.4835 584.351 45.0755 585.159C45.6755 585.959 46.5835 586.359 47.7995 586.359ZM58.3207 578.139C58.7047 577.307 59.1767 576.659 59.7367 576.195C60.2967 575.723 60.9807 575.487 61.7887 575.487C62.0447 575.487 62.2887 575.515 62.5207 575.571C62.7607 575.627 62.9727 575.715 63.1567 575.835L63.0007 577.431C62.9527 577.631 62.8327 577.731 62.6407 577.731C62.5287 577.731 62.3647 577.707 62.1487 577.659C61.9327 577.611 61.6887 577.587 61.4167 577.587C61.0327 577.587 60.6887 577.643 60.3847 577.755C60.0887 577.867 59.8207 578.035 59.5807 578.259C59.3487 578.475 59.1367 578.747 58.9447 579.075C58.7607 579.395 58.5927 579.763 58.4407 580.179V587.859H56.2927V575.703H57.5167C57.7487 575.703 57.9087 575.747 57.9967 575.835C58.0847 575.923 58.1447 576.075 58.1767 576.291L58.3207 578.139ZM67.1829 584.931C67.5749 585.459 68.0029 585.831 68.4669 586.047C68.9309 586.263 69.4509 586.371 70.0269 586.371C71.1629 586.371 72.0349 585.967 72.6429 585.159C73.2509 584.351 73.5549 583.199 73.5549 581.703C73.5549 580.911 73.4829 580.231 73.3389 579.663C73.2029 579.095 73.0029 578.631 72.7389 578.271C72.4749 577.903 72.1509 577.635 71.7669 577.467C71.3829 577.299 70.9469 577.215 70.4589 577.215C69.7629 577.215 69.1509 577.375 68.6229 577.695C68.1029 578.015 67.6229 578.467 67.1829 579.051V584.931ZM67.0749 577.587C67.5869 576.955 68.1789 576.447 68.8509 576.063C69.5229 575.679 70.2909 575.487 71.1549 575.487C71.8589 575.487 72.4949 575.623 73.0629 575.895C73.6309 576.159 74.1149 576.555 74.5149 577.083C74.9149 577.603 75.2229 578.251 75.4389 579.027C75.6549 579.803 75.7629 580.695 75.7629 581.703C75.7629 582.599 75.6429 583.435 75.4029 584.211C75.1629 584.979 74.8149 585.647 74.3589 586.215C73.9109 586.775 73.3589 587.219 72.7029 587.547C72.0549 587.867 71.3229 588.027 70.5069 588.027C69.7629 588.027 69.1229 587.903 68.5869 587.655C68.0589 587.399 67.5909 587.047 67.1829 586.599V591.975H65.0349V575.703H66.3189C66.6229 575.703 66.8109 575.851 66.8829 576.147L67.0749 577.587ZM83.612 575.511C84.5 575.511 85.3 575.659 86.012 575.955C86.724 576.251 87.332 576.671 87.836 577.215C88.34 577.759 88.724 578.419 88.988 579.195C89.26 579.963 89.396 580.823 89.396 581.775C89.396 582.735 89.26 583.599 88.988 584.367C88.724 585.135 88.34 585.791 87.836 586.335C87.332 586.879 86.724 587.299 86.012 587.595C85.3 587.883 84.5 588.027 83.612 588.027C82.716 588.027 81.908 587.883 81.188 587.595C80.476 587.299 79.868 586.879 79.364 586.335C78.86 585.791 78.472 585.135 78.2 584.367C77.936 583.599 77.804 582.735 77.804 581.775C77.804 580.823 77.936 579.963 78.2 579.195C78.472 578.419 78.86 577.759 79.364 577.215C79.868 576.671 80.476 576.251 81.188 575.955C81.908 575.659 82.716 575.511 83.612 575.511ZM83.612 586.359C84.812 586.359 85.708 585.959 86.3 585.159C86.892 584.351 87.188 583.227 87.188 581.787C87.188 580.339 86.892 579.211 86.3 578.403C85.708 577.595 84.812 577.191 83.612 577.191C83.004 577.191 82.472 577.295 82.016 577.503C81.568 577.711 81.192 578.011 80.888 578.403C80.592 578.795 80.368 579.279 80.216 579.855C80.072 580.423 80 581.067 80 581.787C80 583.227 80.296 584.351 80.888 585.159C81.488 585.959 82.396 586.359 83.612 586.359ZM94.1332 578.139C94.5172 577.307 94.9892 576.659 95.5492 576.195C96.1092 575.723 96.7932 575.487 97.6012 575.487C97.8572 575.487 98.1012 575.515 98.3332 575.571C98.5732 575.627 98.7852 575.715 98.9692 575.835L98.8132 577.431C98.7652 577.631 98.6452 577.731 98.4532 577.731C98.3412 577.731 98.1772 577.707 97.9612 577.659C97.7452 577.611 97.5012 577.587 97.2292 577.587C96.8452 577.587 96.5012 577.643 96.1972 577.755C95.9012 577.867 95.6332 578.035 95.3932 578.259C95.1612 578.475 94.9492 578.747 94.7572 579.075C94.5732 579.395 94.4052 579.763 94.2532 580.179V587.859H92.1052V575.703H93.3292C93.5612 575.703 93.7212 575.747 93.8092 575.835C93.8972 575.923 93.9572 576.075 93.9892 576.291L94.1332 578.139ZM107.248 582.387C106.264 582.419 105.424 582.499 104.728 582.627C104.04 582.747 103.476 582.907 103.036 583.107C102.604 583.307 102.288 583.543 102.088 583.815C101.896 584.087 101.8 584.391 101.8 584.727C101.8 585.047 101.852 585.323 101.956 585.555C102.06 585.787 102.2 585.979 102.376 586.131C102.56 586.275 102.772 586.383 103.012 586.455C103.26 586.519 103.524 586.551 103.804 586.551C104.18 586.551 104.524 586.515 104.836 586.443C105.148 586.363 105.44 586.251 105.712 586.107C105.992 585.963 106.256 585.791 106.504 585.591C106.76 585.391 107.008 585.163 107.248 584.907V582.387ZM100.348 577.419C101.02 576.771 101.744 576.287 102.52 575.967C103.296 575.647 104.156 575.487 105.1 575.487C105.78 575.487 106.384 575.599 106.912 575.823C107.44 576.047 107.884 576.359 108.244 576.759C108.604 577.159 108.876 577.643 109.06 578.211C109.244 578.779 109.336 579.403 109.336 580.083V587.859H108.388C108.18 587.859 108.02 587.827 107.908 587.763C107.796 587.691 107.708 587.555 107.644 587.355L107.404 586.203C107.084 586.499 106.772 586.763 106.468 586.995C106.164 587.219 105.844 587.411 105.508 587.571C105.172 587.723 104.812 587.839 104.428 587.919C104.052 588.007 103.632 588.051 103.168 588.051C102.696 588.051 102.252 587.987 101.836 587.859C101.42 587.723 101.056 587.523 100.744 587.259C100.44 586.995 100.196 586.663 100.012 586.263C99.8359 585.855 99.7479 585.375 99.7479 584.823C99.7479 584.343 99.8799 583.883 100.144 583.443C100.408 582.995 100.836 582.599 101.428 582.255C102.02 581.911 102.792 581.631 103.744 581.415C104.696 581.191 105.864 581.063 107.248 581.031V580.083C107.248 579.139 107.044 578.427 106.636 577.947C106.228 577.459 105.632 577.215 104.848 577.215C104.32 577.215 103.876 577.283 103.516 577.419C103.164 577.547 102.856 577.695 102.592 577.863C102.336 578.023 102.112 578.171 101.92 578.307C101.736 578.435 101.552 578.499 101.368 578.499C101.224 578.499 101.1 578.463 100.996 578.391C100.892 578.311 100.804 578.215 100.732 578.103L100.348 577.419ZM116.158 588.051C115.198 588.051 114.458 587.783 113.938 587.247C113.426 586.711 113.17 585.939 113.17 584.931V577.491H111.706C111.578 577.491 111.47 577.455 111.382 577.383C111.294 577.303 111.25 577.183 111.25 577.023V576.171L113.242 575.919L113.734 572.163C113.758 572.043 113.81 571.947 113.89 571.875C113.978 571.795 114.09 571.755 114.226 571.755H115.306V575.943H118.822V577.491H115.306V584.787C115.306 585.299 115.43 585.679 115.678 585.927C115.926 586.175 116.246 586.299 116.638 586.299C116.862 586.299 117.054 586.271 117.214 586.215C117.382 586.151 117.526 586.083 117.646 586.011C117.766 585.939 117.866 585.875 117.946 585.819C118.034 585.755 118.11 585.723 118.174 585.723C118.286 585.723 118.386 585.791 118.474 585.927L119.098 586.947C118.73 587.291 118.286 587.563 117.766 587.763C117.246 587.955 116.71 588.051 116.158 588.051ZM129.093 580.455C129.093 579.959 129.021 579.507 128.877 579.099C128.741 578.683 128.537 578.327 128.265 578.031C128.001 577.727 127.677 577.495 127.293 577.335C126.909 577.167 126.473 577.083 125.985 577.083C124.961 577.083 124.149 577.383 123.549 577.983C122.957 578.575 122.589 579.399 122.445 580.455H129.093ZM130.821 586.155C130.557 586.475 130.241 586.755 129.873 586.995C129.505 587.227 129.109 587.419 128.685 587.571C128.269 587.723 127.837 587.835 127.389 587.907C126.941 587.987 126.497 588.027 126.057 588.027C125.217 588.027 124.441 587.887 123.729 587.607C123.025 587.319 122.413 586.903 121.893 586.359C121.381 585.807 120.981 585.127 120.693 584.319C120.405 583.511 120.261 582.583 120.261 581.535C120.261 580.687 120.389 579.895 120.645 579.159C120.909 578.423 121.285 577.787 121.773 577.251C122.261 576.707 122.857 576.283 123.561 575.979C124.265 575.667 125.057 575.511 125.937 575.511C126.665 575.511 127.337 575.635 127.953 575.883C128.577 576.123 129.113 576.475 129.561 576.939C130.017 577.395 130.373 577.963 130.629 578.643C130.885 579.315 131.013 580.083 131.013 580.947C131.013 581.283 130.977 581.507 130.905 581.619C130.833 581.731 130.697 581.787 130.497 581.787H122.373C122.397 582.555 122.501 583.223 122.685 583.791C122.877 584.359 123.141 584.835 123.477 585.219C123.813 585.595 124.213 585.879 124.677 586.071C125.141 586.255 125.661 586.347 126.237 586.347C126.773 586.347 127.233 586.287 127.617 586.167C128.009 586.039 128.345 585.903 128.625 585.759C128.905 585.615 129.137 585.483 129.321 585.363C129.513 585.235 129.677 585.171 129.813 585.171C129.989 585.171 130.125 585.239 130.221 585.375L130.821 586.155ZM162.237 570.663L156.873 587.859H154.785L150.429 574.743C150.389 574.615 150.349 574.479 150.309 574.335C150.277 574.191 150.241 574.039 150.201 573.879C150.161 574.039 150.121 574.191 150.081 574.335C150.041 574.479 150.001 574.615 149.961 574.743L145.581 587.859H143.493L138.129 570.663H140.061C140.269 570.663 140.441 570.715 140.577 570.819C140.721 570.923 140.813 571.055 140.853 571.215L144.405 583.167C144.461 583.383 144.513 583.615 144.561 583.863C144.617 584.111 144.669 584.375 144.717 584.655C144.773 584.375 144.829 584.111 144.885 583.863C144.949 583.607 145.017 583.375 145.089 583.167L149.133 571.215C149.181 571.079 149.273 570.955 149.409 570.843C149.553 570.723 149.725 570.663 149.925 570.663H150.597C150.805 570.663 150.973 570.715 151.101 570.819C151.229 570.923 151.325 571.055 151.389 571.215L155.421 583.167C155.493 583.375 155.557 583.599 155.613 583.839C155.677 584.079 155.737 584.331 155.793 584.595C155.833 584.331 155.877 584.079 155.925 583.839C155.973 583.599 156.025 583.375 156.081 583.167L159.645 571.215C159.685 571.071 159.773 570.943 159.909 570.831C160.053 570.719 160.225 570.663 160.425 570.663H162.237ZM171.069 580.455C171.069 579.959 170.997 579.507 170.853 579.099C170.717 578.683 170.513 578.327 170.241 578.031C169.977 577.727 169.653 577.495 169.269 577.335C168.885 577.167 168.449 577.083 167.961 577.083C166.937 577.083 166.125 577.383 165.525 577.983C164.933 578.575 164.565 579.399 164.421 580.455H171.069ZM172.797 586.155C172.533 586.475 172.217 586.755 171.849 586.995C171.481 587.227 171.085 587.419 170.661 587.571C170.245 587.723 169.813 587.835 169.365 587.907C168.917 587.987 168.473 588.027 168.033 588.027C167.193 588.027 166.417 587.887 165.705 587.607C165.001 587.319 164.389 586.903 163.869 586.359C163.357 585.807 162.957 585.127 162.669 584.319C162.381 583.511 162.237 582.583 162.237 581.535C162.237 580.687 162.365 579.895 162.621 579.159C162.885 578.423 163.261 577.787 163.749 577.251C164.237 576.707 164.833 576.283 165.537 575.979C166.241 575.667 167.033 575.511 167.913 575.511C168.641 575.511 169.313 575.635 169.929 575.883C170.553 576.123 171.089 576.475 171.537 576.939C171.993 577.395 172.349 577.963 172.605 578.643C172.861 579.315 172.989 580.083 172.989 580.947C172.989 581.283 172.953 581.507 172.881 581.619C172.809 581.731 172.673 581.787 172.473 581.787H164.349C164.373 582.555 164.477 583.223 164.661 583.791C164.853 584.359 165.117 584.835 165.453 585.219C165.789 585.595 166.189 585.879 166.653 586.071C167.117 586.255 167.637 586.347 168.213 586.347C168.749 586.347 169.209 586.287 169.593 586.167C169.985 586.039 170.321 585.903 170.601 585.759C170.881 585.615 171.113 585.483 171.297 585.363C171.489 585.235 171.653 585.171 171.789 585.171C171.965 585.171 172.101 585.239 172.197 585.375L172.797 586.155ZM177.761 584.931C178.153 585.459 178.581 585.831 179.045 586.047C179.517 586.263 180.033 586.371 180.593 586.371C181.737 586.371 182.613 585.967 183.221 585.159C183.829 584.351 184.133 583.147 184.133 581.547C184.133 580.059 183.861 578.967 183.317 578.271C182.781 577.567 182.013 577.215 181.013 577.215C180.317 577.215 179.709 577.375 179.189 577.695C178.677 578.015 178.201 578.467 177.761 579.051V584.931ZM177.761 577.455C178.273 576.863 178.849 576.391 179.489 576.039C180.137 575.687 180.881 575.511 181.721 575.511C182.433 575.511 183.073 575.647 183.641 575.919C184.217 576.191 184.705 576.587 185.105 577.107C185.505 577.619 185.809 578.243 186.017 578.979C186.233 579.715 186.341 580.543 186.341 581.463C186.341 582.447 186.221 583.343 185.981 584.151C185.741 584.959 185.393 585.651 184.937 586.227C184.489 586.795 183.941 587.239 183.293 587.559C182.645 587.871 181.917 588.027 181.109 588.027C180.309 588.027 179.633 587.879 179.081 587.583C178.537 587.279 178.061 586.851 177.653 586.299L177.545 587.403C177.481 587.707 177.297 587.859 176.993 587.859H175.613V570.183H177.761V577.455ZM196.123 577.707C196.027 577.883 195.879 577.971 195.679 577.971C195.559 577.971 195.423 577.927 195.271 577.839C195.119 577.751 194.931 577.655 194.707 577.551C194.491 577.439 194.231 577.339 193.927 577.251C193.623 577.155 193.263 577.107 192.847 577.107C192.487 577.107 192.163 577.155 191.875 577.251C191.587 577.339 191.339 577.463 191.131 577.623C190.931 577.783 190.775 577.971 190.663 578.187C190.559 578.395 190.507 578.623 190.507 578.871C190.507 579.183 190.595 579.443 190.771 579.651C190.955 579.859 191.195 580.039 191.491 580.191C191.787 580.343 192.123 580.479 192.499 580.599C192.875 580.711 193.259 580.835 193.651 580.971C194.051 581.099 194.439 581.243 194.815 581.403C195.191 581.563 195.527 581.763 195.823 582.003C196.119 582.243 196.355 582.539 196.531 582.891C196.715 583.235 196.807 583.651 196.807 584.139C196.807 584.699 196.707 585.219 196.507 585.699C196.307 586.171 196.011 586.583 195.619 586.935C195.227 587.279 194.747 587.551 194.179 587.751C193.611 587.951 192.955 588.051 192.211 588.051C191.363 588.051 190.595 587.915 189.907 587.643C189.219 587.363 188.635 587.007 188.155 586.575L188.659 585.759C188.723 585.655 188.799 585.575 188.887 585.519C188.975 585.463 189.087 585.435 189.223 585.435C189.367 585.435 189.519 585.491 189.679 585.603C189.839 585.715 190.031 585.839 190.255 585.975C190.487 586.111 190.767 586.235 191.095 586.347C191.423 586.459 191.831 586.515 192.319 586.515C192.735 586.515 193.099 586.463 193.411 586.359C193.723 586.247 193.983 586.099 194.191 585.915C194.399 585.731 194.551 585.519 194.647 585.279C194.751 585.039 194.803 584.783 194.803 584.511C194.803 584.175 194.711 583.899 194.527 583.683C194.351 583.459 194.115 583.271 193.819 583.119C193.523 582.959 193.183 582.823 192.799 582.711C192.423 582.591 192.035 582.467 191.635 582.339C191.243 582.211 190.855 582.067 190.471 581.907C190.095 581.739 189.759 581.531 189.463 581.283C189.167 581.035 188.927 580.731 188.743 580.371C188.567 580.003 188.479 579.559 188.479 579.039C188.479 578.575 188.575 578.131 188.767 577.707C188.959 577.275 189.239 576.899 189.607 576.579C189.975 576.251 190.427 575.991 190.963 575.799C191.499 575.607 192.111 575.511 192.799 575.511C193.599 575.511 194.315 575.639 194.947 575.895C195.587 576.143 196.139 576.487 196.603 576.927L196.123 577.707ZM201.682 575.703V587.859H199.546V575.703H201.682ZM202.138 571.887C202.138 572.095 202.094 572.291 202.006 572.475C201.926 572.651 201.814 572.811 201.67 572.955C201.534 573.091 201.37 573.199 201.178 573.279C200.994 573.359 200.798 573.399 200.59 573.399C200.382 573.399 200.186 573.359 200.002 573.279C199.826 573.199 199.67 573.091 199.534 572.955C199.398 572.811 199.29 572.651 199.21 572.475C199.13 572.291 199.09 572.095 199.09 571.887C199.09 571.679 199.13 571.483 199.21 571.299C199.29 571.107 199.398 570.943 199.534 570.807C199.67 570.663 199.826 570.551 200.002 570.471C200.186 570.391 200.382 570.351 200.59 570.351C200.798 570.351 200.994 570.391 201.178 570.471C201.37 570.551 201.534 570.663 201.67 570.807C201.814 570.943 201.926 571.107 202.006 571.299C202.094 571.483 202.138 571.679 202.138 571.887ZM208.923 588.051C207.963 588.051 207.223 587.783 206.703 587.247C206.191 586.711 205.935 585.939 205.935 584.931V577.491H204.471C204.343 577.491 204.235 577.455 204.147 577.383C204.059 577.303 204.015 577.183 204.015 577.023V576.171L206.007 575.919L206.499 572.163C206.523 572.043 206.575 571.947 206.655 571.875C206.743 571.795 206.855 571.755 206.991 571.755H208.071V575.943H211.587V577.491H208.071V584.787C208.071 585.299 208.195 585.679 208.443 585.927C208.691 586.175 209.011 586.299 209.403 586.299C209.627 586.299 209.819 586.271 209.979 586.215C210.147 586.151 210.291 586.083 210.411 586.011C210.531 585.939 210.631 585.875 210.711 585.819C210.799 585.755 210.875 585.723 210.939 585.723C211.051 585.723 211.151 585.791 211.239 585.927L211.863 586.947C211.495 587.291 211.051 587.563 210.531 587.763C210.011 587.955 209.475 588.051 208.923 588.051ZM221.858 580.455C221.858 579.959 221.786 579.507 221.642 579.099C221.506 578.683 221.302 578.327 221.03 578.031C220.766 577.727 220.442 577.495 220.058 577.335C219.674 577.167 219.238 577.083 218.75 577.083C217.726 577.083 216.914 577.383 216.314 577.983C215.722 578.575 215.354 579.399 215.21 580.455H221.858ZM223.586 586.155C223.322 586.475 223.006 586.755 222.638 586.995C222.27 587.227 221.874 587.419 221.45 587.571C221.034 587.723 220.602 587.835 220.154 587.907C219.706 587.987 219.262 588.027 218.822 588.027C217.982 588.027 217.206 587.887 216.494 587.607C215.79 587.319 215.178 586.903 214.658 586.359C214.146 585.807 213.746 585.127 213.458 584.319C213.17 583.511 213.026 582.583 213.026 581.535C213.026 580.687 213.154 579.895 213.41 579.159C213.674 578.423 214.05 577.787 214.538 577.251C215.026 576.707 215.622 576.283 216.326 575.979C217.03 575.667 217.822 575.511 218.702 575.511C219.43 575.511 220.102 575.635 220.718 575.883C221.342 576.123 221.878 576.475 222.326 576.939C222.782 577.395 223.138 577.963 223.394 578.643C223.65 579.315 223.778 580.083 223.778 580.947C223.778 581.283 223.742 581.507 223.67 581.619C223.598 581.731 223.462 581.787 223.262 581.787H215.138C215.162 582.555 215.266 583.223 215.45 583.791C215.642 584.359 215.906 584.835 216.242 585.219C216.578 585.595 216.978 585.879 217.442 586.071C217.906 586.255 218.426 586.347 219.002 586.347C219.538 586.347 219.998 586.287 220.382 586.167C220.774 586.039 221.11 585.903 221.39 585.759C221.67 585.615 221.902 585.483 222.086 585.363C222.278 585.235 222.442 585.171 222.578 585.171C222.754 585.171 222.89 585.239 222.986 585.375L223.586 586.155Z" fill="#EAEDED"/>
<path d="M34.1566 544.489C34.9166 544.489 35.5766 544.394 36.1366 544.204C36.7066 544.014 37.1716 543.754 37.5316 543.424C37.9016 543.084 38.1766 542.684 38.3566 542.224C38.5366 541.764 38.6266 541.259 38.6266 540.709C38.6266 539.609 38.2616 538.764 37.5316 538.174C36.8116 537.584 35.7066 537.289 34.2166 537.289H31.6366V544.489H34.1566ZM44.5366 555.859H40.8916C40.2016 555.859 39.7016 555.589 39.3916 555.049L34.8316 548.104C34.6616 547.844 34.4716 547.659 34.2616 547.549C34.0616 547.439 33.7616 547.384 33.3616 547.384H31.6366V555.859H27.6016V534.169H34.2166C35.6866 534.169 36.9466 534.324 37.9966 534.634C39.0566 534.934 39.9216 535.359 40.5916 535.909C41.2716 536.459 41.7716 537.119 42.0916 537.889C42.4116 538.649 42.5716 539.489 42.5716 540.409C42.5716 541.139 42.4616 541.829 42.2416 542.479C42.0316 543.129 41.7216 543.719 41.3116 544.249C40.9116 544.779 40.4116 545.244 39.8116 545.644C39.2216 546.044 38.5466 546.359 37.7866 546.589C38.0466 546.739 38.2866 546.919 38.5066 547.129C38.7266 547.329 38.9266 547.569 39.1066 547.849L44.5366 555.859ZM54.1896 549.289C53.1196 549.339 52.2196 549.434 51.4896 549.574C50.7596 549.704 50.1746 549.874 49.7346 550.084C49.2946 550.294 48.9796 550.539 48.7896 550.819C48.5996 551.099 48.5046 551.404 48.5046 551.734C48.5046 552.384 48.6946 552.849 49.0746 553.129C49.4646 553.409 49.9696 553.549 50.5896 553.549C51.3496 553.549 52.0046 553.414 52.5546 553.144C53.1146 552.864 53.6596 552.444 54.1896 551.884V549.289ZM45.6996 542.614C47.4696 540.994 49.5996 540.184 52.0896 540.184C52.9896 540.184 53.7946 540.334 54.5046 540.634C55.2146 540.924 55.8146 541.334 56.3046 541.864C56.7946 542.384 57.1646 543.009 57.4146 543.739C57.6746 544.469 57.8046 545.269 57.8046 546.139V555.859H56.1246C55.7746 555.859 55.5046 555.809 55.3146 555.709C55.1246 555.599 54.9746 555.384 54.8646 555.064L54.5346 553.954C54.1446 554.304 53.7646 554.614 53.3946 554.884C53.0246 555.144 52.6396 555.364 52.2396 555.544C51.8396 555.724 51.4096 555.859 50.9496 555.949C50.4996 556.049 49.9996 556.099 49.4496 556.099C48.7996 556.099 48.1996 556.014 47.6496 555.844C47.0996 555.664 46.6246 555.399 46.2246 555.049C45.8246 554.699 45.5146 554.264 45.2946 553.744C45.0746 553.224 44.9646 552.619 44.9646 551.929C44.9646 551.539 45.0296 551.154 45.1596 550.774C45.2896 550.384 45.4996 550.014 45.7896 549.664C46.0896 549.314 46.4746 548.984 46.9446 548.674C47.4146 548.364 47.9896 548.094 48.6696 547.864C49.3596 547.634 50.1596 547.449 51.0696 547.309C51.9796 547.159 53.0196 547.069 54.1896 547.039V546.139C54.1896 545.109 53.9696 544.349 53.5296 543.859C53.0896 543.359 52.4546 543.109 51.6246 543.109C51.0246 543.109 50.5246 543.179 50.1246 543.319C49.7346 543.459 49.3896 543.619 49.0896 543.799C48.7896 543.969 48.5146 544.124 48.2646 544.264C48.0246 544.404 47.7546 544.474 47.4546 544.474C47.1946 544.474 46.9746 544.409 46.7946 544.279C46.6146 544.139 46.4696 543.979 46.3596 543.799L45.6996 542.614ZM64.999 551.869C65.419 552.379 65.874 552.739 66.364 552.949C66.864 553.159 67.404 553.264 67.984 553.264C68.544 553.264 69.049 553.159 69.499 552.949C69.949 552.739 70.329 552.419 70.639 551.989C70.959 551.559 71.204 551.019 71.374 550.369C71.544 549.709 71.629 548.934 71.629 548.044C71.629 547.144 71.554 546.384 71.404 545.764C71.264 545.134 71.059 544.624 70.789 544.234C70.519 543.844 70.189 543.559 69.799 543.379C69.419 543.199 68.984 543.109 68.494 543.109C67.724 543.109 67.069 543.274 66.529 543.604C65.989 543.924 65.479 544.379 64.999 544.969V551.869ZM64.804 542.569C65.434 541.859 66.149 541.284 66.949 540.844C67.749 540.404 68.689 540.184 69.769 540.184C70.609 540.184 71.374 540.359 72.064 540.709C72.764 541.059 73.364 541.569 73.864 542.239C74.374 542.899 74.764 543.719 75.034 544.699C75.314 545.669 75.454 546.784 75.454 548.044C75.454 549.194 75.299 550.259 74.989 551.239C74.679 552.219 74.234 553.069 73.654 553.789C73.084 554.509 72.389 555.074 71.569 555.484C70.759 555.884 69.849 556.084 68.839 556.084C67.979 556.084 67.244 555.954 66.634 555.694C66.024 555.424 65.479 555.054 64.999 554.584V560.884H61.294V540.469H63.559C64.039 540.469 64.354 540.694 64.504 541.144L64.804 542.569ZM82.1848 540.469V555.859H78.4648V540.469H82.1848ZM82.6948 535.984C82.6948 536.304 82.6298 536.604 82.4998 536.884C82.3698 537.164 82.1948 537.409 81.9748 537.619C81.7648 537.829 81.5148 537.999 81.2248 538.129C80.9348 538.249 80.6248 538.309 80.2948 538.309C79.9748 538.309 79.6698 538.249 79.3798 538.129C79.0998 537.999 78.8548 537.829 78.6448 537.619C78.4348 537.409 78.2648 537.164 78.1348 536.884C78.0148 536.604 77.9548 536.304 77.9548 535.984C77.9548 535.654 78.0148 535.344 78.1348 535.054C78.2648 534.764 78.4348 534.514 78.6448 534.304C78.8548 534.094 79.0998 533.929 79.3798 533.809C79.6698 533.679 79.9748 533.614 80.2948 533.614C80.6248 533.614 80.9348 533.679 81.2248 533.809C81.5148 533.929 81.7648 534.094 81.9748 534.304C82.1948 534.514 82.3698 534.764 82.4998 535.054C82.6298 535.344 82.6948 535.654 82.6948 535.984ZM95.6219 544.399C95.2019 543.889 94.7419 543.529 94.2419 543.319C93.7519 543.109 93.2219 543.004 92.6519 543.004C92.0919 543.004 91.5869 543.109 91.1369 543.319C90.6869 543.529 90.3019 543.849 89.9819 544.279C89.6619 544.699 89.4169 545.239 89.2469 545.899C89.0769 546.549 88.9919 547.319 88.9919 548.209C88.9919 549.109 89.0619 549.874 89.2019 550.504C89.3519 551.124 89.5619 551.634 89.8319 552.034C90.1019 552.424 90.4319 552.709 90.8219 552.889C91.2119 553.059 91.6469 553.144 92.1269 553.144C92.8969 553.144 93.5519 552.984 94.0919 552.664C94.6319 552.344 95.1419 551.889 95.6219 551.299V544.399ZM99.3269 533.569V555.859H97.0619C96.5719 555.859 96.2619 555.634 96.1319 555.184L95.8169 553.699C95.1969 554.409 94.4819 554.984 93.6719 555.424C92.8719 555.864 91.9369 556.084 90.8669 556.084C90.0269 556.084 89.2569 555.909 88.5569 555.559C87.8569 555.209 87.2519 554.704 86.7419 554.044C86.2419 553.374 85.8519 552.549 85.5719 551.569C85.3019 550.589 85.1669 549.469 85.1669 548.209C85.1669 547.069 85.3219 546.009 85.6319 545.029C85.9419 544.049 86.3869 543.199 86.9669 542.479C87.5469 541.759 88.2419 541.199 89.0519 540.799C89.8619 540.389 90.7719 540.184 91.7819 540.184C92.6419 540.184 93.3769 540.319 93.9869 540.589C94.5969 540.859 95.1419 541.224 95.6219 541.684V533.569H99.3269ZM121.327 547.669L118.687 540.454C118.557 540.134 118.422 539.754 118.282 539.314C118.142 538.874 118.002 538.399 117.862 537.889C117.732 538.399 117.597 538.879 117.457 539.329C117.317 539.769 117.182 540.154 117.052 540.484L114.427 547.669H121.327ZM128.452 555.859H125.332C124.982 555.859 124.697 555.774 124.477 555.604C124.257 555.424 124.092 555.204 123.982 554.944L122.362 550.519H113.377L111.757 554.944C111.677 555.174 111.522 555.384 111.292 555.574C111.062 555.764 110.777 555.859 110.437 555.859H107.287L115.822 534.169H119.932L128.452 555.859ZM133.788 551.869C134.208 552.379 134.663 552.739 135.153 552.949C135.653 553.159 136.193 553.264 136.773 553.264C137.333 553.264 137.838 553.159 138.288 552.949C138.738 552.739 139.118 552.419 139.428 551.989C139.748 551.559 139.993 551.019 140.163 550.369C140.333 549.709 140.418 548.934 140.418 548.044C140.418 547.144 140.343 546.384 140.193 545.764C140.053 545.134 139.848 544.624 139.578 544.234C139.308 543.844 138.978 543.559 138.588 543.379C138.208 543.199 137.773 543.109 137.283 543.109C136.513 543.109 135.858 543.274 135.318 543.604C134.778 543.924 134.268 544.379 133.788 544.969V551.869ZM133.593 542.569C134.223 541.859 134.938 541.284 135.738 540.844C136.538 540.404 137.478 540.184 138.558 540.184C139.398 540.184 140.163 540.359 140.853 540.709C141.553 541.059 142.153 541.569 142.653 542.239C143.163 542.899 143.553 543.719 143.823 544.699C144.103 545.669 144.243 546.784 144.243 548.044C144.243 549.194 144.088 550.259 143.778 551.239C143.468 552.219 143.023 553.069 142.443 553.789C141.873 554.509 141.178 555.074 140.358 555.484C139.548 555.884 138.638 556.084 137.628 556.084C136.768 556.084 136.033 555.954 135.423 555.694C134.813 555.424 134.268 555.054 133.788 554.584V560.884H130.083V540.469H132.348C132.828 540.469 133.143 540.694 133.293 541.144L133.593 542.569ZM150.839 551.869C151.259 552.379 151.714 552.739 152.204 552.949C152.704 553.159 153.244 553.264 153.824 553.264C154.384 553.264 154.889 553.159 155.339 552.949C155.789 552.739 156.169 552.419 156.479 551.989C156.799 551.559 157.044 551.019 157.214 550.369C157.384 549.709 157.469 548.934 157.469 548.044C157.469 547.144 157.394 546.384 157.244 545.764C157.104 545.134 156.899 544.624 156.629 544.234C156.359 543.844 156.029 543.559 155.639 543.379C155.259 543.199 154.824 543.109 154.334 543.109C153.564 543.109 152.909 543.274 152.369 543.604C151.829 543.924 151.319 544.379 150.839 544.969V551.869ZM150.644 542.569C151.274 541.859 151.989 541.284 152.789 540.844C153.589 540.404 154.529 540.184 155.609 540.184C156.449 540.184 157.214 540.359 157.904 540.709C158.604 541.059 159.204 541.569 159.704 542.239C160.214 542.899 160.604 543.719 160.874 544.699C161.154 545.669 161.294 546.784 161.294 548.044C161.294 549.194 161.139 550.259 160.829 551.239C160.519 552.219 160.074 553.069 159.494 553.789C158.924 554.509 158.229 555.074 157.409 555.484C156.599 555.884 155.689 556.084 154.679 556.084C153.819 556.084 153.084 555.954 152.474 555.694C151.864 555.424 151.319 555.054 150.839 554.584V560.884H147.134V540.469H149.399C149.879 540.469 150.194 540.694 150.344 541.144L150.644 542.569ZM167.935 533.569V555.859H164.23V533.569H167.935ZM175.466 540.469V555.859H171.746V540.469H175.466ZM175.976 535.984C175.976 536.304 175.911 536.604 175.781 536.884C175.651 537.164 175.476 537.409 175.256 537.619C175.046 537.829 174.796 537.999 174.506 538.129C174.216 538.249 173.906 538.309 173.576 538.309C173.256 538.309 172.951 538.249 172.661 538.129C172.381 537.999 172.136 537.829 171.926 537.619C171.716 537.409 171.546 537.164 171.416 536.884C171.296 536.604 171.236 536.304 171.236 535.984C171.236 535.654 171.296 535.344 171.416 535.054C171.546 534.764 171.716 534.514 171.926 534.304C172.136 534.094 172.381 533.929 172.661 533.809C172.951 533.679 173.256 533.614 173.576 533.614C173.906 533.614 174.216 533.679 174.506 533.809C174.796 533.929 175.046 534.094 175.256 534.304C175.476 534.514 175.651 534.764 175.781 535.054C175.911 535.344 175.976 535.654 175.976 535.984ZM189.158 546.394C189.158 545.914 189.088 545.464 188.948 545.044C188.818 544.614 188.618 544.239 188.348 543.919C188.078 543.599 187.733 543.349 187.313 543.169C186.903 542.979 186.423 542.884 185.873 542.884C184.803 542.884 183.958 543.189 183.338 543.799C182.728 544.409 182.338 545.274 182.168 546.394H189.158ZM182.093 548.629C182.153 549.419 182.293 550.104 182.513 550.684C182.733 551.254 183.023 551.729 183.383 552.109C183.743 552.479 184.168 552.759 184.658 552.949C185.158 553.129 185.708 553.219 186.308 553.219C186.908 553.219 187.423 553.149 187.853 553.009C188.293 552.869 188.673 552.714 188.993 552.544C189.323 552.374 189.608 552.219 189.848 552.079C190.098 551.939 190.338 551.869 190.568 551.869C190.878 551.869 191.108 551.984 191.258 552.214L192.323 553.564C191.913 554.044 191.453 554.449 190.943 554.779C190.433 555.099 189.898 555.359 189.338 555.559C188.788 555.749 188.223 555.884 187.643 555.964C187.073 556.044 186.518 556.084 185.978 556.084C184.908 556.084 183.913 555.909 182.993 555.559C182.073 555.199 181.273 554.674 180.593 553.984C179.913 553.284 179.378 552.424 178.988 551.404C178.598 550.374 178.403 549.184 178.403 547.834C178.403 546.784 178.573 545.799 178.913 544.879C179.253 543.949 179.738 543.144 180.368 542.464C181.008 541.774 181.783 541.229 182.693 540.829C183.613 540.429 184.648 540.229 185.798 540.229C186.768 540.229 187.663 540.384 188.483 540.694C189.303 541.004 190.008 541.459 190.598 542.059C191.188 542.649 191.648 543.379 191.978 544.249C192.318 545.109 192.488 546.094 192.488 547.204C192.488 547.764 192.428 548.144 192.308 548.344C192.188 548.534 191.958 548.629 191.618 548.629H182.093ZM204.929 544.399C204.509 543.889 204.049 543.529 203.549 543.319C203.059 543.109 202.529 543.004 201.959 543.004C201.399 543.004 200.894 543.109 200.444 543.319C199.994 543.529 199.609 543.849 199.289 544.279C198.969 544.699 198.724 545.239 198.554 545.899C198.384 546.549 198.299 547.319 198.299 548.209C198.299 549.109 198.369 549.874 198.509 550.504C198.659 551.124 198.869 551.634 199.139 552.034C199.409 552.424 199.739 552.709 200.129 552.889C200.519 553.059 200.954 553.144 201.434 553.144C202.204 553.144 202.859 552.984 203.399 552.664C203.939 552.344 204.449 551.889 204.929 551.299V544.399ZM208.634 533.569V555.859H206.369C205.879 555.859 205.569 555.634 205.439 555.184L205.124 553.699C204.504 554.409 203.789 554.984 202.979 555.424C202.179 555.864 201.244 556.084 200.174 556.084C199.334 556.084 198.564 555.909 197.864 555.559C197.164 555.209 196.559 554.704 196.049 554.044C195.549 553.374 195.159 552.549 194.879 551.569C194.609 550.589 194.474 549.469 194.474 548.209C194.474 547.069 194.629 546.009 194.939 545.029C195.249 544.049 195.694 543.199 196.274 542.479C196.854 541.759 197.549 541.199 198.359 540.799C199.169 540.389 200.079 540.184 201.089 540.184C201.949 540.184 202.684 540.319 203.294 540.589C203.904 540.859 204.449 541.224 204.929 541.684V533.569H208.634ZM227.22 545.074C227.96 545.074 228.605 544.984 229.155 544.804C229.705 544.614 230.16 544.349 230.52 544.009C230.89 543.659 231.165 543.239 231.345 542.749C231.525 542.249 231.615 541.694 231.615 541.084C231.615 540.504 231.525 539.979 231.345 539.509C231.165 539.039 230.895 538.639 230.535 538.309C230.175 537.979 229.72 537.729 229.17 537.559C228.62 537.379 227.97 537.289 227.22 537.289H224.205V545.074H227.22ZM227.22 534.169C228.67 534.169 229.925 534.339 230.985 534.679C232.045 535.019 232.92 535.494 233.61 536.104C234.3 536.714 234.81 537.444 235.14 538.294C235.48 539.144 235.65 540.074 235.65 541.084C235.65 542.134 235.475 543.099 235.125 543.979C234.775 544.849 234.25 545.599 233.55 546.229C232.85 546.859 231.97 547.349 230.91 547.699C229.86 548.049 228.63 548.224 227.22 548.224H224.205V555.859H220.17V534.169H227.22ZM241.42 543.139C241.9 542.219 242.47 541.499 243.13 540.979C243.79 540.449 244.57 540.184 245.47 540.184C246.18 540.184 246.75 540.339 247.18 540.649L246.94 543.424C246.89 543.604 246.815 543.734 246.715 543.814C246.625 543.884 246.5 543.919 246.34 543.919C246.19 543.919 245.965 543.894 245.665 543.844C245.375 543.794 245.09 543.769 244.81 543.769C244.4 543.769 244.035 543.829 243.715 543.949C243.395 544.069 243.105 544.244 242.845 544.474C242.595 544.694 242.37 544.964 242.17 545.284C241.98 545.604 241.8 545.969 241.63 546.379V555.859H237.925V540.469H240.1C240.48 540.469 240.745 540.539 240.895 540.679C241.045 540.809 241.145 541.049 241.195 541.399L241.42 543.139ZM255.487 540.229C256.627 540.229 257.662 540.414 258.592 540.784C259.532 541.154 260.332 541.679 260.992 542.359C261.662 543.039 262.177 543.869 262.537 544.849C262.897 545.829 263.077 546.924 263.077 548.134C263.077 549.354 262.897 550.454 262.537 551.434C262.177 552.414 261.662 553.249 260.992 553.939C260.332 554.629 259.532 555.159 258.592 555.529C257.662 555.899 256.627 556.084 255.487 556.084C254.337 556.084 253.292 555.899 252.352 555.529C251.412 555.159 250.607 554.629 249.937 553.939C249.277 553.249 248.762 552.414 248.392 551.434C248.032 550.454 247.852 549.354 247.852 548.134C247.852 546.924 248.032 545.829 248.392 544.849C248.762 543.869 249.277 543.039 249.937 542.359C250.607 541.679 251.412 541.154 252.352 540.784C253.292 540.414 254.337 540.229 255.487 540.229ZM255.487 553.234C256.767 553.234 257.712 552.804 258.322 551.944C258.942 551.084 259.252 549.824 259.252 548.164C259.252 546.504 258.942 545.239 258.322 544.369C257.712 543.499 256.767 543.064 255.487 543.064C254.187 543.064 253.222 543.504 252.592 544.384C251.972 545.254 251.662 546.514 251.662 548.164C251.662 549.814 251.972 551.074 252.592 551.944C253.222 552.804 254.187 553.234 255.487 553.234ZM270.74 556.099C269.4 556.099 268.37 555.724 267.65 554.974C266.94 554.214 266.585 553.169 266.585 551.839V543.244H265.01C264.81 543.244 264.64 543.179 264.5 543.049C264.36 542.919 264.29 542.724 264.29 542.464V540.994L266.765 540.589L267.545 536.389C267.595 536.189 267.69 536.034 267.83 535.924C267.97 535.814 268.15 535.759 268.37 535.759H270.29V540.604H274.4V543.244H270.29V551.584C270.29 552.064 270.405 552.439 270.635 552.709C270.875 552.979 271.2 553.114 271.61 553.114C271.84 553.114 272.03 553.089 272.18 553.039C272.34 552.979 272.475 552.919 272.585 552.859C272.705 552.799 272.81 552.744 272.9 552.694C272.99 552.634 273.08 552.604 273.17 552.604C273.28 552.604 273.37 552.634 273.44 552.694C273.51 552.744 273.585 552.824 273.665 552.934L274.775 554.734C274.235 555.184 273.615 555.524 272.915 555.754C272.215 555.984 271.49 556.099 270.74 556.099ZM286.57 546.394C286.57 545.914 286.5 545.464 286.36 545.044C286.23 544.614 286.03 544.239 285.76 543.919C285.49 543.599 285.145 543.349 284.725 543.169C284.315 542.979 283.835 542.884 283.285 542.884C282.215 542.884 281.37 543.189 280.75 543.799C280.14 544.409 279.75 545.274 279.58 546.394H286.57ZM279.505 548.629C279.565 549.419 279.705 550.104 279.925 550.684C280.145 551.254 280.435 551.729 280.795 552.109C281.155 552.479 281.58 552.759 282.07 552.949C282.57 553.129 283.12 553.219 283.72 553.219C284.32 553.219 284.835 553.149 285.265 553.009C285.705 552.869 286.085 552.714 286.405 552.544C286.735 552.374 287.02 552.219 287.26 552.079C287.51 551.939 287.75 551.869 287.98 551.869C288.29 551.869 288.52 551.984 288.67 552.214L289.735 553.564C289.325 554.044 288.865 554.449 288.355 554.779C287.845 555.099 287.31 555.359 286.75 555.559C286.2 555.749 285.635 555.884 285.055 555.964C284.485 556.044 283.93 556.084 283.39 556.084C282.32 556.084 281.325 555.909 280.405 555.559C279.485 555.199 278.685 554.674 278.005 553.984C277.325 553.284 276.79 552.424 276.4 551.404C276.01 550.374 275.815 549.184 275.815 547.834C275.815 546.784 275.985 545.799 276.325 544.879C276.665 543.949 277.15 543.144 277.78 542.464C278.42 541.774 279.195 541.229 280.105 540.829C281.025 540.429 282.06 540.229 283.21 540.229C284.18 540.229 285.075 540.384 285.895 540.694C286.715 541.004 287.42 541.459 288.01 542.059C288.6 542.649 289.06 543.379 289.39 544.249C289.73 545.109 289.9 546.094 289.9 547.204C289.9 547.764 289.84 548.144 289.72 548.344C289.6 548.534 289.37 548.629 289.03 548.629H279.505ZM303.706 543.724C303.596 543.864 303.486 543.974 303.376 544.054C303.276 544.134 303.126 544.174 302.926 544.174C302.736 544.174 302.551 544.119 302.371 544.009C302.191 543.889 301.976 543.759 301.726 543.619C301.476 543.469 301.176 543.339 300.826 543.229C300.486 543.109 300.061 543.049 299.551 543.049C298.901 543.049 298.331 543.169 297.841 543.409C297.351 543.639 296.941 543.974 296.611 544.414C296.291 544.854 296.051 545.389 295.891 546.019C295.731 546.639 295.651 547.344 295.651 548.134C295.651 548.954 295.736 549.684 295.906 550.324C296.086 550.964 296.341 551.504 296.671 551.944C297.001 552.374 297.401 552.704 297.871 552.934C298.341 553.154 298.871 553.264 299.461 553.264C300.051 553.264 300.526 553.194 300.886 553.054C301.256 552.904 301.566 552.744 301.816 552.574C302.066 552.394 302.281 552.234 302.461 552.094C302.651 551.944 302.861 551.869 303.091 551.869C303.391 551.869 303.616 551.984 303.766 552.214L304.831 553.564C304.421 554.044 303.976 554.449 303.496 554.779C303.016 555.099 302.516 555.359 301.996 555.559C301.486 555.749 300.956 555.884 300.406 555.964C299.866 556.044 299.326 556.084 298.786 556.084C297.836 556.084 296.941 555.909 296.101 555.559C295.261 555.199 294.526 554.679 293.896 553.999C293.266 553.319 292.766 552.489 292.396 551.509C292.036 550.519 291.856 549.394 291.856 548.134C291.856 547.004 292.016 545.959 292.336 544.999C292.666 544.029 293.146 543.194 293.776 542.494C294.406 541.784 295.186 541.229 296.116 540.829C297.046 540.429 298.116 540.229 299.326 540.229C300.476 540.229 301.481 540.414 302.341 540.784C303.211 541.154 303.991 541.684 304.681 542.374L303.706 543.724ZM322.678 555.859H318.973V543.244H311.833V551.584C311.833 552.064 311.948 552.439 312.178 552.709C312.418 552.979 312.743 553.114 313.153 553.114C313.383 553.114 313.573 553.089 313.723 553.039C313.883 552.979 314.018 552.919 314.128 552.859C314.248 552.799 314.353 552.744 314.443 552.694C314.533 552.634 314.623 552.604 314.713 552.604C314.823 552.604 314.913 552.634 314.983 552.694C315.053 552.744 315.128 552.824 315.208 552.934L316.318 554.734C315.778 555.184 315.158 555.524 314.458 555.754C313.758 555.984 313.033 556.099 312.283 556.099C310.943 556.099 309.913 555.724 309.193 554.974C308.483 554.214 308.128 553.169 308.128 551.839V543.244H306.553C306.353 543.244 306.183 543.179 306.043 543.049C305.903 542.919 305.833 542.724 305.833 542.464V540.994L308.308 540.574L309.088 536.389C309.138 536.189 309.233 536.034 309.373 535.924C309.513 535.814 309.693 535.759 309.913 535.759H311.833V540.604H322.678V555.859ZM323.323 535.924C323.323 536.244 323.258 536.549 323.128 536.839C322.998 537.119 322.823 537.364 322.603 537.574C322.393 537.784 322.138 537.954 321.838 538.084C321.548 538.204 321.238 538.264 320.908 538.264C320.588 538.264 320.288 538.204 320.008 538.084C319.728 537.954 319.483 537.784 319.273 537.574C319.063 537.364 318.893 537.119 318.763 536.839C318.643 536.549 318.583 536.244 318.583 535.924C318.583 535.594 318.643 535.289 318.763 535.009C318.893 534.719 319.063 534.469 319.273 534.259C319.483 534.039 319.728 533.869 320.008 533.749C320.288 533.619 320.588 533.554 320.908 533.554C321.238 533.554 321.548 533.619 321.838 533.749C322.138 533.869 322.393 534.039 322.603 534.259C322.823 534.469 322.998 534.719 323.128 535.009C323.258 535.289 323.323 535.594 323.323 535.924ZM333.27 540.229C334.41 540.229 335.445 540.414 336.375 540.784C337.315 541.154 338.115 541.679 338.775 542.359C339.445 543.039 339.96 543.869 340.32 544.849C340.68 545.829 340.86 546.924 340.86 548.134C340.86 549.354 340.68 550.454 340.32 551.434C339.96 552.414 339.445 553.249 338.775 553.939C338.115 554.629 337.315 555.159 336.375 555.529C335.445 555.899 334.41 556.084 333.27 556.084C332.12 556.084 331.075 555.899 330.135 555.529C329.195 555.159 328.39 554.629 327.72 553.939C327.06 553.249 326.545 552.414 326.175 551.434C325.815 550.454 325.635 549.354 325.635 548.134C325.635 546.924 325.815 545.829 326.175 544.849C326.545 543.869 327.06 543.039 327.72 542.359C328.39 541.679 329.195 541.154 330.135 540.784C331.075 540.414 332.12 540.229 333.27 540.229ZM333.27 553.234C334.55 553.234 335.495 552.804 336.105 551.944C336.725 551.084 337.035 549.824 337.035 548.164C337.035 546.504 336.725 545.239 336.105 544.369C335.495 543.499 334.55 543.064 333.27 543.064C331.97 543.064 331.005 543.504 330.375 544.384C329.755 545.254 329.445 546.514 329.445 548.164C329.445 549.814 329.755 551.074 330.375 551.944C331.005 552.804 331.97 553.234 333.27 553.234ZM347.152 542.359C347.462 542.049 347.787 541.764 348.127 541.504C348.477 541.234 348.842 541.009 349.222 540.829C349.612 540.639 350.027 540.494 350.467 540.394C350.907 540.284 351.387 540.229 351.907 540.229C352.747 540.229 353.492 540.374 354.142 540.664C354.792 540.944 355.332 541.344 355.762 541.864C356.202 542.374 356.532 542.989 356.752 543.709C356.982 544.419 357.097 545.204 357.097 546.064V555.859H353.392V546.064C353.392 545.124 353.177 544.399 352.747 543.889C352.317 543.369 351.662 543.109 350.782 543.109C350.142 543.109 349.542 543.254 348.982 543.544C348.422 543.834 347.892 544.229 347.392 544.729V555.859H343.687V540.469H345.952C346.432 540.469 346.747 540.694 346.897 541.144L347.152 542.359Z" fill="white"/>
<path d="M389 61.9046C400.598 61.9046 410 52.5173 410 40.9374C410 29.3575 400.598 19.9702 389 19.9702C377.402 19.9702 368 29.3575 368 40.9374C368 52.5173 377.402 61.9046 389 61.9046Z" stroke="white" stroke-linecap="round" stroke-linejoin="round"/>
<path d="M384 36.9437L388 40.9374L384 44.9312" stroke="white" stroke-linecap="round" stroke-linejoin="round"/>
<path d="M389.8 36.9437L393.8 40.9374L389.8 44.9312" stroke="white" stroke-linecap="round" stroke-linejoin="round"/>
<defs>
<linearGradient id="paint0_linear_3929_2211" x1="218.5" y1="0" x2="218.5" y2="640" gradientUnits="userSpaceOnUse">
<stop stop-opacity="0.2"/>
<stop offset="1"/>
</linearGradient>
</defs>
</svg>
