<svg width="437" height="639" viewBox="0 0 437 639" fill="none" xmlns="http://www.w3.org/2000/svg">
<rect width="437" height="639" fill="url(#paint0_linear_3929_3370)"/>
<path d="M389 60.9047C400.598 60.9047 410 51.5174 410 39.9375C410 28.3577 400.598 18.9703 389 18.9703C377.402 18.9703 368 28.3577 368 39.9375C368 51.5174 377.402 60.9047 389 60.9047Z" stroke="white" stroke-linecap="round" stroke-linejoin="round"/>
<path d="M384 35.9438L388 39.9375L384 43.9313" stroke="white" stroke-linecap="round" stroke-linejoin="round"/>
<path d="M389.8 35.9438L393.8 39.9375L389.8 43.9313" stroke="white" stroke-linecap="round" stroke-linejoin="round"/>
<path d="M65.268 583.416C65.396 583.416 65.508 583.468 65.604 583.572L66.528 584.568C65.824 585.384 64.968 586.02 63.96 586.476C62.96 586.932 61.748 587.16 60.324 587.16C59.092 587.16 57.972 586.948 56.964 586.524C55.956 586.092 55.096 585.492 54.384 584.724C53.672 583.948 53.12 583.02 52.728 581.94C52.336 580.86 52.14 579.672 52.14 578.376C52.14 577.08 52.344 575.892 52.752 574.812C53.16 573.732 53.732 572.804 54.468 572.028C55.212 571.252 56.1 570.652 57.132 570.228C58.164 569.796 59.304 569.58 60.552 569.58C61.776 569.58 62.856 569.776 63.792 570.168C64.728 570.56 65.552 571.092 66.264 571.764L65.496 572.832C65.448 572.912 65.384 572.98 65.304 573.036C65.232 573.084 65.132 573.108 65.004 573.108C64.86 573.108 64.684 573.032 64.476 572.88C64.268 572.72 63.996 572.544 63.66 572.352C63.324 572.16 62.904 571.988 62.4 571.836C61.896 571.676 61.276 571.596 60.54 571.596C59.652 571.596 58.84 571.752 58.104 572.064C57.368 572.368 56.732 572.812 56.196 573.396C55.668 573.98 55.256 574.692 54.96 575.532C54.664 576.372 54.516 577.32 54.516 578.376C54.516 579.448 54.668 580.404 54.972 581.244C55.284 582.084 55.704 582.796 56.232 583.38C56.768 583.956 57.396 584.396 58.116 584.7C58.844 585.004 59.628 585.156 60.468 585.156C60.98 585.156 61.44 585.128 61.848 585.072C62.264 585.008 62.644 584.912 62.988 584.784C63.34 584.656 63.664 584.496 63.96 584.304C64.264 584.104 64.564 583.868 64.86 583.596C64.996 583.476 65.132 583.416 65.268 583.416ZM73.6129 574.62C74.5009 574.62 75.3009 574.768 76.0129 575.064C76.7249 575.36 77.3329 575.78 77.8369 576.324C78.3409 576.868 78.7249 577.528 78.9889 578.304C79.2609 579.072 79.3969 579.932 79.3969 580.884C79.3969 581.844 79.2609 582.708 78.9889 583.476C78.7249 584.244 78.3409 584.9 77.8369 585.444C77.3329 585.988 76.7249 586.408 76.0129 586.704C75.3009 586.992 74.5009 587.136 73.6129 587.136C72.7169 587.136 71.9089 586.992 71.1889 586.704C70.4769 586.408 69.8689 585.988 69.3649 585.444C68.8609 584.9 68.4729 584.244 68.2009 583.476C67.9369 582.708 67.8049 581.844 67.8049 580.884C67.8049 579.932 67.9369 579.072 68.2009 578.304C68.4729 577.528 68.8609 576.868 69.3649 576.324C69.8689 575.78 70.4769 575.36 71.1889 575.064C71.9089 574.768 72.7169 574.62 73.6129 574.62ZM73.6129 585.468C74.8129 585.468 75.7089 585.068 76.3009 584.268C76.8929 583.46 77.1889 582.336 77.1889 580.896C77.1889 579.448 76.8929 578.32 76.3009 577.512C75.7089 576.704 74.8129 576.3 73.6129 576.3C73.0049 576.3 72.4729 576.404 72.0169 576.612C71.5689 576.82 71.1929 577.12 70.8889 577.512C70.5929 577.904 70.3689 578.388 70.2169 578.964C70.0729 579.532 70.0009 580.176 70.0009 580.896C70.0009 582.336 70.2969 583.46 70.8889 584.268C71.4889 585.068 72.3969 585.468 73.6129 585.468ZM84.1341 577.248C84.5181 576.416 84.9901 575.768 85.5501 575.304C86.1101 574.832 86.7941 574.596 87.6021 574.596C87.8581 574.596 88.1021 574.624 88.3341 574.68C88.5741 574.736 88.7861 574.824 88.9701 574.944L88.8141 576.54C88.7661 576.74 88.6461 576.84 88.4541 576.84C88.3421 576.84 88.1781 576.816 87.9621 576.768C87.7461 576.72 87.5021 576.696 87.2301 576.696C86.8461 576.696 86.5021 576.752 86.1981 576.864C85.9021 576.976 85.6341 577.144 85.3941 577.368C85.1621 577.584 84.9501 577.856 84.7581 578.184C84.5741 578.504 84.4061 578.872 84.2541 579.288V586.968H82.1061V574.812H83.3301C83.5621 574.812 83.7221 574.856 83.8101 574.944C83.8981 575.032 83.9581 575.184 83.9901 575.4L84.1341 577.248ZM92.9963 584.04C93.3883 584.568 93.8163 584.94 94.2803 585.156C94.7443 585.372 95.2643 585.48 95.8403 585.48C96.9763 585.48 97.8483 585.076 98.4563 584.268C99.0643 583.46 99.3683 582.308 99.3683 580.812C99.3683 580.02 99.2963 579.34 99.1523 578.772C99.0163 578.204 98.8163 577.74 98.5523 577.38C98.2883 577.012 97.9643 576.744 97.5803 576.576C97.1963 576.408 96.7603 576.324 96.2723 576.324C95.5763 576.324 94.9643 576.484 94.4363 576.804C93.9163 577.124 93.4363 577.576 92.9963 578.16V584.04ZM92.8883 576.696C93.4003 576.064 93.9923 575.556 94.6643 575.172C95.3363 574.788 96.1043 574.596 96.9683 574.596C97.6723 574.596 98.3083 574.732 98.8763 575.004C99.4443 575.268 99.9283 575.664 100.328 576.192C100.728 576.712 101.036 577.36 101.252 578.136C101.468 578.912 101.576 579.804 101.576 580.812C101.576 581.708 101.456 582.544 101.216 583.32C100.976 584.088 100.628 584.756 100.172 585.324C99.7243 585.884 99.1723 586.328 98.5163 586.656C97.8683 586.976 97.1363 587.136 96.3203 587.136C95.5763 587.136 94.9363 587.012 94.4003 586.764C93.8723 586.508 93.4043 586.156 92.9963 585.708V591.084H90.8483V574.812H92.1323C92.4363 574.812 92.6243 574.96 92.6963 575.256L92.8883 576.696ZM109.425 574.62C110.313 574.62 111.113 574.768 111.825 575.064C112.537 575.36 113.145 575.78 113.649 576.324C114.153 576.868 114.537 577.528 114.801 578.304C115.073 579.072 115.209 579.932 115.209 580.884C115.209 581.844 115.073 582.708 114.801 583.476C114.537 584.244 114.153 584.9 113.649 585.444C113.145 585.988 112.537 586.408 111.825 586.704C111.113 586.992 110.313 587.136 109.425 587.136C108.529 587.136 107.721 586.992 107.001 586.704C106.289 586.408 105.681 585.988 105.177 585.444C104.673 584.9 104.285 584.244 104.013 583.476C103.749 582.708 103.617 581.844 103.617 580.884C103.617 579.932 103.749 579.072 104.013 578.304C104.285 577.528 104.673 576.868 105.177 576.324C105.681 575.78 106.289 575.36 107.001 575.064C107.721 574.768 108.529 574.62 109.425 574.62ZM109.425 585.468C110.625 585.468 111.521 585.068 112.113 584.268C112.705 583.46 113.001 582.336 113.001 580.896C113.001 579.448 112.705 578.32 112.113 577.512C111.521 576.704 110.625 576.3 109.425 576.3C108.817 576.3 108.285 576.404 107.829 576.612C107.381 576.82 107.005 577.12 106.701 577.512C106.405 577.904 106.181 578.388 106.029 578.964C105.885 579.532 105.813 580.176 105.813 580.896C105.813 582.336 106.109 583.46 106.701 584.268C107.301 585.068 108.209 585.468 109.425 585.468ZM119.947 577.248C120.331 576.416 120.803 575.768 121.363 575.304C121.923 574.832 122.607 574.596 123.415 574.596C123.671 574.596 123.915 574.624 124.147 574.68C124.387 574.736 124.599 574.824 124.783 574.944L124.627 576.54C124.579 576.74 124.459 576.84 124.267 576.84C124.155 576.84 123.991 576.816 123.775 576.768C123.559 576.72 123.315 576.696 123.043 576.696C122.659 576.696 122.315 576.752 122.011 576.864C121.715 576.976 121.447 577.144 121.207 577.368C120.975 577.584 120.763 577.856 120.571 578.184C120.387 578.504 120.219 578.872 120.067 579.288V586.968H117.919V574.812H119.143C119.375 574.812 119.535 574.856 119.623 574.944C119.711 575.032 119.771 575.184 119.803 575.4L119.947 577.248ZM133.061 581.496C132.077 581.528 131.237 581.608 130.541 581.736C129.853 581.856 129.289 582.016 128.849 582.216C128.417 582.416 128.101 582.652 127.901 582.924C127.709 583.196 127.613 583.5 127.613 583.836C127.613 584.156 127.665 584.432 127.769 584.664C127.873 584.896 128.013 585.088 128.189 585.24C128.373 585.384 128.585 585.492 128.825 585.564C129.073 585.628 129.337 585.66 129.617 585.66C129.993 585.66 130.337 585.624 130.649 585.552C130.961 585.472 131.253 585.36 131.525 585.216C131.805 585.072 132.069 584.9 132.317 584.7C132.573 584.5 132.821 584.272 133.061 584.016V581.496ZM126.161 576.528C126.833 575.88 127.557 575.396 128.333 575.076C129.109 574.756 129.969 574.596 130.913 574.596C131.593 574.596 132.197 574.708 132.725 574.932C133.253 575.156 133.697 575.468 134.057 575.868C134.417 576.268 134.689 576.752 134.873 577.32C135.057 577.888 135.149 578.512 135.149 579.192V586.968H134.201C133.993 586.968 133.833 586.936 133.721 586.872C133.609 586.8 133.521 586.664 133.457 586.464L133.217 585.312C132.897 585.608 132.585 585.872 132.281 586.104C131.977 586.328 131.657 586.52 131.321 586.68C130.985 586.832 130.625 586.948 130.241 587.028C129.865 587.116 129.445 587.16 128.981 587.16C128.509 587.16 128.065 587.096 127.649 586.968C127.233 586.832 126.869 586.632 126.557 586.368C126.253 586.104 126.009 585.772 125.825 585.372C125.649 584.964 125.561 584.484 125.561 583.932C125.561 583.452 125.693 582.992 125.957 582.552C126.221 582.104 126.649 581.708 127.241 581.364C127.833 581.02 128.605 580.74 129.557 580.524C130.509 580.3 131.677 580.172 133.061 580.14V579.192C133.061 578.248 132.857 577.536 132.449 577.056C132.041 576.568 131.445 576.324 130.661 576.324C130.133 576.324 129.689 576.392 129.329 576.528C128.977 576.656 128.669 576.804 128.405 576.972C128.149 577.132 127.925 577.28 127.733 577.416C127.549 577.544 127.365 577.608 127.181 577.608C127.037 577.608 126.913 577.572 126.809 577.5C126.705 577.42 126.617 577.324 126.545 577.212L126.161 576.528ZM141.971 587.16C141.011 587.16 140.271 586.892 139.751 586.356C139.239 585.82 138.983 585.048 138.983 584.04V576.6H137.519C137.391 576.6 137.283 576.564 137.195 576.492C137.107 576.412 137.063 576.292 137.063 576.132V575.28L139.055 575.028L139.547 571.272C139.571 571.152 139.623 571.056 139.703 570.984C139.791 570.904 139.903 570.864 140.039 570.864H141.119V575.052H144.635V576.6H141.119V583.896C141.119 584.408 141.243 584.788 141.491 585.036C141.739 585.284 142.059 585.408 142.451 585.408C142.675 585.408 142.867 585.38 143.027 585.324C143.195 585.26 143.339 585.192 143.459 585.12C143.579 585.048 143.679 584.984 143.759 584.928C143.847 584.864 143.923 584.832 143.987 584.832C144.099 584.832 144.199 584.9 144.287 585.036L144.911 586.056C144.543 586.4 144.099 586.672 143.579 586.872C143.059 587.064 142.523 587.16 141.971 587.16ZM154.906 579.564C154.906 579.068 154.834 578.616 154.69 578.208C154.554 577.792 154.35 577.436 154.078 577.14C153.814 576.836 153.49 576.604 153.106 576.444C152.722 576.276 152.286 576.192 151.798 576.192C150.774 576.192 149.962 576.492 149.362 577.092C148.77 577.684 148.402 578.508 148.258 579.564H154.906ZM156.634 585.264C156.37 585.584 156.054 585.864 155.686 586.104C155.318 586.336 154.922 586.528 154.498 586.68C154.082 586.832 153.65 586.944 153.202 587.016C152.754 587.096 152.31 587.136 151.87 587.136C151.03 587.136 150.254 586.996 149.542 586.716C148.838 586.428 148.226 586.012 147.706 585.468C147.194 584.916 146.794 584.236 146.506 583.428C146.218 582.62 146.074 581.692 146.074 580.644C146.074 579.796 146.202 579.004 146.458 578.268C146.722 577.532 147.098 576.896 147.586 576.36C148.074 575.816 148.67 575.392 149.374 575.088C150.078 574.776 150.87 574.62 151.75 574.62C152.478 574.62 153.15 574.744 153.766 574.992C154.39 575.232 154.926 575.584 155.374 576.048C155.83 576.504 156.186 577.072 156.442 577.752C156.698 578.424 156.826 579.192 156.826 580.056C156.826 580.392 156.79 580.616 156.718 580.728C156.646 580.84 156.51 580.896 156.31 580.896H148.186C148.21 581.664 148.314 582.332 148.498 582.9C148.69 583.468 148.954 583.944 149.29 584.328C149.626 584.704 150.026 584.988 150.49 585.18C150.954 585.364 151.474 585.456 152.05 585.456C152.586 585.456 153.046 585.396 153.43 585.276C153.822 585.148 154.158 585.012 154.438 584.868C154.718 584.724 154.95 584.592 155.134 584.472C155.326 584.344 155.49 584.28 155.626 584.28C155.802 584.28 155.938 584.348 156.034 584.484L156.634 585.264ZM188.05 569.772L182.686 586.968H180.598L176.242 573.852C176.202 573.724 176.162 573.588 176.122 573.444C176.09 573.3 176.054 573.148 176.014 572.988C175.974 573.148 175.934 573.3 175.894 573.444C175.854 573.588 175.814 573.724 175.774 573.852L171.394 586.968H169.306L163.942 569.772H165.874C166.082 569.772 166.254 569.824 166.39 569.928C166.534 570.032 166.626 570.164 166.666 570.324L170.218 582.276C170.274 582.492 170.326 582.724 170.374 582.972C170.43 583.22 170.482 583.484 170.53 583.764C170.586 583.484 170.642 583.22 170.698 582.972C170.762 582.716 170.83 582.484 170.902 582.276L174.946 570.324C174.994 570.188 175.086 570.064 175.222 569.952C175.366 569.832 175.538 569.772 175.738 569.772H176.41C176.618 569.772 176.786 569.824 176.914 569.928C177.042 570.032 177.138 570.164 177.202 570.324L181.234 582.276C181.306 582.484 181.37 582.708 181.426 582.948C181.49 583.188 181.55 583.44 181.606 583.704C181.646 583.44 181.69 583.188 181.738 582.948C181.786 582.708 181.838 582.484 181.894 582.276L185.458 570.324C185.498 570.18 185.586 570.052 185.722 569.94C185.866 569.828 186.038 569.772 186.238 569.772H188.05ZM196.883 579.564C196.883 579.068 196.811 578.616 196.667 578.208C196.531 577.792 196.327 577.436 196.055 577.14C195.791 576.836 195.467 576.604 195.083 576.444C194.699 576.276 194.263 576.192 193.775 576.192C192.751 576.192 191.939 576.492 191.339 577.092C190.747 577.684 190.379 578.508 190.235 579.564H196.883ZM198.611 585.264C198.347 585.584 198.031 585.864 197.663 586.104C197.295 586.336 196.899 586.528 196.475 586.68C196.059 586.832 195.627 586.944 195.179 587.016C194.731 587.096 194.287 587.136 193.847 587.136C193.007 587.136 192.231 586.996 191.519 586.716C190.815 586.428 190.203 586.012 189.683 585.468C189.171 584.916 188.771 584.236 188.483 583.428C188.195 582.62 188.051 581.692 188.051 580.644C188.051 579.796 188.179 579.004 188.435 578.268C188.699 577.532 189.075 576.896 189.563 576.36C190.051 575.816 190.647 575.392 191.351 575.088C192.055 574.776 192.847 574.62 193.727 574.62C194.455 574.62 195.127 574.744 195.743 574.992C196.367 575.232 196.903 575.584 197.351 576.048C197.807 576.504 198.163 577.072 198.419 577.752C198.675 578.424 198.803 579.192 198.803 580.056C198.803 580.392 198.767 580.616 198.695 580.728C198.623 580.84 198.487 580.896 198.287 580.896H190.163C190.187 581.664 190.291 582.332 190.475 582.9C190.667 583.468 190.931 583.944 191.267 584.328C191.603 584.704 192.003 584.988 192.467 585.18C192.931 585.364 193.451 585.456 194.027 585.456C194.563 585.456 195.023 585.396 195.407 585.276C195.799 585.148 196.135 585.012 196.415 584.868C196.695 584.724 196.927 584.592 197.111 584.472C197.303 584.344 197.467 584.28 197.603 584.28C197.779 584.28 197.915 584.348 198.011 584.484L198.611 585.264ZM203.574 584.04C203.966 584.568 204.394 584.94 204.858 585.156C205.33 585.372 205.846 585.48 206.406 585.48C207.55 585.48 208.426 585.076 209.034 584.268C209.642 583.46 209.946 582.256 209.946 580.656C209.946 579.168 209.674 578.076 209.13 577.38C208.594 576.676 207.826 576.324 206.826 576.324C206.13 576.324 205.522 576.484 205.002 576.804C204.49 577.124 204.014 577.576 203.574 578.16V584.04ZM203.574 576.564C204.086 575.972 204.662 575.5 205.302 575.148C205.95 574.796 206.694 574.62 207.534 574.62C208.246 574.62 208.886 574.756 209.454 575.028C210.03 575.3 210.518 575.696 210.918 576.216C211.318 576.728 211.622 577.352 211.83 578.088C212.046 578.824 212.154 579.652 212.154 580.572C212.154 581.556 212.034 582.452 211.794 583.26C211.554 584.068 211.206 584.76 210.75 585.336C210.302 585.904 209.754 586.348 209.106 586.668C208.458 586.98 207.73 587.136 206.922 587.136C206.122 587.136 205.446 586.988 204.894 586.692C204.35 586.388 203.874 585.96 203.466 585.408L203.358 586.512C203.294 586.816 203.11 586.968 202.806 586.968H201.426V569.292H203.574V576.564ZM221.936 576.816C221.84 576.992 221.692 577.08 221.492 577.08C221.372 577.08 221.236 577.036 221.084 576.948C220.932 576.86 220.744 576.764 220.52 576.66C220.304 576.548 220.044 576.448 219.74 576.36C219.436 576.264 219.076 576.216 218.66 576.216C218.3 576.216 217.976 576.264 217.688 576.36C217.4 576.448 217.152 576.572 216.944 576.732C216.744 576.892 216.588 577.08 216.476 577.296C216.372 577.504 216.32 577.732 216.32 577.98C216.32 578.292 216.408 578.552 216.584 578.76C216.768 578.968 217.008 579.148 217.304 579.3C217.6 579.452 217.936 579.588 218.312 579.708C218.688 579.82 219.072 579.944 219.464 580.08C219.864 580.208 220.252 580.352 220.628 580.512C221.004 580.672 221.34 580.872 221.636 581.112C221.932 581.352 222.168 581.648 222.344 582C222.528 582.344 222.62 582.76 222.62 583.248C222.62 583.808 222.52 584.328 222.32 584.808C222.12 585.28 221.824 585.692 221.432 586.044C221.04 586.388 220.56 586.66 219.992 586.86C219.424 587.06 218.768 587.16 218.024 587.16C217.176 587.16 216.408 587.024 215.72 586.752C215.032 586.472 214.448 586.116 213.968 585.684L214.472 584.868C214.536 584.764 214.612 584.684 214.7 584.628C214.788 584.572 214.9 584.544 215.036 584.544C215.18 584.544 215.332 584.6 215.492 584.712C215.652 584.824 215.844 584.948 216.068 585.084C216.3 585.22 216.58 585.344 216.908 585.456C217.236 585.568 217.644 585.624 218.132 585.624C218.548 585.624 218.912 585.572 219.224 585.468C219.536 585.356 219.796 585.208 220.004 585.024C220.212 584.84 220.364 584.628 220.46 584.388C220.564 584.148 220.616 583.892 220.616 583.62C220.616 583.284 220.524 583.008 220.34 582.792C220.164 582.568 219.928 582.38 219.632 582.228C219.336 582.068 218.996 581.932 218.612 581.82C218.236 581.7 217.848 581.576 217.448 581.448C217.056 581.32 216.668 581.176 216.284 581.016C215.908 580.848 215.572 580.64 215.276 580.392C214.98 580.144 214.74 579.84 214.556 579.48C214.38 579.112 214.292 578.668 214.292 578.148C214.292 577.684 214.388 577.24 214.58 576.816C214.772 576.384 215.052 576.008 215.42 575.688C215.788 575.36 216.24 575.1 216.776 574.908C217.312 574.716 217.924 574.62 218.612 574.62C219.412 574.62 220.128 574.748 220.76 575.004C221.4 575.252 221.952 575.596 222.416 576.036L221.936 576.816ZM227.495 574.812V586.968H225.359V574.812H227.495ZM227.951 570.996C227.951 571.204 227.907 571.4 227.819 571.584C227.739 571.76 227.627 571.92 227.483 572.064C227.347 572.2 227.183 572.308 226.991 572.388C226.807 572.468 226.611 572.508 226.403 572.508C226.195 572.508 225.999 572.468 225.815 572.388C225.639 572.308 225.483 572.2 225.347 572.064C225.211 571.92 225.103 571.76 225.023 571.584C224.943 571.4 224.903 571.204 224.903 570.996C224.903 570.788 224.943 570.592 225.023 570.408C225.103 570.216 225.211 570.052 225.347 569.916C225.483 569.772 225.639 569.66 225.815 569.58C225.999 569.5 226.195 569.46 226.403 569.46C226.611 569.46 226.807 569.5 226.991 569.58C227.183 569.66 227.347 569.772 227.483 569.916C227.627 570.052 227.739 570.216 227.819 570.408C227.907 570.592 227.951 570.788 227.951 570.996ZM234.737 587.16C233.777 587.16 233.037 586.892 232.517 586.356C232.005 585.82 231.749 585.048 231.749 584.04V576.6H230.285C230.157 576.6 230.049 576.564 229.961 576.492C229.873 576.412 229.829 576.292 229.829 576.132V575.28L231.821 575.028L232.312 571.272C232.337 571.152 232.389 571.056 232.469 570.984C232.557 570.904 232.669 570.864 232.805 570.864H233.885V575.052H237.401V576.6H233.885V583.896C233.885 584.408 234.009 584.788 234.257 585.036C234.505 585.284 234.825 585.408 235.217 585.408C235.441 585.408 235.633 585.38 235.793 585.324C235.961 585.26 236.105 585.192 236.225 585.12C236.345 585.048 236.445 584.984 236.525 584.928C236.613 584.864 236.689 584.832 236.753 584.832C236.865 584.832 236.965 584.9 237.053 585.036L237.677 586.056C237.309 586.4 236.865 586.672 236.345 586.872C235.825 587.064 235.289 587.16 234.737 587.16ZM247.672 579.564C247.672 579.068 247.6 578.616 247.456 578.208C247.32 577.792 247.116 577.436 246.844 577.14C246.58 576.836 246.256 576.604 245.872 576.444C245.488 576.276 245.052 576.192 244.564 576.192C243.54 576.192 242.728 576.492 242.128 577.092C241.536 577.684 241.168 578.508 241.024 579.564H247.672ZM249.4 585.264C249.136 585.584 248.82 585.864 248.452 586.104C248.084 586.336 247.688 586.528 247.264 586.68C246.848 586.832 246.416 586.944 245.968 587.016C245.52 587.096 245.076 587.136 244.636 587.136C243.796 587.136 243.02 586.996 242.308 586.716C241.604 586.428 240.992 586.012 240.472 585.468C239.96 584.916 239.56 584.236 239.272 583.428C238.984 582.62 238.84 581.692 238.84 580.644C238.84 579.796 238.968 579.004 239.224 578.268C239.488 577.532 239.864 576.896 240.352 576.36C240.84 575.816 241.436 575.392 242.14 575.088C242.844 574.776 243.636 574.62 244.516 574.62C245.244 574.62 245.916 574.744 246.532 574.992C247.156 575.232 247.692 575.584 248.14 576.048C248.596 576.504 248.952 577.072 249.208 577.752C249.464 578.424 249.592 579.192 249.592 580.056C249.592 580.392 249.556 580.616 249.484 580.728C249.412 580.84 249.276 580.896 249.076 580.896H240.952C240.976 581.664 241.08 582.332 241.264 582.9C241.456 583.468 241.72 583.944 242.056 584.328C242.392 584.704 242.792 584.988 243.256 585.18C243.72 585.364 244.24 585.456 244.816 585.456C245.352 585.456 245.812 585.396 246.196 585.276C246.588 585.148 246.924 585.012 247.204 584.868C247.484 584.724 247.716 584.592 247.9 584.472C248.092 584.344 248.256 584.28 248.392 584.28C248.568 584.28 248.704 584.348 248.8 584.484L249.4 585.264Z" fill="#EAEDED"/>
<path d="M59.97 543.655C60.73 543.655 61.39 543.56 61.95 543.37C62.52 543.18 62.985 542.92 63.345 542.59C63.715 542.25 63.99 541.85 64.17 541.39C64.35 540.93 64.44 540.425 64.44 539.875C64.44 538.775 64.075 537.93 63.345 537.34C62.625 536.75 61.52 536.455 60.03 536.455H57.45V543.655H59.97ZM70.35 555.025H66.705C66.015 555.025 65.515 554.755 65.205 554.215L60.645 547.27C60.475 547.01 60.285 546.825 60.075 546.715C59.875 546.605 59.575 546.55 59.175 546.55H57.45V555.025H53.415V533.335H60.03C61.5 533.335 62.76 533.49 63.81 533.8C64.87 534.1 65.735 534.525 66.405 535.075C67.085 535.625 67.585 536.285 67.905 537.055C68.225 537.815 68.385 538.655 68.385 539.575C68.385 540.305 68.275 540.995 68.055 541.645C67.845 542.295 67.535 542.885 67.125 543.415C66.725 543.945 66.225 544.41 65.625 544.81C65.035 545.21 64.36 545.525 63.6 545.755C63.86 545.905 64.1 546.085 64.32 546.295C64.54 546.495 64.74 546.735 64.92 547.015L70.35 555.025ZM80.003 548.455C78.933 548.505 78.033 548.6 77.303 548.74C76.573 548.87 75.988 549.04 75.548 549.25C75.108 549.46 74.793 549.705 74.603 549.985C74.413 550.265 74.318 550.57 74.318 550.9C74.318 551.55 74.508 552.015 74.888 552.295C75.278 552.575 75.783 552.715 76.403 552.715C77.163 552.715 77.818 552.58 78.368 552.31C78.928 552.03 79.473 551.61 80.003 551.05V548.455ZM71.513 541.78C73.283 540.16 75.413 539.35 77.903 539.35C78.803 539.35 79.608 539.5 80.318 539.8C81.028 540.09 81.628 540.5 82.118 541.03C82.608 541.55 82.978 542.175 83.228 542.905C83.488 543.635 83.618 544.435 83.618 545.305V555.025H81.938C81.588 555.025 81.318 554.975 81.128 554.875C80.938 554.765 80.788 554.55 80.678 554.23L80.348 553.12C79.958 553.47 79.578 553.78 79.208 554.05C78.838 554.31 78.453 554.53 78.053 554.71C77.653 554.89 77.223 555.025 76.763 555.115C76.313 555.215 75.813 555.265 75.263 555.265C74.613 555.265 74.013 555.18 73.463 555.01C72.913 554.83 72.438 554.565 72.038 554.215C71.638 553.865 71.328 553.43 71.108 552.91C70.888 552.39 70.778 551.785 70.778 551.095C70.778 550.705 70.843 550.32 70.973 549.94C71.103 549.55 71.313 549.18 71.603 548.83C71.903 548.48 72.288 548.15 72.758 547.84C73.228 547.53 73.803 547.26 74.483 547.03C75.173 546.8 75.973 546.615 76.883 546.475C77.793 546.325 78.833 546.235 80.003 546.205V545.305C80.003 544.275 79.783 543.515 79.343 543.025C78.903 542.525 78.268 542.275 77.438 542.275C76.838 542.275 76.338 542.345 75.938 542.485C75.548 542.625 75.203 542.785 74.903 542.965C74.603 543.135 74.328 543.29 74.078 543.43C73.838 543.57 73.568 543.64 73.268 543.64C73.008 543.64 72.788 543.575 72.608 543.445C72.428 543.305 72.283 543.145 72.173 542.965L71.513 541.78ZM90.8123 551.035C91.2323 551.545 91.6873 551.905 92.1773 552.115C92.6773 552.325 93.2173 552.43 93.7973 552.43C94.3573 552.43 94.8623 552.325 95.3123 552.115C95.7623 551.905 96.1423 551.585 96.4523 551.155C96.7723 550.725 97.0173 550.185 97.1873 549.535C97.3573 548.875 97.4423 548.1 97.4423 547.21C97.4423 546.31 97.3673 545.55 97.2173 544.93C97.0773 544.3 96.8723 543.79 96.6023 543.4C96.3323 543.01 96.0023 542.725 95.6123 542.545C95.2323 542.365 94.7973 542.275 94.3073 542.275C93.5373 542.275 92.8823 542.44 92.3423 542.77C91.8023 543.09 91.2923 543.545 90.8123 544.135V551.035ZM90.6173 541.735C91.2473 541.025 91.9623 540.45 92.7623 540.01C93.5623 539.57 94.5023 539.35 95.5823 539.35C96.4223 539.35 97.1873 539.525 97.8773 539.875C98.5773 540.225 99.1773 540.735 99.6773 541.405C100.187 542.065 100.577 542.885 100.847 543.865C101.127 544.835 101.267 545.95 101.267 547.21C101.267 548.36 101.112 549.425 100.802 550.405C100.492 551.385 100.047 552.235 99.4673 552.955C98.8973 553.675 98.2023 554.24 97.3823 554.65C96.5723 555.05 95.6623 555.25 94.6523 555.25C93.7923 555.25 93.0573 555.12 92.4473 554.86C91.8373 554.59 91.2923 554.22 90.8123 553.75V560.05H87.1073V539.635H89.3723C89.8523 539.635 90.1673 539.86 90.3173 540.31L90.6173 541.735ZM107.998 539.635V555.025H104.278V539.635H107.998ZM108.508 535.15C108.508 535.47 108.443 535.77 108.313 536.05C108.183 536.33 108.008 536.575 107.788 536.785C107.578 536.995 107.328 537.165 107.038 537.295C106.748 537.415 106.438 537.475 106.108 537.475C105.788 537.475 105.483 537.415 105.193 537.295C104.913 537.165 104.668 536.995 104.458 536.785C104.248 536.575 104.078 536.33 103.948 536.05C103.828 535.77 103.768 535.47 103.768 535.15C103.768 534.82 103.828 534.51 103.948 534.22C104.078 533.93 104.248 533.68 104.458 533.47C104.668 533.26 104.913 533.095 105.193 532.975C105.483 532.845 105.788 532.78 106.108 532.78C106.438 532.78 106.748 532.845 107.038 532.975C107.328 533.095 107.578 533.26 107.788 533.47C108.008 533.68 108.183 533.93 108.313 534.22C108.443 534.51 108.508 534.82 108.508 535.15ZM121.435 543.565C121.015 543.055 120.555 542.695 120.055 542.485C119.565 542.275 119.035 542.17 118.465 542.17C117.905 542.17 117.4 542.275 116.95 542.485C116.5 542.695 116.115 543.015 115.795 543.445C115.475 543.865 115.23 544.405 115.06 545.065C114.89 545.715 114.805 546.485 114.805 547.375C114.805 548.275 114.875 549.04 115.015 549.67C115.165 550.29 115.375 550.8 115.645 551.2C115.915 551.59 116.245 551.875 116.635 552.055C117.025 552.225 117.46 552.31 117.94 552.31C118.71 552.31 119.365 552.15 119.905 551.83C120.445 551.51 120.955 551.055 121.435 550.465V543.565ZM125.14 532.735V555.025H122.875C122.385 555.025 122.075 554.8 121.945 554.35L121.63 552.865C121.01 553.575 120.295 554.15 119.485 554.59C118.685 555.03 117.75 555.25 116.68 555.25C115.84 555.25 115.07 555.075 114.37 554.725C113.67 554.375 113.065 553.87 112.555 553.21C112.055 552.54 111.665 551.715 111.385 550.735C111.115 549.755 110.98 548.635 110.98 547.375C110.98 546.235 111.135 545.175 111.445 544.195C111.755 543.215 112.2 542.365 112.78 541.645C113.36 540.925 114.055 540.365 114.865 539.965C115.675 539.555 116.585 539.35 117.595 539.35C118.455 539.35 119.19 539.485 119.8 539.755C120.41 540.025 120.955 540.39 121.435 540.85V532.735H125.14ZM147.141 546.835L144.501 539.62C144.371 539.3 144.236 538.92 144.096 538.48C143.956 538.04 143.816 537.565 143.676 537.055C143.546 537.565 143.411 538.045 143.271 538.495C143.131 538.935 142.996 539.32 142.866 539.65L140.241 546.835H147.141ZM154.266 555.025H151.146C150.796 555.025 150.511 554.94 150.291 554.77C150.071 554.59 149.906 554.37 149.796 554.11L148.176 549.685H139.191L137.571 554.11C137.491 554.34 137.336 554.55 137.106 554.74C136.876 554.93 136.591 555.025 136.251 555.025H133.101L141.636 533.335H145.746L154.266 555.025ZM159.601 551.035C160.021 551.545 160.476 551.905 160.966 552.115C161.466 552.325 162.006 552.43 162.586 552.43C163.146 552.43 163.651 552.325 164.101 552.115C164.551 551.905 164.931 551.585 165.241 551.155C165.561 550.725 165.806 550.185 165.976 549.535C166.146 548.875 166.231 548.1 166.231 547.21C166.231 546.31 166.156 545.55 166.006 544.93C165.866 544.3 165.661 543.79 165.391 543.4C165.121 543.01 164.791 542.725 164.401 542.545C164.021 542.365 163.586 542.275 163.096 542.275C162.326 542.275 161.671 542.44 161.131 542.77C160.591 543.09 160.081 543.545 159.601 544.135V551.035ZM159.406 541.735C160.036 541.025 160.751 540.45 161.551 540.01C162.351 539.57 163.291 539.35 164.371 539.35C165.211 539.35 165.976 539.525 166.666 539.875C167.366 540.225 167.966 540.735 168.466 541.405C168.976 542.065 169.366 542.885 169.636 543.865C169.916 544.835 170.056 545.95 170.056 547.21C170.056 548.36 169.901 549.425 169.591 550.405C169.281 551.385 168.836 552.235 168.256 552.955C167.686 553.675 166.991 554.24 166.171 554.65C165.361 555.05 164.451 555.25 163.441 555.25C162.581 555.25 161.846 555.12 161.236 554.86C160.626 554.59 160.081 554.22 159.601 553.75V560.05H155.896V539.635H158.161C158.641 539.635 158.956 539.86 159.106 540.31L159.406 541.735ZM176.652 551.035C177.072 551.545 177.527 551.905 178.017 552.115C178.517 552.325 179.057 552.43 179.637 552.43C180.197 552.43 180.702 552.325 181.152 552.115C181.602 551.905 181.982 551.585 182.292 551.155C182.612 550.725 182.857 550.185 183.027 549.535C183.197 548.875 183.282 548.1 183.282 547.21C183.282 546.31 183.207 545.55 183.057 544.93C182.917 544.3 182.712 543.79 182.442 543.4C182.172 543.01 181.842 542.725 181.452 542.545C181.072 542.365 180.637 542.275 180.147 542.275C179.377 542.275 178.722 542.44 178.182 542.77C177.642 543.09 177.132 543.545 176.652 544.135V551.035ZM176.457 541.735C177.087 541.025 177.802 540.45 178.602 540.01C179.402 539.57 180.342 539.35 181.422 539.35C182.262 539.35 183.027 539.525 183.717 539.875C184.417 540.225 185.017 540.735 185.517 541.405C186.027 542.065 186.417 542.885 186.687 543.865C186.967 544.835 187.107 545.95 187.107 547.21C187.107 548.36 186.952 549.425 186.642 550.405C186.332 551.385 185.887 552.235 185.307 552.955C184.737 553.675 184.042 554.24 183.222 554.65C182.412 555.05 181.502 555.25 180.492 555.25C179.632 555.25 178.897 555.12 178.287 554.86C177.677 554.59 177.132 554.22 176.652 553.75V560.05H172.947V539.635H175.212C175.692 539.635 176.007 539.86 176.157 540.31L176.457 541.735ZM193.748 532.735V555.025H190.043V532.735H193.748ZM201.279 539.635V555.025H197.559V539.635H201.279ZM201.789 535.15C201.789 535.47 201.724 535.77 201.594 536.05C201.464 536.33 201.289 536.575 201.069 536.785C200.859 536.995 200.609 537.165 200.319 537.295C200.029 537.415 199.719 537.475 199.389 537.475C199.069 537.475 198.764 537.415 198.474 537.295C198.194 537.165 197.949 536.995 197.739 536.785C197.529 536.575 197.359 536.33 197.229 536.05C197.109 535.77 197.049 535.47 197.049 535.15C197.049 534.82 197.109 534.51 197.229 534.22C197.359 533.93 197.529 533.68 197.739 533.47C197.949 533.26 198.194 533.095 198.474 532.975C198.764 532.845 199.069 532.78 199.389 532.78C199.719 532.78 200.029 532.845 200.319 532.975C200.609 533.095 200.859 533.26 201.069 533.47C201.289 533.68 201.464 533.93 201.594 534.22C201.724 534.51 201.789 534.82 201.789 535.15ZM214.972 545.56C214.972 545.08 214.902 544.63 214.762 544.21C214.632 543.78 214.432 543.405 214.162 543.085C213.892 542.765 213.547 542.515 213.127 542.335C212.717 542.145 212.237 542.05 211.687 542.05C210.617 542.05 209.772 542.355 209.152 542.965C208.542 543.575 208.152 544.44 207.982 545.56H214.972ZM207.907 547.795C207.967 548.585 208.107 549.27 208.327 549.85C208.547 550.42 208.837 550.895 209.197 551.275C209.557 551.645 209.982 551.925 210.472 552.115C210.972 552.295 211.522 552.385 212.122 552.385C212.722 552.385 213.237 552.315 213.667 552.175C214.107 552.035 214.487 551.88 214.807 551.71C215.137 551.54 215.422 551.385 215.662 551.245C215.912 551.105 216.152 551.035 216.382 551.035C216.692 551.035 216.922 551.15 217.072 551.38L218.137 552.73C217.727 553.21 217.267 553.615 216.757 553.945C216.247 554.265 215.712 554.525 215.152 554.725C214.602 554.915 214.037 555.05 213.457 555.13C212.887 555.21 212.332 555.25 211.792 555.25C210.722 555.25 209.727 555.075 208.807 554.725C207.887 554.365 207.087 553.84 206.407 553.15C205.727 552.45 205.192 551.59 204.802 550.57C204.412 549.54 204.217 548.35 204.217 547C204.217 545.95 204.387 544.965 204.727 544.045C205.067 543.115 205.552 542.31 206.182 541.63C206.822 540.94 207.597 540.395 208.507 539.995C209.427 539.595 210.462 539.395 211.612 539.395C212.582 539.395 213.477 539.55 214.297 539.86C215.117 540.17 215.822 540.625 216.412 541.225C217.002 541.815 217.462 542.545 217.792 543.415C218.132 544.275 218.302 545.26 218.302 546.37C218.302 546.93 218.242 547.31 218.122 547.51C218.002 547.7 217.772 547.795 217.432 547.795H207.907ZM230.742 543.565C230.322 543.055 229.862 542.695 229.362 542.485C228.872 542.275 228.342 542.17 227.772 542.17C227.212 542.17 226.707 542.275 226.257 542.485C225.807 542.695 225.422 543.015 225.102 543.445C224.782 543.865 224.537 544.405 224.367 545.065C224.197 545.715 224.112 546.485 224.112 547.375C224.112 548.275 224.182 549.04 224.322 549.67C224.472 550.29 224.682 550.8 224.952 551.2C225.222 551.59 225.552 551.875 225.942 552.055C226.332 552.225 226.767 552.31 227.247 552.31C228.017 552.31 228.672 552.15 229.212 551.83C229.752 551.51 230.262 551.055 230.742 550.465V543.565ZM234.447 532.735V555.025H232.182C231.692 555.025 231.382 554.8 231.252 554.35L230.937 552.865C230.317 553.575 229.602 554.15 228.792 554.59C227.992 555.03 227.057 555.25 225.987 555.25C225.147 555.25 224.377 555.075 223.677 554.725C222.977 554.375 222.372 553.87 221.862 553.21C221.362 552.54 220.972 551.715 220.692 550.735C220.422 549.755 220.287 548.635 220.287 547.375C220.287 546.235 220.442 545.175 220.752 544.195C221.062 543.215 221.507 542.365 222.087 541.645C222.667 540.925 223.362 540.365 224.172 539.965C224.982 539.555 225.892 539.35 226.902 539.35C227.762 539.35 228.497 539.485 229.107 539.755C229.717 540.025 230.262 540.39 230.742 540.85V532.735H234.447ZM253.033 544.24C253.773 544.24 254.418 544.15 254.968 543.97C255.518 543.78 255.973 543.515 256.333 543.175C256.703 542.825 256.978 542.405 257.158 541.915C257.338 541.415 257.428 540.86 257.428 540.25C257.428 539.67 257.338 539.145 257.158 538.675C256.978 538.205 256.708 537.805 256.348 537.475C255.988 537.145 255.533 536.895 254.983 536.725C254.433 536.545 253.783 536.455 253.033 536.455H250.018V544.24H253.033ZM253.033 533.335C254.483 533.335 255.738 533.505 256.798 533.845C257.858 534.185 258.733 534.66 259.423 535.27C260.113 535.88 260.623 536.61 260.953 537.46C261.293 538.31 261.463 539.24 261.463 540.25C261.463 541.3 261.288 542.265 260.938 543.145C260.588 544.015 260.063 544.765 259.363 545.395C258.663 546.025 257.783 546.515 256.723 546.865C255.673 547.215 254.443 547.39 253.033 547.39H250.018V555.025H245.983V533.335H253.033ZM267.233 542.305C267.713 541.385 268.283 540.665 268.943 540.145C269.603 539.615 270.383 539.35 271.283 539.35C271.993 539.35 272.563 539.505 272.993 539.815L272.753 542.59C272.703 542.77 272.628 542.9 272.528 542.98C272.438 543.05 272.313 543.085 272.153 543.085C272.003 543.085 271.778 543.06 271.478 543.01C271.188 542.96 270.903 542.935 270.623 542.935C270.213 542.935 269.848 542.995 269.528 543.115C269.208 543.235 268.918 543.41 268.658 543.64C268.408 543.86 268.183 544.13 267.983 544.45C267.793 544.77 267.613 545.135 267.443 545.545V555.025H263.738V539.635H265.913C266.293 539.635 266.558 539.705 266.708 539.845C266.858 539.975 266.958 540.215 267.008 540.565L267.233 542.305ZM281.3 539.395C282.44 539.395 283.475 539.58 284.405 539.95C285.345 540.32 286.145 540.845 286.805 541.525C287.475 542.205 287.99 543.035 288.35 544.015C288.71 544.995 288.89 546.09 288.89 547.3C288.89 548.52 288.71 549.62 288.35 550.6C287.99 551.58 287.475 552.415 286.805 553.105C286.145 553.795 285.345 554.325 284.405 554.695C283.475 555.065 282.44 555.25 281.3 555.25C280.15 555.25 279.105 555.065 278.165 554.695C277.225 554.325 276.42 553.795 275.75 553.105C275.09 552.415 274.575 551.58 274.205 550.6C273.845 549.62 273.665 548.52 273.665 547.3C273.665 546.09 273.845 544.995 274.205 544.015C274.575 543.035 275.09 542.205 275.75 541.525C276.42 540.845 277.225 540.32 278.165 539.95C279.105 539.58 280.15 539.395 281.3 539.395ZM281.3 552.4C282.58 552.4 283.525 551.97 284.135 551.11C284.755 550.25 285.065 548.99 285.065 547.33C285.065 545.67 284.755 544.405 284.135 543.535C283.525 542.665 282.58 542.23 281.3 542.23C280 542.23 279.035 542.67 278.405 543.55C277.785 544.42 277.475 545.68 277.475 547.33C277.475 548.98 277.785 550.24 278.405 551.11C279.035 551.97 280 552.4 281.3 552.4ZM296.554 555.265C295.214 555.265 294.184 554.89 293.464 554.14C292.754 553.38 292.399 552.335 292.399 551.005V542.41H290.824C290.624 542.41 290.454 542.345 290.314 542.215C290.174 542.085 290.104 541.89 290.104 541.63V540.16L292.579 539.755L293.359 535.555C293.409 535.355 293.504 535.2 293.644 535.09C293.784 534.98 293.964 534.925 294.184 534.925H296.104V539.77H300.214V542.41H296.104V550.75C296.104 551.23 296.219 551.605 296.449 551.875C296.689 552.145 297.014 552.28 297.424 552.28C297.654 552.28 297.844 552.255 297.994 552.205C298.154 552.145 298.289 552.085 298.399 552.025C298.519 551.965 298.624 551.91 298.714 551.86C298.804 551.8 298.894 551.77 298.984 551.77C299.094 551.77 299.184 551.8 299.254 551.86C299.324 551.91 299.399 551.99 299.479 552.1L300.589 553.9C300.049 554.35 299.429 554.69 298.729 554.92C298.029 555.15 297.304 555.265 296.554 555.265ZM312.384 545.56C312.384 545.08 312.314 544.63 312.174 544.21C312.044 543.78 311.844 543.405 311.574 543.085C311.304 542.765 310.959 542.515 310.539 542.335C310.129 542.145 309.649 542.05 309.099 542.05C308.029 542.05 307.184 542.355 306.564 542.965C305.954 543.575 305.564 544.44 305.394 545.56H312.384ZM305.319 547.795C305.379 548.585 305.519 549.27 305.739 549.85C305.959 550.42 306.249 550.895 306.609 551.275C306.969 551.645 307.394 551.925 307.884 552.115C308.384 552.295 308.934 552.385 309.534 552.385C310.134 552.385 310.649 552.315 311.079 552.175C311.519 552.035 311.899 551.88 312.219 551.71C312.549 551.54 312.834 551.385 313.074 551.245C313.324 551.105 313.564 551.035 313.794 551.035C314.104 551.035 314.334 551.15 314.484 551.38L315.549 552.73C315.139 553.21 314.679 553.615 314.169 553.945C313.659 554.265 313.124 554.525 312.564 554.725C312.014 554.915 311.449 555.05 310.869 555.13C310.299 555.21 309.744 555.25 309.204 555.25C308.134 555.25 307.139 555.075 306.219 554.725C305.299 554.365 304.499 553.84 303.819 553.15C303.139 552.45 302.604 551.59 302.214 550.57C301.824 549.54 301.629 548.35 301.629 547C301.629 545.95 301.799 544.965 302.139 544.045C302.479 543.115 302.964 542.31 303.594 541.63C304.234 540.94 305.009 540.395 305.919 539.995C306.839 539.595 307.874 539.395 309.024 539.395C309.994 539.395 310.889 539.55 311.709 539.86C312.529 540.17 313.234 540.625 313.824 541.225C314.414 541.815 314.874 542.545 315.204 543.415C315.544 544.275 315.714 545.26 315.714 546.37C315.714 546.93 315.654 547.31 315.534 547.51C315.414 547.7 315.184 547.795 314.844 547.795H305.319ZM329.519 542.89C329.409 543.03 329.299 543.14 329.189 543.22C329.089 543.3 328.939 543.34 328.739 543.34C328.549 543.34 328.364 543.285 328.184 543.175C328.004 543.055 327.789 542.925 327.539 542.785C327.289 542.635 326.989 542.505 326.639 542.395C326.299 542.275 325.874 542.215 325.364 542.215C324.714 542.215 324.144 542.335 323.654 542.575C323.164 542.805 322.754 543.14 322.424 543.58C322.104 544.02 321.864 544.555 321.704 545.185C321.544 545.805 321.464 546.51 321.464 547.3C321.464 548.12 321.549 548.85 321.719 549.49C321.899 550.13 322.154 550.67 322.484 551.11C322.814 551.54 323.214 551.87 323.684 552.1C324.154 552.32 324.684 552.43 325.274 552.43C325.864 552.43 326.339 552.36 326.699 552.22C327.069 552.07 327.379 551.91 327.629 551.74C327.879 551.56 328.094 551.4 328.274 551.26C328.464 551.11 328.674 551.035 328.904 551.035C329.204 551.035 329.429 551.15 329.579 551.38L330.644 552.73C330.234 553.21 329.789 553.615 329.309 553.945C328.829 554.265 328.329 554.525 327.809 554.725C327.299 554.915 326.769 555.05 326.219 555.13C325.679 555.21 325.139 555.25 324.599 555.25C323.649 555.25 322.754 555.075 321.914 554.725C321.074 554.365 320.339 553.845 319.709 553.165C319.079 552.485 318.579 551.655 318.209 550.675C317.849 549.685 317.669 548.56 317.669 547.3C317.669 546.17 317.829 545.125 318.149 544.165C318.479 543.195 318.959 542.36 319.589 541.66C320.219 540.95 320.999 540.395 321.929 539.995C322.859 539.595 323.929 539.395 325.139 539.395C326.289 539.395 327.294 539.58 328.154 539.95C329.024 540.32 329.804 540.85 330.494 541.54L329.519 542.89ZM348.492 555.025H344.787V542.41H337.647V550.75C337.647 551.23 337.762 551.605 337.992 551.875C338.232 552.145 338.557 552.28 338.967 552.28C339.197 552.28 339.387 552.255 339.537 552.205C339.697 552.145 339.832 552.085 339.942 552.025C340.062 551.965 340.167 551.91 340.257 551.86C340.347 551.8 340.437 551.77 340.527 551.77C340.637 551.77 340.727 551.8 340.797 551.86C340.867 551.91 340.942 551.99 341.022 552.1L342.132 553.9C341.592 554.35 340.972 554.69 340.272 554.92C339.572 555.15 338.847 555.265 338.097 555.265C336.757 555.265 335.727 554.89 335.007 554.14C334.297 553.38 333.942 552.335 333.942 551.005V542.41H332.367C332.167 542.41 331.997 542.345 331.857 542.215C331.717 542.085 331.647 541.89 331.647 541.63V540.16L334.122 539.74L334.902 535.555C334.952 535.355 335.047 535.2 335.187 535.09C335.327 534.98 335.507 534.925 335.727 534.925H337.647V539.77H348.492V555.025ZM349.137 535.09C349.137 535.41 349.072 535.715 348.942 536.005C348.812 536.285 348.637 536.53 348.417 536.74C348.207 536.95 347.952 537.12 347.652 537.25C347.362 537.37 347.052 537.43 346.722 537.43C346.402 537.43 346.102 537.37 345.822 537.25C345.542 537.12 345.297 536.95 345.087 536.74C344.877 536.53 344.707 536.285 344.577 536.005C344.457 535.715 344.397 535.41 344.397 535.09C344.397 534.76 344.457 534.455 344.577 534.175C344.707 533.885 344.877 533.635 345.087 533.425C345.297 533.205 345.542 533.035 345.822 532.915C346.102 532.785 346.402 532.72 346.722 532.72C347.052 532.72 347.362 532.785 347.652 532.915C347.952 533.035 348.207 533.205 348.417 533.425C348.637 533.635 348.812 533.885 348.942 534.175C349.072 534.455 349.137 534.76 349.137 535.09ZM359.083 539.395C360.223 539.395 361.258 539.58 362.188 539.95C363.128 540.32 363.928 540.845 364.588 541.525C365.258 542.205 365.773 543.035 366.133 544.015C366.493 544.995 366.673 546.09 366.673 547.3C366.673 548.52 366.493 549.62 366.133 550.6C365.773 551.58 365.258 552.415 364.588 553.105C363.928 553.795 363.128 554.325 362.188 554.695C361.258 555.065 360.223 555.25 359.083 555.25C357.933 555.25 356.888 555.065 355.948 554.695C355.008 554.325 354.203 553.795 353.533 553.105C352.873 552.415 352.358 551.58 351.988 550.6C351.628 549.62 351.448 548.52 351.448 547.3C351.448 546.09 351.628 544.995 351.988 544.015C352.358 543.035 352.873 542.205 353.533 541.525C354.203 540.845 355.008 540.32 355.948 539.95C356.888 539.58 357.933 539.395 359.083 539.395ZM359.083 552.4C360.363 552.4 361.308 551.97 361.918 551.11C362.538 550.25 362.848 548.99 362.848 547.33C362.848 545.67 362.538 544.405 361.918 543.535C361.308 542.665 360.363 542.23 359.083 542.23C357.783 542.23 356.818 542.67 356.188 543.55C355.568 544.42 355.258 545.68 355.258 547.33C355.258 548.98 355.568 550.24 356.188 551.11C356.818 551.97 357.783 552.4 359.083 552.4ZM372.965 541.525C373.275 541.215 373.6 540.93 373.94 540.67C374.29 540.4 374.655 540.175 375.035 539.995C375.425 539.805 375.84 539.66 376.28 539.56C376.72 539.45 377.2 539.395 377.72 539.395C378.56 539.395 379.305 539.54 379.955 539.83C380.605 540.11 381.145 540.51 381.575 541.03C382.015 541.54 382.345 542.155 382.565 542.875C382.795 543.585 382.91 544.37 382.91 545.23V555.025H379.205V545.23C379.205 544.29 378.99 543.565 378.56 543.055C378.13 542.535 377.475 542.275 376.595 542.275C375.955 542.275 375.355 542.42 374.795 542.71C374.235 543 373.705 543.395 373.205 543.895V555.025H369.5V539.635H371.765C372.245 539.635 372.56 539.86 372.71 540.31L372.965 541.525Z" fill="white"/>
<defs>
<linearGradient id="paint0_linear_3929_3370" x1="218.5" y1="0" x2="218.5" y2="639" gradientUnits="userSpaceOnUse">
<stop stop-opacity="0.2"/>
<stop offset="1"/>
</linearGradient>
</defs>
</svg>
